<svg xmlns="http://www.w3.org/2000/svg" xmlns:xlink="http://www.w3.org/1999/xlink" viewBox="0 0 324.14 267.99"><defs><style>.cls-1{fill:none;clip-rule:evenodd;}.cls-2{isolation:isolate;}.cls-3{fill:#e7e9ff;}.cls-10,.cls-100,.cls-101,.cls-102,.cls-103,.cls-104,.cls-105,.cls-106,.cls-107,.cls-108,.cls-109,.cls-110,.cls-111,.cls-112,.cls-113,.cls-114,.cls-115,.cls-116,.cls-117,.cls-118,.cls-119,.cls-12,.cls-120,.cls-121,.cls-122,.cls-13,.cls-131,.cls-132,.cls-133,.cls-134,.cls-135,.cls-14,.cls-16,.cls-17,.cls-18,.cls-19,.cls-20,.cls-21,.cls-22,.cls-24,.cls-25,.cls-26,.cls-3,.cls-31,.cls-32,.cls-34,.cls-35,.cls-38,.cls-39,.cls-40,.cls-41,.cls-42,.cls-43,.cls-45,.cls-46,.cls-49,.cls-5,.cls-50,.cls-52,.cls-53,.cls-54,.cls-56,.cls-57,.cls-58,.cls-59,.cls-6,.cls-60,.cls-61,.cls-62,.cls-63,.cls-64,.cls-65,.cls-66,.cls-67,.cls-68,.cls-71,.cls-72,.cls-73,.cls-74,.cls-75,.cls-76,.cls-77,.cls-78,.cls-79,.cls-8,.cls-80,.cls-81,.cls-82,.cls-83,.cls-84,.cls-85,.cls-86,.cls-87,.cls-88,.cls-89,.cls-9,.cls-90,.cls-91,.cls-92,.cls-93,.cls-94,.cls-95,.cls-96,.cls-97,.cls-98,.cls-99{fill-rule:evenodd;}.cls-4{fill:url(#Áåçûìÿííûé_ãðàäèåíò_50);}.cls-5{fill:url(#Áåçûìÿííûé_ãðàäèåíò_4);}.cls-6{fill:url(#Áåçûìÿííûé_ãðàäèåíò_102);}.cls-7{fill:#8e003e;}.cls-8{fill:#791b36;opacity:0.45;}.cls-43,.cls-47,.cls-56,.cls-8{mix-blend-mode:multiply;}.cls-9{fill:url(#Áåçûìÿííûé_ãðàäèåíò_77);}.cls-10{fill:url(#Áåçûìÿííûé_ãðàäèåíò_99);}.cls-11{fill:url(#Áåçûìÿííûé_ãðàäèåíò_53);}.cls-12{fill:url(#Áåçûìÿííûé_ãðàäèåíò_43);}.cls-13{fill:url(#Áåçûìÿííûé_ãðàäèåíò_96);}.cls-14{fill:url(#Áåçûìÿííûé_ãðàäèåíò_43-2);}.cls-15{fill:#5e3075;}.cls-16,.cls-18,.cls-43,.cls-50,.cls-56{opacity:0.5;}.cls-16,.cls-18,.cls-21{mix-blend-mode:screen;}.cls-16{fill:url(#Áåçûìÿííûé_ãðàäèåíò_80);}.cls-17{fill:url(#Áåçûìÿííûé_ãðàäèåíò_64);}.cls-18{fill:#5656b1;}.cls-19{fill:#dedde7;}.cls-20{fill:#fff;}.cls-21{fill:url(#Áåçûìÿííûé_ãðàäèåíò_296);}.cls-22{fill:url(#Áåçûìÿííûé_ãðàäèåíò_70);}.cls-23{fill:url(#Áåçûìÿííûé_ãðàäèåíò_135);}.cls-24,.cls-49,.cls-50{fill:#fbf9fa;}.cls-134,.cls-138,.cls-24,.cls-30,.cls-49,.cls-50{mix-blend-mode:soft-light;}.cls-25{fill:url(#Áåçûìÿííûé_ãðàäèåíò_70-2);}.cls-26{fill:url(#Áåçûìÿííûé_ãðàäèåíò_73);}.cls-27{fill:url(#Áåçûìÿííûé_ãðàäèåíò_70-3);}.cls-28{fill:url(#Áåçûìÿííûé_ãðàäèåíò_135-2);}.cls-29{fill:#d03b48;}.cls-30{fill:#fbe569;}.cls-31{fill:#fbf9b8;}.cls-32{fill:url(#Áåçûìÿííûé_ãðàäèåíò_70-4);}.cls-33{fill:url(#Áåçûìÿííûé_ãðàäèåíò_135-3);}.cls-34{fill:url(#Áåçûìÿííûé_ãðàäèåíò_70-5);}.cls-35{fill:url(#Áåçûìÿííûé_ãðàäèåíò_73-2);}.cls-36{fill:url(#Áåçûìÿííûé_ãðàäèåíò_70-6);}.cls-37{fill:url(#Áåçûìÿííûé_ãðàäèåíò_135-4);}.cls-38{fill:url(#Áåçûìÿííûé_ãðàäèåíò_127);}.cls-39{fill:url(#Áåçûìÿííûé_ãðàäèåíò_192);}.cls-40{fill:url(#Áåçûìÿííûé_ãðàäèåíò_13);}.cls-41{fill:#fffb00;}.cls-42{fill:url(#Áåçûìÿííûé_ãðàäèåíò_50-2);}.cls-43,.cls-48{fill:#401734;}.cls-44{fill:url(#Áåçûìÿííûé_ãðàäèåíò_57);}.cls-45{fill:url(#Áåçûìÿííûé_ãðàäèåíò_13-2);}.cls-46{fill:url(#Áåçûìÿííûé_ãðàäèåíò_45);}.cls-47,.cls-54,.cls-55{opacity:0.2;}.cls-49{opacity:0.8;}.cls-51,.cls-54,.cls-55{fill:#5e1765;}.cls-52{fill:url(#Áåçûìÿííûé_ãðàäèåíò_21);}.cls-53{fill:url(#Áåçûìÿííûé_ãðàäèåíò_3);}.cls-56{fill:#811734;}.cls-57{fill:url(#Áåçûìÿííûé_ãðàäèåíò_4-2);}.cls-58{fill:url(#Áåçûìÿííûé_ãðàäèåíò_180);}.cls-59{fill:url(#Áåçûìÿííûé_ãðàäèåíò_4-3);}.cls-60{fill:url(#Áåçûìÿííûé_ãðàäèåíò_180-2);}.cls-61{fill:url(#Áåçûìÿííûé_ãðàäèåíò_4-4);}.cls-62{fill:url(#Áåçûìÿííûé_ãðàäèåíò_180-3);}.cls-63{fill:url(#Áåçûìÿííûé_ãðàäèåíò_4-5);}.cls-64{fill:url(#Áåçûìÿííûé_ãðàäèåíò_180-4);}.cls-65{fill:url(#Áåçûìÿííûé_ãðàäèåíò_4-6);}.cls-66{fill:url(#Áåçûìÿííûé_ãðàäèåíò_180-5);}.cls-67{fill:url(#Áåçûìÿííûé_ãðàäèåíò_4-7);}.cls-68{fill:url(#Áåçûìÿííûé_ãðàäèåíò_16);}.cls-69{clip-path:url(#clip-path);}.cls-70,.cls-71{fill:#f9c78c;}.cls-72{fill:#f9c88d;}.cls-73{fill:#f9c88e;}.cls-74{fill:#f9c98f;}.cls-75{fill:#f9ca90;}.cls-76{fill:#facb91;}.cls-77{fill:#facb92;}.cls-78{fill:#facc93;}.cls-79{fill:#facd94;}.cls-80{fill:#face95;}.cls-81{fill:#face96;}.cls-82{fill:#facf97;}.cls-83{fill:#fad098;}.cls-84{fill:#fbd099;}.cls-85{fill:#fbd19a;}.cls-86{fill:#fbd29b;}.cls-87{fill:#fbd39c;}.cls-88{fill:#fbd39d;}.cls-89{fill:#fbd49e;}.cls-90{fill:#fbd59f;}.cls-91{fill:#fbd6a0;}.cls-92{fill:#fbd6a1;}.cls-93{fill:#fcd7a2;}.cls-94{fill:#fcd8a3;}.cls-95{fill:#fcd8a4;}.cls-96{fill:#fcd9a5;}.cls-97{fill:#fcdaa7;}.cls-98{fill:#fcdba8;}.cls-99{fill:#fcdba9;}.cls-100{fill:#fcdcaa;}.cls-101{fill:#fdddab;}.cls-102{fill:#fdddac;}.cls-103{fill:#fddead;}.cls-104{fill:#fddfae;}.cls-105{fill:#fde0af;}.cls-106{fill:#fde0b0;}.cls-107{fill:#fde1b1;}.cls-108{fill:#fde2b2;}.cls-109{fill:#fde3b3;}.cls-110{fill:#fee3b4;}.cls-111{fill:#fee4b5;}.cls-112{fill:#fee5b6;}.cls-113{fill:#fee5b7;}.cls-114{fill:#fee6b8;}.cls-115{fill:#fee7b9;}.cls-116{fill:#fee8ba;}.cls-117,.cls-125{fill:#fee8bb;}.cls-118,.cls-126{fill:#ffe9bc;}.cls-119{fill:#ffeabd;}.cls-120{fill:#ffebbe;}.cls-121{fill:#ffebbf;}.cls-122,.cls-127{fill:#ffecc0;}.cls-123{clip-path:url(#clip-path-2);}.cls-124{clip-path:url(#clip-path-3);}.cls-128{clip-path:url(#clip-path-4);}.cls-129{clip-path:url(#clip-path-5);}.cls-130{fill:url(#Áåçûìÿííûé_ãðàäèåíò_13-3);}.cls-131{fill:url(#Áåçûìÿííûé_ãðàäèåíò_102-2);}.cls-132{fill:url(#Áåçûìÿííûé_ãðàäèåíò_7);}.cls-133{fill:url(#Áåçûìÿííûé_ãðàäèåíò_10);}.cls-134{fill:#ff9f57;}.cls-135,.cls-136{fill:#95295c;}.cls-137{fill:url(#Áåçûìÿííûé_ãðàäèåíò_360);}.cls-138{fill:#ffe557;}</style><linearGradient id="Áåçûìÿííûé_ãðàäèåíò_50" x1="175.97" y1="230.68" x2="168.49" y2="185.31" gradientTransform="matrix(0.99, 0.1, -0.1, 0.99, 21.87, -20.35)" gradientUnits="userSpaceOnUse"><stop offset="0" stop-color="#603082"/><stop offset="0.99" stop-color="#2a0e51"/></linearGradient><linearGradient id="Áåçûìÿííûé_ãðàäèåíò_4" x1="201.8" y1="282.23" x2="324.97" y2="282.23" gradientTransform="translate(35.24 -54.81) rotate(7.27)" gradientUnits="userSpaceOnUse"><stop offset="0" stop-color="#ff6e27"/><stop offset="1" stop-color="#e03347"/></linearGradient><linearGradient id="Áåçûìÿííûé_ãðàäèåíò_102" x1="215.77" y1="283.38" x2="326.8" y2="283.38" gradientTransform="translate(35.24 -54.81) rotate(7.27)" gradientUnits="userSpaceOnUse"><stop offset="0" stop-color="#c73e27"/><stop offset="1" stop-color="#a4152c"/></linearGradient><linearGradient id="Áåçûìÿííûé_ãðàäèåíò_77" x1="228.58" y1="230.09" x2="288.63" y2="230.09" gradientTransform="matrix(0.99, 0.1, -0.1, 0.99, 21.87, -20.35)" gradientUnits="userSpaceOnUse"><stop offset="0" stop-color="#ebd7e3"/><stop offset="0.89" stop-color="#9c87bb"/><stop offset="1" stop-color="#b7a8ce"/></linearGradient><linearGradient id="Áåçûìÿííûé_ãðàäèåíò_99" x1="228.58" y1="224.78" x2="288.62" y2="224.78" gradientTransform="matrix(0.99, 0.1, -0.1, 0.99, 21.87, -20.35)" gradientUnits="userSpaceOnUse"><stop offset="0" stop-color="#7f36bb"/><stop offset="0.99" stop-color="#2a0e51"/></linearGradient><linearGradient id="Áåçûìÿííûé_ãðàäèåíò_53" x1="241.89" y1="216.47" x2="259.55" y2="215.66" gradientTransform="matrix(0.99, 0.1, -0.1, 0.99, 21.87, -20.35)" gradientUnits="userSpaceOnUse"><stop offset="0.01" stop-color="#2a0e51"/><stop offset="1" stop-color="#2f174c"/></linearGradient><linearGradient id="Áåçûìÿííûé_ãðàäèåíò_43" x1="242.07" y1="215.31" x2="261.02" y2="215.31" gradientTransform="matrix(0.99, 0.1, -0.1, 0.99, 21.87, -20.35)" gradientUnits="userSpaceOnUse"><stop offset="0" stop-color="#2f174c"/><stop offset="0.99" stop-color="#2a0e51"/></linearGradient><linearGradient id="Áåçûìÿííûé_ãðàäèåíò_96" x1="245.07" y1="215.34" x2="258.54" y2="214.73" gradientTransform="matrix(0.99, 0.1, -0.1, 0.99, 21.87, -20.35)" gradientUnits="userSpaceOnUse"><stop offset="0" stop-color="#688eff"/><stop offset="0.99" stop-color="#4c346c"/></linearGradient><linearGradient id="Áåçûìÿííûé_ãðàäèåíò_43-2" x1="244.36" y1="215.04" x2="255.3" y2="215.04" xlink:href="#Áåçûìÿííûé_ãðàäèåíò_43"/><linearGradient id="Áåçûìÿííûé_ãðàäèåíò_80" x1="269.75" y1="242.44" x2="269.75" y2="231.62" gradientTransform="matrix(0.99, 0.1, -0.1, 0.99, 21.87, -20.35)" gradientUnits="userSpaceOnUse"><stop offset="0"/><stop offset="1" stop-color="#bdb3b1"/></linearGradient><linearGradient id="Áåçûìÿííûé_ãðàäèåíò_64" x1="228.62" y1="227.59" x2="288.62" y2="227.59" gradientTransform="matrix(0.99, 0.1, -0.1, 0.99, 21.87, -20.35)" gradientUnits="userSpaceOnUse"><stop offset="0" stop-color="#9f6bf1"/><stop offset="0.99" stop-color="#000024"/></linearGradient><radialGradient id="Áåçûìÿííûé_ãðàäèåíò_296" cx="212.55" cy="377.44" r="4.41" gradientTransform="matrix(0.67, 0.18, -0.09, 0.33, 152.16, 56.52)" gradientUnits="userSpaceOnUse"><stop offset="0" stop-color="#ff7e00"/><stop offset="0.01" stop-color="#fc7c00"/><stop offset="0.23" stop-color="#b15700"/><stop offset="0.43" stop-color="#723800"/><stop offset="0.62" stop-color="#412000"/><stop offset="0.78" stop-color="#1d0f00"/><stop offset="0.91" stop-color="#080400"/><stop offset="1"/></radialGradient><linearGradient id="Áåçûìÿííûé_ãðàäèåíò_70" x1="0.2" y1="208.58" x2="0.2" y2="161.23" gradientTransform="translate(157.21 196.38) rotate(144.39)" gradientUnits="userSpaceOnUse"><stop offset="0.04" stop-color="#ff8447"/><stop offset="0.26" stop-color="#ed3d47"/><stop offset="1" stop-color="#ff8427"/></linearGradient><linearGradient id="Áåçûìÿííûé_ãðàäèåíò_135" x1="-6.39" y1="208.19" x2="-6.39" y2="161.76" gradientTransform="translate(48.3 227.26) rotate(180)" gradientUnits="userSpaceOnUse"><stop offset="0" stop-color="#ffa700"/><stop offset="1" stop-color="#ffd328"/></linearGradient><linearGradient id="Áåçûìÿííûé_ãðàäèåíò_70-2" x1="-6.93" y1="206.01" x2="-6.93" y2="163.81" xlink:href="#Áåçûìÿííûé_ãðàäèåíò_70"/><linearGradient id="Áåçûìÿííûé_ãðàäèåíò_73" x1="-6.18" y1="205.94" x2="-6.18" y2="163.88" gradientTransform="translate(157.21 196.38) rotate(144.39)" gradientUnits="userSpaceOnUse"><stop offset="0" stop-color="#ffa700"/><stop offset="1" stop-color="#ff9c28"/></linearGradient><linearGradient id="Áåçûìÿííûé_ãðàäèåíò_70-3" x1="1216.27" y1="315.17" x2="1216.27" y2="290.17" gradientTransform="matrix(0.63, -0.46, 0.69, 0.94, -914.72, 311.24)" xlink:href="#Áåçûìÿííûé_ãðàäèåíò_70"/><linearGradient id="Áåçûìÿííûé_ãðàäèåíò_135-2" x1="1217.49" y1="315.17" x2="1217.49" y2="290.17" gradientTransform="matrix(0.63, -0.46, 0.69, 0.94, -914.72, 311.24)" xlink:href="#Áåçûìÿííûé_ãðàäèåíò_135"/><linearGradient id="Áåçûìÿííûé_ãðàäèåíò_70-4" x1="-36.62" y1="170.47" x2="-36.62" y2="134.84" gradientTransform="matrix(-0.92, 0.38, -0.38, -0.92, 118.45, 206.33)" xlink:href="#Áåçûìÿííûé_ãðàäèåíò_70"/><linearGradient id="Áåçûìÿííûé_ãðàäèåíò_135-3" x1="-41.58" y1="170.17" x2="-41.58" y2="135.24" gradientTransform="translate(57.24 201.99) rotate(180)" xlink:href="#Áåçûìÿííûé_ãðàäèåíò_135"/><linearGradient id="Áåçûìÿííûé_ãðàäèåíò_70-5" x1="-41.98" y1="168.54" x2="-41.98" y2="136.78" gradientTransform="matrix(-0.92, 0.38, -0.38, -0.92, 118.45, 206.33)" xlink:href="#Áåçûìÿííûé_ãðàäèåíò_70"/><linearGradient id="Áåçûìÿííûé_ãðàäèåíò_73-2" x1="-41.42" y1="168.49" x2="-41.42" y2="136.83" gradientTransform="matrix(-0.92, 0.38, -0.38, -0.92, 118.45, 206.33)" xlink:href="#Áåçûìÿííûé_ãðàäèåíò_73"/><linearGradient id="Áåçûìÿííûé_ãðàäèåíò_70-6" x1="1261.35" y1="340.9" x2="1261.35" y2="322.09" gradientTransform="matrix(0.71, -0.3, 0.45, 1.07, -951.66, 71.45)" xlink:href="#Áåçûìÿííûé_ãðàäèåíò_70"/><linearGradient id="Áåçûìÿííûé_ãðàäèåíò_135-4" x1="1262.27" y1="340.9" x2="1262.27" y2="322.09" gradientTransform="matrix(0.71, -0.3, 0.45, 1.07, -951.66, 71.45)" xlink:href="#Áåçûìÿííûé_ãðàäèåíò_135"/><linearGradient id="Áåçûìÿííûé_ãðàäèåíò_127" x1="148.13" y1="200.37" x2="148.13" y2="81.8" gradientUnits="userSpaceOnUse"><stop offset="0.01" stop-color="#2a0e45"/><stop offset="1" stop-color="#561f7d"/></linearGradient><radialGradient id="Áåçûìÿííûé_ãðàäèåíò_192" cx="148.79" cy="137.37" r="78.59" gradientUnits="userSpaceOnUse"><stop offset="0" stop-color="aqua"/><stop offset="0.99" stop-color="#26a9ff"/></radialGradient><radialGradient id="Áåçûìÿííûé_ãðàäèåíò_13" cx="178.37" cy="-1835.95" r="58.11" gradientTransform="translate(0 2632.52) scale(1 1.33)" gradientUnits="userSpaceOnUse"><stop offset="0" stop-color="#ebd7e3"/><stop offset="0.98" stop-color="#bdafd2"/></radialGradient><linearGradient id="Áåçûìÿííûé_ãðàäèåíò_50-2" x1="146.55" y1="220.81" x2="146.55" y2="200.37" gradientTransform="matrix(1, 0, 0, 1, 0, 0)" xlink:href="#Áåçûìÿííûé_ãðàäèåíò_50"/><radialGradient id="Áåçûìÿííûé_ãðàäèåíò_57" cx="145.86" cy="222.76" r="22.16" gradientUnits="userSpaceOnUse"><stop offset="0" stop-color="#b3819d"/><stop offset="1" stop-color="#785ca6"/></radialGradient><radialGradient id="Áåçûìÿííûé_ãðàäèåíò_13-2" cx="145.86" cy="219.77" r="22.13" gradientTransform="matrix(1, 0, 0, 1, 0, 0)" xlink:href="#Áåçûìÿííûé_ãðàäèåíò_13"/><linearGradient id="Áåçûìÿííûé_ãðàäèåíò_45" x1="147.6" y1="187.27" x2="147.6" y2="107.11" gradientUnits="userSpaceOnUse"><stop offset="0.02" stop-color="#e2dceb"/><stop offset="1" stop-color="#fff"/></linearGradient><linearGradient id="Áåçûìÿííûé_ãðàäèåíò_21" x1="108.7" y1="160.67" x2="108.7" y2="116.2" gradientUnits="userSpaceOnUse"><stop offset="0" stop-color="#ca81b9"/><stop offset="1" stop-color="#785ca6"/></linearGradient><linearGradient id="Áåçûìÿííûé_ãðàäèåíò_3" x1="192.46" y1="179.15" x2="192.46" y2="166.27" gradientUnits="userSpaceOnUse"><stop offset="0" stop-color="#e03347"/><stop offset="1" stop-color="#ff6e27"/></linearGradient><linearGradient id="Áåçûìÿííûé_ãðàäèåíò_4-2" x1="-34.88" y1="112.88" x2="-34.88" y2="96.53" gradientTransform="translate(76.88 -21.03) scale(1.08 1.25)" xlink:href="#Áåçûìÿííûé_ãðàäèåíò_4"/><radialGradient id="Áåçûìÿííûé_ãðàäèåíò_180" cx="-14.67" cy="2280.53" r="15.28" gradientTransform="translate(77.21 -2133.55) scale(1.09 0.99)" gradientUnits="userSpaceOnUse"><stop offset="0" stop-color="#ffd1a9"/><stop offset="0.99" stop-color="#f99b98"/></radialGradient><linearGradient id="Áåçûìÿííûé_ãðàäèåíò_4-3" x1="5.96" y1="112.88" x2="5.96" y2="96.53" gradientTransform="translate(76.88 -21.03) scale(1.08 1.25)" xlink:href="#Áåçûìÿííûé_ãðàäèåíò_4"/><radialGradient id="Áåçûìÿííûé_ãðàäèåíò_180-2" cx="25.92" cy="2280.53" r="14.87" xlink:href="#Áåçûìÿííûé_ãðàäèåíò_180"/><linearGradient id="Áåçûìÿííûé_ãðàäèåíò_4-4" x1="46.82" y1="112.88" x2="46.82" y2="96.53" gradientTransform="translate(76.88 -21.03) scale(1.08 1.25)" xlink:href="#Áåçûìÿííûé_ãðàäèåíò_4"/><radialGradient id="Áåçûìÿííûé_ãðàäèåíò_180-3" cx="66.61" cy="2280.53" r="14.61" xlink:href="#Áåçûìÿííûé_ãðàäèåíò_180"/><linearGradient id="Áåçûìÿííûé_ãðàäèåíò_4-5" x1="87.82" y1="112.88" x2="87.82" y2="96.53" gradientTransform="translate(76.88 -21.03) scale(1.08 1.25)" xlink:href="#Áåçûìÿííûé_ãðàäèåíò_4"/><radialGradient id="Áåçûìÿííûé_ãðàäèåíò_180-4" cx="107.25" cy="2280.53" r="14.94" xlink:href="#Áåçûìÿííûé_ãðàäèåíò_180"/><linearGradient id="Áåçûìÿííûé_ãðàäèåíò_4-6" x1="128.68" y1="112.88" x2="128.68" y2="96.53" gradientTransform="translate(76.88 -21.03) scale(1.08 1.25)" xlink:href="#Áåçûìÿííûé_ãðàäèåíò_4"/><radialGradient id="Áåçûìÿííûé_ãðàäèåíò_180-5" cx="147.85" cy="2280.53" r="15.35" xlink:href="#Áåçûìÿííûé_ãðàäèåíò_180"/><linearGradient id="Áåçûìÿííûé_ãðàäèåíò_4-7" x1="169.53" y1="112.88" x2="169.53" y2="96.53" gradientTransform="translate(76.88 -21.03) scale(1.08 1.25)" xlink:href="#Áåçûìÿííûé_ãðàäèåíò_4"/><linearGradient id="Áåçûìÿííûé_ãðàäèåíò_16" x1="79.62" y1="102.45" x2="79.62" y2="86.5" gradientTransform="translate(53.44) scale(1.21 1)" gradientUnits="userSpaceOnUse"><stop offset="0" stop-color="#ff842a"/><stop offset="1" stop-color="#ff6354"/></linearGradient><clipPath id="clip-path"><polygon class="cls-1" points="49.71 100.48 66.01 87.32 79.76 87.21 71.85 101.21 49.71 100.48"/></clipPath><clipPath id="clip-path-2"><polygon class="cls-1" points="94.21 101.8 98.86 87.11 117.89 87.05 116 102.2 94.21 101.8"/></clipPath><clipPath id="clip-path-3"><polygon class="cls-1" points="138.69 102.45 137.99 87.13 158.66 87.06 160.59 102.45 138.69 102.45"/></clipPath><clipPath id="clip-path-4"><polygon class="cls-1" points="182.93 102.22 177.61 86.8 196.15 86.72 205.29 101.81 182.93 102.22"/></clipPath><clipPath id="clip-path-5"><polygon class="cls-1" points="227.5 101.22 218.69 86.63 234.8 86.5 249.64 100.49 227.5 101.22"/></clipPath><radialGradient id="Áåçûìÿííûé_ãðàäèåíò_13-3" cx="1297.87" cy="149.62" r="13.89" gradientTransform="matrix(-1, 0.07, 0.07, 1, 1300.58, -40.46)" xlink:href="#Áåçûìÿííûé_ãðàäèåíò_13"/><linearGradient id="Áåçûìÿííûé_ãðàäèåíò_102-2" x1="1278.34" y1="140.48" x2="1278.34" y2="135.3" gradientTransform="matrix(-1, 0.07, 0.07, 1, 1300.58, -40.46)" xlink:href="#Áåçûìÿííûé_ãðàäèåíò_102"/><linearGradient id="Áåçûìÿííûé_ãðàäèåíò_7" x1="1268.59" y1="206.91" x2="1268.59" y2="135.86" gradientTransform="matrix(-1, 0.07, 0.07, 1, 1300.58, -40.46)" gradientUnits="userSpaceOnUse"><stop offset="0" stop-color="#ff8647"/><stop offset="1" stop-color="#ffb934"/></linearGradient><linearGradient id="Áåçûìÿííûé_ãðàäèåíò_10" x1="1297.25" y1="206.91" x2="1297.25" y2="138.7" gradientTransform="matrix(-1, 0.07, 0.07, 1, 1300.58, -40.46)" gradientUnits="userSpaceOnUse"><stop offset="0" stop-color="#c93347"/><stop offset="1" stop-color="#ff7527"/></linearGradient><linearGradient id="Áåçûìÿííûé_ãðàäèåíò_360" x1="1270.54" y1="190.22" x2="1270.54" y2="156.91" gradientTransform="matrix(-1, 0, 0, 1, 1314.5, 0)" gradientUnits="userSpaceOnUse"><stop offset="0.02" stop-color="#bd8bd2"/><stop offset="1" stop-color="#ebd7e3"/></linearGradient></defs><title>Asset 2</title><g class="cls-2"><g id="Layer_2" data-name="Layer 2"><g id="store"><path class="cls-3" d="M242.17,44.48A110.15,110.15,0,0,1,78.64,192.1c-40.76-45.16-49.33-128.24-4.17-169S201.4-.68,242.17,44.48Z"/><path class="cls-3" d="M230.37,19.49c.34-10.89,23.33-15.35,34.22-15a19.7,19.7,0,0,1,19.1,20.31c-.33,10.89-7.58,31.47-18.47,31.13S230,30.37,230.37,19.49Z"/><path class="cls-3" d="M274.39,99c-2.83.73-5.39-8.91-5.32-11.87.08-3.61.92-7.71,3.75-8.43s6.62,4.51,7.53,8.09S277.22,98.3,274.39,99Z"/><path class="cls-4" d="M173.74,219.46a96.53,96.53,0,0,1-22.46-5.5c-10.37-3.81-29.33-12.6-39.9-28.68l.75-.49c18,27.43,63.59,37.27,73,33a28.44,28.44,0,0,0,8.8-6.14l-.22-.13c-6.93-4.12-9.54-9.91-7-15.5,2-4.41,6.91-7.41,10.26-6.27,2.57.86,4.15,3.39,4.33,6.92.23,4.5-1.77,10-6,14.76,15.53,8.7,36.95,11.14,37.17,11.17l-.1.89c-.23,0-22-2.51-37.69-11.38a29.54,29.54,0,0,1-9.23,6.5C183,219.74,178.85,220,173.74,219.46Zm22.1-29c-2.88-.29-6.64,2.32-8.32,6-1.13,2.47-2.74,8.8,6.63,14.36l.39.23c4.12-4.56,6.09-9.92,5.87-14.26-.16-3.15-1.52-5.39-3.73-6.13A3.93,3.93,0,0,0,195.84,190.43Z"/><path class="cls-5" d="M213.19,256.77c-5.38-2.85-9-4.35-13.18-8.38,0,0,38.44,6.8,64.35,3.47l58.44,7.45S279.29,275.32,213.19,256.77Z"/><path class="cls-6" d="M213.19,256.77s63.39,17.11,109.61,2.54A5.11,5.11,0,0,1,324,264s-53,11.46-111.17-4.6A5.77,5.77,0,0,1,213.19,256.77Z"/><path class="cls-7" d="M200,248.39a7.79,7.79,0,0,0-.49,3.85l13.33,7.19.34-2.66S203.88,251.85,200,248.39Z"/><path class="cls-8" d="M229.41,252a138.29,138.29,0,0,0,31.84,10.77s13.16,1.16,19.53-.32l-28.46-9.72S233.69,252.23,229.41,252Z"/><path class="cls-9" d="M285.13,241.43a14.15,14.15,0,0,1-4.4,6.7s-5.63,3.81-21.71-2c-15.56-5.65-30.64-19.3-30.64-19.3L226.87,221s14.06-2.62,25.27,3.53S278.64,241.49,285.13,241.43Z"/><path class="cls-10" d="M278.53,244.14C265,243.41,256.24,228,244.36,223.8A47.69,47.69,0,0,0,226.91,221h0c6.17-3,25.67-7.1,41.49,0,9.59,4.29,16.53,12.7,16.92,18.14a4.51,4.51,0,0,1,0,.52.77.77,0,0,1,0,.21C285.17,242.59,283.11,244.38,278.53,244.14Z"/><path class="cls-11" d="M240.3,222.63l-.07-.16a49.66,49.66,0,0,1,18-4.67V218A49.55,49.55,0,0,0,240.3,222.63Z"/><path class="cls-12" d="M240.72,218.12s8.29-.05,14.32,3.47l4.49-1a35.56,35.56,0,0,0-16.41-2.75Z"/><path class="cls-13" d="M255,221.59l2-.45s-4.49-6.18-13.33-3.07l10,2.83Z"/><path class="cls-14" d="M253.74,220.9s-3.29-4.67-10.72-2.66Z"/><path class="cls-15" d="M276,245.72c-7.6-.78-14.51-6.75-20.8-12.17a72,72,0,0,0-9.33-7.25c-8.22-4.91-18.68-4.27-18.78-4.26l0-.18c.11,0,10.63-.65,18.89,4.29a72.62,72.62,0,0,1,9.35,7.27c8.34,7.19,17.78,15.33,28.41,11l.07.16A16,16,0,0,1,276,245.72Z"/><path class="cls-16" d="M259,246.1l4.69-8.76a32.68,32.68,0,0,0,9,5.54L268,248.67A47.79,47.79,0,0,1,259,246.1Z"/><path class="cls-17" d="M278.53,244.14C265,243.41,256.24,228,244.36,223.8A47.69,47.69,0,0,0,226.91,221a43.37,43.37,0,0,1,20.25,3c11.53,4.8,17.56,17.07,28.77,19.18,8.72,1.65,9.19-1.76,9.35-3.3C285.17,242.59,283.11,244.38,278.53,244.14Z"/><path class="cls-18" d="M242,223l.08-.79a33.08,33.08,0,0,1,9.8,4.21l-.88.86A25.42,25.42,0,0,0,242,223Z"/><path class="cls-19" d="M226.91,221a45.81,45.81,0,0,1,18.48,3.66c9.61,4.3,17.22,14.62,26.61,18a42.45,42.45,0,0,1-12-8C253.56,228.67,246.76,220.74,226.91,221Z"/><path class="cls-20" d="M259.28,221.3c.5.18.83.55.73.82s-.58.35-1.09.16-.83-.54-.73-.81S258.77,221.12,259.28,221.3Z"/><path class="cls-21" d="M262,222.61c-.22.81-1.72,1.11-3.35.66s-2.76-1.47-2.53-2.29,1.72-1.11,3.35-.66S262.27,221.79,262,222.61Z"/><path class="cls-22" d="M41.17,23.41a17.08,17.08,0,0,0-6.11,4.38S31.6,35.88,42.46,51,62.78,65.31,62.78,65.31s4.54-2,6.73-5.56Z"/><ellipse class="cls-23" cx="54.69" cy="42.28" rx="10.53" ry="23.21" transform="translate(-14.39 39.75) rotate(-35.61)"/><path class="cls-24" d="M59.88,60.83,52.06,25.14S47.35,22.19,45,22.45l8,33.68S56.76,59.75,59.88,60.83Z"/><path class="cls-25" d="M47.39,47.59c-6.46-9-8.61-18.68-5.08-22.24a5.31,5.31,0,0,1,.56-.49c4.3-3.07,13.29,2.12,20.07,11.59s8.8,19.65,4.51,22.72a3.93,3.93,0,0,1-.65.38C62.3,61.75,53.85,56.61,47.39,47.59Z"/><path class="cls-26" d="M47.39,47.59c-6.46-9-8.61-18.68-5.08-22.24,4.5-2.19,13,2.95,19.42,12S70.33,56,66.8,59.55C62.3,61.75,53.85,56.61,47.39,47.59Z"/><path class="cls-27" d="M49.9,35.21a1.32,1.32,0,0,1,.61-.25c.43-.11,4.11,1.75,4.63,1.69l-1.35,1a2.55,2.55,0,0,0-.86-.06,3.37,3.37,0,0,0-.72.12,3.54,3.54,0,0,0-.67.24,1.12,1.12,0,0,0-.34.92,2.23,2.23,0,0,0,.46,1.23,2.87,2.87,0,0,0,.91.87,5,5,0,0,0,1.06.46c.37.12.76.22,1.17.31a7.15,7.15,0,0,1,1.27.4,6.47,6.47,0,0,1,1.3.75,6.57,6.57,0,0,1,1.29,1.33,6.1,6.1,0,0,1,.85,1.6,4.26,4.26,0,0,1,.27,1.41,3.29,3.29,0,0,1-.19,1.2c-.13.37,1-.3.84,0l3.71,5L61.7,55.14l-3.42-5-.28.16a2.4,2.4,0,0,1-.53.23,3.13,3.13,0,0,1-.73.16,2.28,2.28,0,0,1-.85-.07L54,47.74a3.69,3.69,0,0,0,1.13.06,5.65,5.65,0,0,0,.89-.17,3.39,3.39,0,0,0,.78-.33,1.8,1.8,0,0,0-.33-1.68,2.05,2.05,0,0,0-.78-.68,6.87,6.87,0,0,0-1.09-.46l-1.29-.4a8.33,8.33,0,0,1-1.41-.57,7.26,7.26,0,0,1-1.41-.9,6.89,6.89,0,0,1-1.32-1.44,5.79,5.79,0,0,1-1.15-2.75,3.22,3.22,0,0,1,.49-2.23L45,31.34l1.35-1Z"/><path class="cls-28" d="M50.75,34.41A4.21,4.21,0,0,1,51.86,34a10.78,10.78,0,0,1,1.43-.26l1.85,2.93a2.9,2.9,0,0,0-.87-.07,4.11,4.11,0,0,0-.71.13,4.39,4.39,0,0,0-.67.23,1.13,1.13,0,0,0-.34.93A2.23,2.23,0,0,0,53,39.1a2.77,2.77,0,0,0,.91.87,4.92,4.92,0,0,0,1,.46c.38.11.77.22,1.18.3a8.14,8.14,0,0,1,1.27.41,6,6,0,0,1,1.3.75A6.32,6.32,0,0,1,60,43.22a6.1,6.1,0,0,1,.85,1.6,4.26,4.26,0,0,1,.27,1.41,3.29,3.29,0,0,1-.19,1.2,3.12,3.12,0,0,1-.51.94l3.71,5-1.09.75-3.43-5-.27.16a3,3,0,0,1-.53.23,3.13,3.13,0,0,1-.73.16,2.51,2.51,0,0,1-.85-.07l-1.85-2.83a3.69,3.69,0,0,0,1.13.06,5.89,5.89,0,0,0,.89-.17,3.39,3.39,0,0,0,.78-.33,1.82,1.82,0,0,0-.33-1.69,2.24,2.24,0,0,0-.78-.68A7.28,7.28,0,0,0,56,43.5l-1.3-.41a8.49,8.49,0,0,1-2.81-1.46,7.15,7.15,0,0,1-1.32-1.44,5.79,5.79,0,0,1-1.15-2.75,3.22,3.22,0,0,1,.49-2.23l-3.57-4.85,1.1-.75Z"/><polygon class="cls-29" points="55.39 46.76 54.04 47.74 55.89 50.57 57.24 49.59 55.39 46.76"/><polygon class="cls-29" points="48.55 36.19 49.9 35.21 46.33 30.36 44.98 31.34 48.55 36.19"/><polygon class="cls-29" points="58.28 50.09 59.63 49.11 63.05 54.16 61.7 55.14 58.28 50.09"/><path class="cls-30" d="M59.88,60.83l-3.82,2.73a23,23,0,0,1-6.81-4.75L53,56.13S56.72,59.74,59.88,60.83Z"/><path class="cls-30" d="M39,27,34.59,30.1a16.8,16.8,0,0,0,.08,3.49l4.12-2.2A10.9,10.9,0,0,1,39,27Z"/><path class="cls-31" d="M70.58,53.16s-2,3.79-.65,5.83A10,10,0,0,0,70.58,53.16Z"/><path class="cls-32" d="M92.17,33.13a13,13,0,0,0-5.24,2.16S83,40.62,88.34,53.59s12.42,14,12.42,14a13,13,0,0,0,5.89-2.91Z"/><ellipse class="cls-33" cx="98.81" cy="49.29" rx="7.92" ry="17.47" transform="translate(-11.32 41.29) rotate(-22.36)"/><path class="cls-24" d="M99.41,63.77l.43-27.49s-2.94-3-4.73-3.19l.07,26.05A18.56,18.56,0,0,0,99.41,63.77Z"/><path class="cls-34" d="M92.54,51.92c-3.17-7.72-3.08-15.17.12-17.17l.5-.26c3.68-1.51,9.37,3.84,12.7,11.95s3,15.91-.62,17.42a3.38,3.38,0,0,1-.54.17C101,64.86,95.72,59.64,92.54,51.92Z"/><path class="cls-35" d="M92.54,51.92c-3.17-7.72-3.08-15.17.12-17.17,3.68-.83,9,4.4,12.16,12.12S107.9,62,104.7,64C101,64.86,95.72,59.64,92.54,51.92Z"/><path class="cls-36" d="M96.52,43.28a.91.91,0,0,1,.49-.07c.34,0,2.71,2,3.1,2L99,45.73a2.41,2.41,0,0,0-.63-.2,2.68,2.68,0,0,0-.55,0,2.33,2.33,0,0,0-.53.06.84.84,0,0,0-.4.61,1.76,1.76,0,0,0,.12,1,2.14,2.14,0,0,0,.52.79,3.9,3.9,0,0,0,.69.52,7.68,7.68,0,0,0,.81.42,5.18,5.18,0,0,1,.86.52,4.5,4.5,0,0,1,.82.77,5.14,5.14,0,0,1,.72,1.2,5,5,0,0,1,.35,1.32,3.44,3.44,0,0,1,0,1.08,2.44,2.44,0,0,1-.35.84c-.15.25.82,0,.62.12l1.85,4.33-2.09.85-1.63-4.29-.23.07a3.34,3.34,0,0,1-.43.08,2.69,2.69,0,0,1-.56,0,1.86,1.86,0,0,1-.61-.19l-.87-2.39a3.09,3.09,0,0,0,.82.23,5.83,5.83,0,0,0,.68,0,2.6,2.6,0,0,0,.63-.12,1.34,1.34,0,0,0,0-1.28,1.61,1.61,0,0,0-.46-.64,5.36,5.36,0,0,0-.72-.52l-.87-.52a6.89,6.89,0,0,1-.94-.65,5.81,5.81,0,0,1-.87-.91A4.87,4.87,0,0,1,95,47.53a4.46,4.46,0,0,1-.37-2.21,2.36,2.36,0,0,1,.75-1.55L93.58,39.6l1.16-.48Z"/><path class="cls-37" d="M97.28,42.84a3.76,3.76,0,0,1,.89-.12,8.42,8.42,0,0,1,1.09.06l.85,2.46a2.24,2.24,0,0,0-.62-.2,2.71,2.71,0,0,0-.55,0,4.52,4.52,0,0,0-.53.06.83.83,0,0,0-.4.62,1.57,1.57,0,0,0,.12,1,2.16,2.16,0,0,0,.51.79,3.53,3.53,0,0,0,.7.52c.25.15.52.29.81.43a6.46,6.46,0,0,1,.86.51,5.3,5.3,0,0,1,.82.77,5.14,5.14,0,0,1,.72,1.2,5,5,0,0,1,.34,1.32,3.46,3.46,0,0,1,0,1.08,2.58,2.58,0,0,1-.35.85,2.62,2.62,0,0,1-.54.6l1.85,4.33-.93.36-1.63-4.29-.23.07a2.21,2.21,0,0,1-.43.08,2.65,2.65,0,0,1-.56,0,1.82,1.82,0,0,1-.61-.2l-.87-2.39a2.79,2.79,0,0,0,.82.24,4.05,4.05,0,0,0,.67,0,2.44,2.44,0,0,0,.63-.11,1.33,1.33,0,0,0,.06-1.29,1.66,1.66,0,0,0-.46-.63,5.13,5.13,0,0,0-.72-.52c-.27-.17-.56-.34-.88-.52a7.6,7.6,0,0,1-.93-.66,6.27,6.27,0,0,1-.88-.9,5.72,5.72,0,0,1-.72-1.28,4.38,4.38,0,0,1-.36-2.22,2.42,2.42,0,0,1,.74-1.55l-1.78-4.16.94-.36Z"/><polygon class="cls-29" points="98.55 52.69 97.39 53.18 98.26 55.57 99.42 55.08 98.55 52.69"/><polygon class="cls-29" points="95.37 43.77 96.52 43.28 94.74 39.12 93.58 39.6 95.37 43.77"/><polygon class="cls-29" points="100.09 55.63 101.25 55.14 102.88 59.43 101.72 59.91 100.09 55.63"/><path class="cls-30" d="M99.41,63.77l-3.27,1.34A17.4,17.4,0,0,1,92,60.46l3.21-1.32A18.1,18.1,0,0,0,99.41,63.77Z"/><path class="cls-30" d="M90,35.35,86.19,36.9a12.11,12.11,0,0,0-.54,2.57l3.4-.9A8.3,8.3,0,0,1,90,35.35Z"/><path class="cls-31" d="M108.57,60s-2.13,2.42-1.48,4.16A7.58,7.58,0,0,0,108.57,60Z"/><path class="cls-38" d="M254.58,87.69l-3.3,79.38L250.11,195a5.63,5.63,0,0,1-5.61,5.37H50.71a5.63,5.63,0,0,1-5.62-5.43L41.67,87.62a5.62,5.62,0,0,1,5.61-5.82H249A5.62,5.62,0,0,1,254.58,87.69Z"/><polygon class="cls-39" points="49.41 87.98 51.14 187.15 244.61 186.96 248.16 87.58 49.41 87.98"/><path class="cls-40" d="M45.09,194.94v-2.46l205.19-1.19-.17,3.71s.06,5-5.61,5.37H50.71S45.27,200.06,45.09,194.94Z"/><path class="cls-41" d="M233.86,195.83a1.68,1.68,0,1,1-1.67-1.68A1.68,1.68,0,0,1,233.86,195.83Z"/><polygon class="cls-42" points="129.46 200.37 133.8 220.81 159.43 220.81 163.64 200.37 129.46 200.37"/><polygon class="cls-43" points="130.97 207.48 161.54 210.59 163.64 200.37 129.46 200.37 130.97 207.48"/><rect class="cls-44" x="114.58" y="220.81" width="62.57" height="3.91"/><polygon class="cls-45" points="177.15 220.81 159.86 218.73 133.36 218.73 114.58 220.81 177.15 220.81"/><polygon class="cls-46" points="71.59 107.11 73.23 186.88 220.47 187.27 223.61 107.42 71.59 107.11"/><g class="cls-47"><polygon class="cls-48" points="211.49 111.64 212.93 110.19 217.78 115.88 217.06 116.6 211.49 111.64"/><polygon class="cls-48" points="216.75 110.19 218.2 111.64 212.51 116.49 211.79 115.77 216.75 110.19"/></g><polygon class="cls-49" points="162.39 224.72 162.39 220.81 176.04 220.81 175.21 224.72 162.39 224.72"/><path class="cls-49" d="M254.59,87.68l-3.31,79.39-1,8.06-3.51-4.53,3-84.19H146.68l-4.6-4.61H249A5.62,5.62,0,0,1,254.59,87.68Z"/><polygon class="cls-50" points="152.86 87.77 245.39 165.15 248.16 87.58 152.86 87.77"/><path class="cls-49" d="M43.78,153.64l5.64,3.94,1,30.24H99.1l11.31,12.55H50.71a5.71,5.71,0,0,1-5.62-4.54Z"/><polygon class="cls-50" points="50.67 160.55 90.03 187.12 51.14 187.15 50.67 160.55"/><g class="cls-47"><rect class="cls-51" x="145.04" y="122.77" width="20.54" height="1.44"/><rect class="cls-51" x="145.04" y="125.41" width="30.99" height="1.44"/><rect class="cls-51" x="145.04" y="120.23" width="20.54" height="1.44"/><rect class="cls-51" x="145.04" y="117.35" width="12.32" height="1.44"/><rect class="cls-51" x="145.04" y="128.01" width="8.47" height="1.44"/><rect class="cls-51" x="158.92" y="128.01" width="16.25" height="1.44"/><rect class="cls-51" x="155.31" y="128.01" width="2.63" height="1.44"/><rect class="cls-51" x="166.89" y="122.68" width="2.63" height="1.44"/><rect class="cls-51" x="145.04" y="130.45" width="20.54" height="1.44"/><rect class="cls-51" x="145.04" y="133.09" width="30.99" height="1.44"/><rect class="cls-51" x="145.04" y="135.69" width="8.47" height="1.44"/><rect class="cls-51" x="155.31" y="135.69" width="2.63" height="1.44"/><rect class="cls-51" x="158.92" y="117.35" width="12.32" height="1.44"/></g><polygon class="cls-52" points="77.09 116.2 77.95 160.67 140.3 160.67 140.3 116.2 77.09 116.2"/><polygon class="cls-53" points="175.16 166.26 175.16 179.15 209.29 179.15 209.76 166.26 175.16 166.26"/><polygon class="cls-54" points="77.95 169.32 78.19 179.3 87.55 179.3 87.55 169.32 77.95 169.32"/><polygon class="cls-54" points="88.52 169.32 88.77 179.3 98.13 179.3 98.13 169.32 88.52 169.32"/><rect class="cls-55" x="99.04" y="169.32" width="9.6" height="9.98"/><polygon class="cls-54" points="109.6 169.32 109.85 179.3 119.21 179.3 119.21 169.32 109.6 169.32"/><polygon class="cls-54" points="120.18 169.32 120.42 179.3 129.78 179.3 129.78 169.32 120.18 169.32"/><rect class="cls-55" x="130.7" y="169.32" width="9.6" height="9.98"/><polygon class="cls-56" points="42.96 128.01 252.78 131.17 254.12 100.74 42.96 110.68 42.96 128.01"/><path class="cls-57" d="M40.92,120.06h0c-6,0-11.34-3.56-11.91-8L27.38,99.62H49.61l1.33,12.47C51.41,116.5,46.92,120.06,40.92,120.06Z"/><path class="cls-58" d="M62.65,120.06h0c-6,0-11.24-3.56-11.71-8L49.61,99.62H71.85l1,12.47C73.23,116.5,68.65,120.06,62.65,120.06Z"/><path class="cls-59" d="M84.39,120.06h0c-6,0-11.16-3.56-11.52-8l-1-12.47H94.09l.71,12.47C95.05,116.5,90.39,120.06,84.39,120.06Z"/><path class="cls-60" d="M106.12,120.06h0c-6,0-11.07-3.56-11.32-8l-.71-12.47h22.23l.41,12.47C116.87,116.5,112.12,120.06,106.12,120.06Z"/><path class="cls-61" d="M127.85,120.06h0c-6,0-11-3.56-11.12-8l-.41-12.47h22.24l.1,12.47C138.69,116.5,133.86,120.06,127.85,120.06Z"/><path class="cls-62" d="M149.59,120.06h0c-6,0-10.9-3.56-10.93-8l-.1-12.47H160.8l-.21,12.47C160.51,116.5,155.59,120.06,149.59,120.06Z"/><path class="cls-63" d="M171.32,120.06h0c-6,0-10.81-3.56-10.73-8l.21-12.47H183l-.51,12.47C182.34,116.5,177.32,120.06,171.32,120.06Z"/><path class="cls-64" d="M193.06,120.06h0c-6,0-10.72-3.56-10.54-8L183,99.62h22.24l-.82,12.47C204.16,116.5,199.06,120.06,193.06,120.06Z"/><path class="cls-65" d="M214.79,120.06h0c-6,0-10.63-3.56-10.34-8l.82-12.47H227.5l-1.12,12.47C226,116.5,220.79,120.06,214.79,120.06Z"/><path class="cls-66" d="M236.52,120.06h0c-6,0-10.54-3.56-10.14-8l1.12-12.47h22.24l-1.43,12.47C247.8,116.5,242.53,120.06,236.52,120.06Z"/><path class="cls-67" d="M258.26,120.06h0c-6,0-10.46-3.56-9.95-8l1.43-12.47H272l-1.74,12.47C269.62,116.5,264.26,120.06,258.26,120.06Z"/><path class="cls-68" d="M49.79,87.33,27.38,99.62c90.51,3.69,151.8,3.84,244.6,0L248.6,86.5Z"/><g class="cls-69"><rect class="cls-70" x="49.71" y="87.21" width="30.05" height="14"/><polygon class="cls-71" points="80.76 98.95 80.76 102.21 48.71 102.21 48.71 86.21 80.76 86.21 80.76 98.95"/><polygon class="cls-72" points="80.76 98.93 80.76 102.21 48.71 102.21 48.71 86.21 80.76 86.21 80.76 98.93"/><polygon class="cls-73" points="80.76 98.91 80.76 102.21 48.71 102.21 48.71 86.21 80.76 86.21 80.76 98.91"/><polygon class="cls-74" points="80.76 98.89 80.76 102.21 48.71 102.21 48.71 86.21 80.76 86.21 80.76 98.89"/><polygon class="cls-75" points="80.76 98.87 80.76 102.21 48.71 102.21 48.71 86.21 80.76 86.21 80.76 98.87"/><polygon class="cls-76" points="80.76 98.85 80.76 102.21 48.71 102.21 48.71 86.21 80.76 86.21 80.76 98.85"/><polygon class="cls-77" points="80.76 98.83 80.76 102.21 48.71 102.21 48.71 86.21 80.76 86.21 80.76 98.83"/><polygon class="cls-78" points="80.76 98.81 80.76 102.21 48.71 102.21 48.71 86.21 80.76 86.21 80.76 98.81"/><polygon class="cls-79" points="80.76 98.79 80.76 102.21 48.71 102.21 48.71 86.21 80.76 86.21 80.76 98.79"/><polygon class="cls-80" points="80.76 98.77 80.76 102.21 48.71 102.21 48.71 86.21 80.76 86.21 80.76 98.77"/><polygon class="cls-81" points="80.76 98.75 80.76 102.21 48.71 102.21 48.71 86.21 80.76 86.21 80.76 98.75"/><polygon class="cls-82" points="80.76 98.73 80.76 102.21 48.71 102.21 48.71 86.21 80.76 86.21 80.76 98.73"/><polygon class="cls-83" points="80.76 98.72 80.76 102.21 48.71 102.21 48.71 86.21 80.76 86.21 80.76 98.72"/><polygon class="cls-84" points="80.76 98.69 80.76 102.21 48.71 102.21 48.71 86.21 80.76 86.21 80.76 98.69"/><polygon class="cls-85" points="80.76 98.68 80.76 102.21 48.71 102.21 48.71 86.21 80.76 86.21 80.76 98.68"/><polygon class="cls-86" points="80.76 98.66 80.76 102.21 48.71 102.21 48.71 86.21 80.76 86.21 80.76 98.66"/><polygon class="cls-87" points="80.76 98.64 80.76 102.21 48.71 102.21 48.71 86.21 80.76 86.21 80.76 98.64"/><polygon class="cls-88" points="80.76 98.62 80.76 102.21 48.71 102.21 48.71 86.21 80.76 86.21 80.76 98.62"/><path class="cls-89" d="M80.76,98.6v3.61H51.42v6.56a33.66,33.66,0,0,1-2-11.5,33.32,33.32,0,0,1,2.12-11.46v.4H80.76Z"/><path class="cls-90" d="M80.76,98.58v3.63H54.32v6.24a32.43,32.43,0,0,1,.15-22.29v0H80.76Z"/><path class="cls-91" d="M80.76,98.56v3.65H57.23v5.92a31.21,31.21,0,0,1,.14-21.61,36.25,36.25,0,0,1,2.36-5.12v4.81h21Z"/><path class="cls-92" d="M80.76,98.54v3.67H60.13v5.6a30.29,30.29,0,0,1,.13-20.93,35.31,35.31,0,0,1,2.3-5v4.3h18.2Z"/><path class="cls-93" d="M80.76,98.52v3.69H63v5.28a29.33,29.33,0,0,1,.13-20.26,33.43,33.43,0,0,1,2.22-4.8v3.78H80.76Z"/><path class="cls-94" d="M80.76,98.5v3.71H65.93v5a28.34,28.34,0,0,1,.13-19.58A31.76,31.76,0,0,1,68.2,83v3.26H80.76Z"/><path class="cls-95" d="M80.76,98.48v3.73H68.83v4.64a27.28,27.28,0,0,1-1.62-9.46A27.68,27.68,0,0,1,69,88,32.36,32.36,0,0,1,71,83.46v2.75h9.74Z"/><path class="cls-96" d="M80.76,98.46v3.75h-9v4.33a26.65,26.65,0,0,1-1.57-9.13,29.31,29.31,0,0,1,6.4-17.57v6.37h4.2Z"/><path class="cls-97" d="M80.76,98.44v3.77H74.63v4a25.6,25.6,0,0,1-1.51-8.79,28.16,28.16,0,0,1,6.16-16.92v5.7h1.48Z"/><path class="cls-98" d="M80.76,98.42v3.79H77.53v3.69a24.62,24.62,0,0,1-1.45-8.45A27.1,27.1,0,0,1,82,81.18l-1.24,5Z"/><path class="cls-99" d="M80.76,98.4v3.81h-.33v3.37A23.65,23.65,0,0,1,79,97.47a26.07,26.07,0,0,1,5.68-15.62l-4,4.36Z"/><path class="cls-100" d="M80.76,98.38v0Z"/><path class="cls-101" d="M80.76,98.36v0Z"/><path class="cls-102" d="M80.76,98.34v0Z"/><path class="cls-103" d="M80.76,98.33v0Z"/><path class="cls-104" d="M80.76,98.31v0Z"/><path class="cls-105" d="M80.76,98.29v0Z"/><path class="cls-106" d="M80.76,98.27v0Z"/><path class="cls-107" d="M80.76,98.25v0Z"/><path class="cls-108" d="M80.76,98.23v0Z"/><path class="cls-109" d="M80.76,98.21v0Z"/><path class="cls-110" d="M80.76,98.19v0Z"/><path class="cls-111" d="M80.76,98.17v0Z"/><path class="cls-112" d="M80.76,98.15v0Z"/><path class="cls-113" d="M80.76,98.13v0Z"/><path class="cls-114" d="M80.76,98.11v0Z"/><path class="cls-115" d="M80.76,98.09v0Z"/><path class="cls-116" d="M80.76,98.07v0Z"/><path class="cls-117" d="M80.76,98.05v0Z"/><path class="cls-118" d="M80.76,98v0Z"/><path class="cls-119" d="M80.76,98v0Z"/><path class="cls-120" d="M80.76,98v0Z"/><path class="cls-121" d="M80.76,98v0Z"/><path class="cls-122" d="M80.76,98v0Z"/></g><g class="cls-123"><rect class="cls-70" x="94.21" y="87.05" width="23.68" height="15.15"/><polygon class="cls-71" points="118.89 99.72 118.89 103.2 93.21 103.2 93.21 86.05 118.89 86.05 118.89 99.72"/><polygon class="cls-72" points="118.89 99.7 118.89 103.2 93.21 103.2 93.21 86.05 118.89 86.05 118.89 99.7"/><polygon class="cls-73" points="118.89 99.68 118.89 103.2 93.21 103.2 93.21 86.05 118.89 86.05 118.89 99.68"/><polygon class="cls-74" points="118.89 99.66 118.89 103.2 93.21 103.2 93.21 86.05 118.89 86.05 118.89 99.66"/><polygon class="cls-75" points="118.89 99.64 118.89 103.2 93.21 103.2 93.21 86.05 118.89 86.05 118.89 99.64"/><polygon class="cls-76" points="118.89 99.62 118.89 103.2 93.21 103.2 93.21 86.05 118.89 86.05 118.89 99.62"/><polygon class="cls-77" points="118.89 99.6 118.89 103.2 93.21 103.2 93.21 86.05 118.89 86.05 118.89 99.6"/><polygon class="cls-78" points="118.89 99.58 118.89 103.2 93.21 103.2 93.21 86.05 118.89 86.05 118.89 99.58"/><polygon class="cls-79" points="118.89 99.56 118.89 103.2 93.21 103.2 93.21 86.05 118.89 86.05 118.89 99.56"/><polygon class="cls-80" points="118.89 99.54 118.89 103.2 93.21 103.2 93.21 86.05 118.89 86.05 118.89 99.54"/><polygon class="cls-81" points="118.89 99.52 118.89 103.2 93.21 103.2 93.21 86.05 118.89 86.05 118.89 99.52"/><polygon class="cls-82" points="118.89 99.5 118.89 103.2 93.21 103.2 93.21 86.05 118.89 86.05 118.89 99.5"/><polygon class="cls-83" points="118.89 99.48 118.89 103.2 93.21 103.2 93.21 86.05 118.89 86.05 118.89 99.48"/><polygon class="cls-84" points="118.89 99.46 118.89 103.2 93.21 103.2 93.21 86.05 118.89 86.05 118.89 99.46"/><polygon class="cls-85" points="118.89 99.44 118.89 103.2 93.21 103.2 93.21 86.05 118.89 86.05 118.89 99.44"/><polygon class="cls-86" points="118.89 99.42 118.89 103.2 93.21 103.2 93.21 86.05 118.89 86.05 118.89 99.42"/><polygon class="cls-87" points="118.89 99.4 118.89 103.2 93.21 103.2 93.21 86.05 118.89 86.05 118.89 99.4"/><polygon class="cls-88" points="118.89 99.38 118.89 103.2 93.21 103.2 93.21 86.05 118.89 86.05 118.89 99.38"/><polygon class="cls-89" points="118.89 99.36 118.89 103.2 93.21 103.2 93.21 86.05 118.89 86.05 118.89 99.36"/><polygon class="cls-90" points="118.89 99.34 118.89 103.2 93.21 103.2 93.21 86.05 118.89 86.05 118.89 99.34"/><polygon class="cls-91" points="118.89 99.33 118.89 103.2 93.21 103.2 93.21 86.05 118.89 86.05 118.89 99.33"/><polygon class="cls-92" points="118.89 99.31 118.89 103.2 93.21 103.2 93.21 86.05 118.89 86.05 118.89 99.31"/><polygon class="cls-93" points="118.89 99.29 118.89 103.2 93.21 103.2 93.21 86.05 118.89 86.05 118.89 99.29"/><polygon class="cls-94" points="118.89 99.27 118.89 103.2 93.21 103.2 93.21 86.05 118.89 86.05 118.89 99.27"/><polygon class="cls-95" points="118.89 99.25 118.89 103.2 93.21 103.2 93.21 86.05 118.89 86.05 118.89 99.25"/><polygon class="cls-96" points="118.89 99.23 118.89 103.2 93.21 103.2 93.21 86.05 118.89 86.05 118.89 99.23"/><polygon class="cls-97" points="118.89 99.21 118.89 103.2 93.21 103.2 93.21 86.05 118.89 86.05 118.89 99.21"/><polygon class="cls-98" points="118.89 99.19 118.89 103.2 93.21 103.2 93.21 86.05 118.89 86.05 118.89 99.19"/><polygon class="cls-99" points="118.89 99.17 118.89 103.2 93.21 103.2 93.21 86.05 118.89 86.05 118.89 99.17"/><polygon class="cls-100" points="118.89 99.15 118.89 103.2 93.21 103.2 93.21 86.05 118.89 86.05 118.89 99.15"/><polygon class="cls-101" points="118.89 99.13 118.89 103.2 93.21 103.2 93.21 86.05 118.89 86.05 118.89 99.13"/><polygon class="cls-102" points="118.89 99.11 118.89 103.2 93.21 103.2 93.21 86.05 118.89 86.05 118.89 99.11"/><path class="cls-103" d="M118.89,99.09v4.11H93.21V98.31H90.86a21.69,21.69,0,0,1,4.74-13v.76h23.29Z"/><path class="cls-104" d="M118.89,99.07v4.13h-24v1.56a19.06,19.06,0,0,1-1.1-6.43A20.6,20.6,0,0,1,98.32,86v.09h20.57Z"/><path class="cls-105" d="M118.89,99.05v4.15h-18v6.93a18.57,18.57,0,0,1,.16-23.5,30.79,30.79,0,0,1,5-5.1v4.52h12.89Z"/><path class="cls-106" d="M118.89,99v4.17H103.63v6.29a17.52,17.52,0,0,1,.14-22.19,29.32,29.32,0,0,1,4.67-4.81v3.56h10.45Z"/><path class="cls-107" d="M118.89,99v4.19H106.36v5.66a17.38,17.38,0,0,1-3.66-10.47c0-7.41,5.4-14.08,14-18.88v6.54h2.19Z"/><path class="cls-108" d="M118.89,99v4.21h-9.8v5a16.18,16.18,0,0,1-3.42-9.81c0-7,5-13.2,13.12-17.7v5.34h.1Z"/><path class="cls-109" d="M118.89,99v4.23h-7.07v4.39a15.11,15.11,0,0,1-3.19-9.16c0-6.48,4.72-12.32,12.25-16.52l-2,4.14Z"/><path class="cls-110" d="M118.89,99v4.25h-4.33V107a14.08,14.08,0,0,1-3-8.5c0-6,4.38-11.44,11.37-15.34l-4.07,2.94Z"/><path class="cls-111" d="M118.89,98.94v4.26h-1.6v3.12a13,13,0,0,1-2.74-7.85c0-5.56,4-10.56,10.5-14.16l-6.16,1.74Z"/><path class="cls-112" d="M118.89,98.92v4.28l1.13,2.48a11.35,11.35,0,0,1,.1-14.36h-1.23Z"/><path class="cls-113" d="M118.89,98.9v0Z"/><path class="cls-114" d="M118.89,98.88v0Z"/><path class="cls-115" d="M118.89,98.86v0Z"/><path class="cls-116" d="M118.89,98.84v0Z"/><path class="cls-117" d="M118.89,98.82v0Z"/><path class="cls-118" d="M118.89,98.8v0Z"/><path class="cls-119" d="M118.89,98.78v0Z"/><path class="cls-120" d="M118.89,98.76v0Z"/><path class="cls-121" d="M118.89,98.74v0Z"/><path class="cls-122" d="M118.89,98.72v0Z"/></g><g class="cls-124"><rect class="cls-70" x="137.99" y="87.06" width="22.59" height="15.38"/><polygon class="cls-71" points="161.59 99.93 161.59 103.45 136.99 103.45 136.99 86.06 161.59 86.06 161.59 99.93"/><polygon class="cls-72" points="161.59 99.91 161.59 103.45 136.99 103.45 136.99 86.06 161.59 86.06 161.59 99.91"/><polygon class="cls-73" points="161.59 99.89 161.59 103.45 136.99 103.45 136.99 86.06 161.59 86.06 161.59 99.89"/><polygon class="cls-74" points="161.59 99.87 161.59 103.45 136.99 103.45 136.99 86.06 161.59 86.06 161.59 99.87"/><polygon class="cls-75" points="161.59 99.85 161.59 103.45 136.99 103.45 136.99 86.06 161.59 86.06 161.59 99.85"/><polygon class="cls-76" points="161.59 99.83 161.59 103.45 136.99 103.45 136.99 86.06 161.59 86.06 161.59 99.83"/><polygon class="cls-77" points="161.59 99.81 161.59 103.45 136.99 103.45 136.99 86.06 161.59 86.06 161.59 99.81"/><polygon class="cls-78" points="161.59 99.79 161.59 103.45 136.99 103.45 136.99 86.06 161.59 86.06 161.59 99.79"/><polygon class="cls-79" points="161.59 99.77 161.59 103.45 136.99 103.45 136.99 86.06 161.59 86.06 161.59 99.77"/><polygon class="cls-80" points="161.59 99.75 161.59 103.45 136.99 103.45 136.99 86.06 161.59 86.06 161.59 99.75"/><polygon class="cls-81" points="161.59 99.73 161.59 103.45 136.99 103.45 136.99 86.06 161.59 86.06 161.59 99.73"/><polygon class="cls-82" points="161.59 99.71 161.59 103.45 136.99 103.45 136.99 86.06 161.59 86.06 161.59 99.71"/><polygon class="cls-83" points="161.59 99.69 161.59 103.45 136.99 103.45 136.99 86.06 161.59 86.06 161.59 99.69"/><polygon class="cls-84" points="161.59 99.67 161.59 103.45 136.99 103.45 136.99 86.06 161.59 86.06 161.59 99.67"/><polygon class="cls-85" points="161.59 99.65 161.59 103.45 136.99 103.45 136.99 86.06 161.59 86.06 161.59 99.65"/><polygon class="cls-86" points="161.59 99.63 161.59 103.45 136.99 103.45 136.99 86.06 161.59 86.06 161.59 99.63"/><polygon class="cls-87" points="161.59 99.61 161.59 103.45 136.99 103.45 136.99 86.06 161.59 86.06 161.59 99.61"/><polygon class="cls-88" points="161.59 99.59 161.59 103.45 136.99 103.45 136.99 86.06 161.59 86.06 161.59 99.59"/><polygon class="cls-89" points="161.59 99.57 161.59 103.45 136.99 103.45 136.99 86.06 161.59 86.06 161.59 99.57"/><polygon class="cls-90" points="161.59 99.55 161.59 103.45 136.99 103.45 136.99 86.06 161.59 86.06 161.59 99.55"/><polygon class="cls-91" points="161.59 99.53 161.59 103.45 136.99 103.45 136.99 86.06 161.59 86.06 161.59 99.53"/><polygon class="cls-92" points="161.59 99.51 161.59 103.45 136.99 103.45 136.99 86.06 161.59 86.06 161.59 99.51"/><polygon class="cls-93" points="161.59 99.49 161.59 103.45 136.99 103.45 136.99 86.06 161.59 86.06 161.59 99.49"/><polygon class="cls-94" points="161.59 99.47 161.59 103.45 136.99 103.45 136.99 86.06 161.59 86.06 161.59 99.47"/><polygon class="cls-95" points="161.59 99.45 161.59 103.45 136.99 103.45 136.99 86.06 161.59 86.06 161.59 99.45"/><polygon class="cls-96" points="161.59 99.43 161.59 103.45 136.99 103.45 136.99 86.06 161.59 86.06 161.59 99.43"/><polygon class="cls-97" points="161.59 99.41 161.59 103.45 136.99 103.45 136.99 86.06 161.59 86.06 161.59 99.41"/><polygon class="cls-98" points="161.59 99.39 161.59 103.45 136.99 103.45 136.99 86.06 161.59 86.06 161.59 99.39"/><polygon class="cls-99" points="161.59 99.37 161.59 103.45 136.99 103.45 136.99 86.06 161.59 86.06 161.59 99.37"/><polygon class="cls-100" points="161.59 99.35 161.59 103.45 136.99 103.45 136.99 86.06 161.59 86.06 161.59 99.35"/><polygon class="cls-101" points="161.59 99.33 161.59 103.45 136.99 103.45 136.99 86.06 161.59 86.06 161.59 99.33"/><polygon class="cls-102" points="161.59 99.31 161.59 103.45 136.99 103.45 136.99 86.06 161.59 86.06 161.59 99.31"/><polygon class="cls-103" points="161.59 99.29 161.59 103.45 136.99 103.45 136.99 86.06 161.59 86.06 161.59 99.29"/><polygon class="cls-104" points="161.59 99.27 161.59 103.45 136.99 103.45 136.99 86.06 161.59 86.06 161.59 99.27"/><polygon class="cls-105" points="161.59 99.25 161.59 103.45 136.99 103.45 136.99 86.06 161.59 86.06 161.59 99.25"/><polygon class="cls-106" points="161.59 99.23 161.59 103.45 136.99 103.45 136.99 86.06 161.59 86.06 161.59 99.23"/><polygon class="cls-107" points="161.59 99.21 161.59 103.45 136.99 103.45 136.99 86.06 161.59 86.06 161.59 99.21"/><polygon class="cls-108" points="161.59 99.19 161.59 103.45 136.99 103.45 136.99 86.06 161.59 86.06 161.59 99.19"/><polygon class="cls-109" points="161.59 99.17 161.59 103.45 136.99 103.45 136.99 86.06 161.59 86.06 161.59 99.17"/><polygon class="cls-110" points="161.59 99.15 161.59 103.45 136.99 103.45 136.99 86.06 161.59 86.06 161.59 99.15"/><polygon class="cls-111" points="161.59 99.13 161.59 103.45 136.99 103.45 136.99 86.06 161.59 86.06 161.59 99.13"/><polygon class="cls-112" points="161.59 99.11 161.59 103.45 136.99 103.45 136.99 86.06 161.59 86.06 161.59 99.11"/><polygon class="cls-113" points="161.59 99.09 161.59 103.45 136.99 103.45 136.99 86.06 161.59 86.06 161.59 99.09"/><path class="cls-114" d="M161.59,99.07v4.38H137V87.82h-6.11c5-2.77,11.81-4.46,19.36-4.41v2.65h10.63V84.7a38,38,0,0,1,4.63,1.45h-3.91Z"/><path class="cls-115" d="M161.59,99.05v4.4H137V89.05h-4a38.63,38.63,0,0,1,34.36.22h-5.79Z"/><path class="cls-116" d="M161.59,99v4.42H137V90.28h-1.83a33.76,33.76,0,0,1,30.06.2h-3.63Z"/><ellipse class="cls-125" cx="150.14" cy="98.89" rx="10.32" ry="18.22" transform="translate(50.26 248.37) rotate(-89.62)"/><ellipse class="cls-126" cx="150.14" cy="98.89" rx="8.6" ry="15.18" transform="translate(50.26 248.37) rotate(-89.62)"/><path class="cls-119" d="M162.28,99c0,3.8-5.48,6.84-12.19,6.8s-12.13-3.16-12.1-7S143.47,92,150.18,92,162.31,95.17,162.28,99Z"/><path class="cls-120" d="M159.25,99c0,2.85-4.12,5.13-9.15,5.1S141,101.68,141,98.83s4.11-5.13,9.14-5.1S159.26,96.1,159.25,99Z"/><path class="cls-121" d="M156.21,98.93c0,1.9-2.74,3.42-6.1,3.4s-6.06-1.58-6.05-3.48,2.74-3.42,6.1-3.4S156.22,97,156.21,98.93Z"/><ellipse class="cls-127" cx="150.14" cy="98.89" rx="1.72" ry="3.04" transform="translate(50.26 248.37) rotate(-89.62)"/></g><g class="cls-128"><rect class="cls-70" x="177.61" y="86.72" width="27.68" height="15.49"/><polygon class="cls-71" points="206.29 99.75 206.29 103.22 176.61 103.22 176.61 85.72 206.29 85.72 206.29 99.75"/><polygon class="cls-72" points="206.29 99.72 206.29 103.22 176.61 103.22 176.61 85.72 206.29 85.72 206.29 99.72"/><polygon class="cls-73" points="206.29 99.71 206.29 103.22 176.61 103.22 176.61 85.72 206.29 85.72 206.29 99.71"/><polygon class="cls-74" points="206.29 99.69 206.29 103.22 176.61 103.22 176.61 85.72 206.29 85.72 206.29 99.69"/><polygon class="cls-75" points="206.29 99.67 206.29 103.22 176.61 103.22 176.61 85.72 206.29 85.72 206.29 99.67"/><polygon class="cls-76" points="206.29 99.65 206.29 103.22 176.61 103.22 176.61 85.72 206.29 85.72 206.29 99.65"/><polygon class="cls-77" points="206.29 99.63 206.29 103.22 176.61 103.22 176.61 85.72 206.29 85.72 206.29 99.63"/><polygon class="cls-78" points="206.29 99.61 206.29 103.22 176.61 103.22 176.61 85.72 206.29 85.72 206.29 99.61"/><polygon class="cls-79" points="206.29 99.59 206.29 103.22 176.61 103.22 176.61 85.72 206.29 85.72 206.29 99.59"/><polygon class="cls-80" points="206.29 99.57 206.29 103.22 176.61 103.22 176.61 85.72 206.29 85.72 206.29 99.57"/><polygon class="cls-81" points="206.29 99.55 206.29 103.22 176.61 103.22 176.61 85.72 206.29 85.72 206.29 99.55"/><polygon class="cls-82" points="206.29 99.53 206.29 103.22 176.61 103.22 176.61 85.72 206.29 85.72 206.29 99.53"/><polygon class="cls-83" points="206.29 99.51 206.29 103.22 176.61 103.22 176.61 85.72 206.29 85.72 206.29 99.51"/><polygon class="cls-84" points="206.29 99.49 206.29 103.22 176.61 103.22 176.61 85.72 206.29 85.72 206.29 99.49"/><polygon class="cls-85" points="206.29 99.47 206.29 103.22 176.61 103.22 176.61 85.72 206.29 85.72 206.29 99.47"/><polygon class="cls-86" points="206.29 99.45 206.29 103.22 176.61 103.22 176.61 85.72 206.29 85.72 206.29 99.45"/><polygon class="cls-87" points="206.29 99.43 206.29 103.22 176.61 103.22 176.61 85.72 206.29 85.72 206.29 99.43"/><polygon class="cls-88" points="206.29 99.41 206.29 103.22 176.61 103.22 176.61 85.72 206.29 85.72 206.29 99.41"/><polygon class="cls-89" points="206.29 99.39 206.29 103.22 176.61 103.22 176.61 85.72 206.29 85.72 206.29 99.39"/><polygon class="cls-90" points="206.29 99.37 206.29 103.22 176.61 103.22 176.61 85.72 206.29 85.72 206.29 99.37"/><polygon class="cls-91" points="206.29 99.35 206.29 103.22 176.61 103.22 176.61 85.72 206.29 85.72 206.29 99.35"/><polygon class="cls-92" points="206.29 99.33 206.29 103.22 176.61 103.22 176.61 85.72 206.29 85.72 206.29 99.33"/><polygon class="cls-93" points="206.29 99.31 206.29 103.22 176.61 103.22 176.61 85.72 206.29 85.72 206.29 99.31"/><polygon class="cls-94" points="206.29 99.3 206.29 103.22 176.61 103.22 176.61 85.72 206.29 85.72 206.29 99.3"/><polygon class="cls-95" points="206.29 99.28 206.29 103.22 176.61 103.22 176.61 85.72 206.29 85.72 206.29 99.28"/><polygon class="cls-96" points="206.29 99.26 206.29 103.22 176.61 103.22 176.61 85.72 206.29 85.72 206.29 99.26"/><polygon class="cls-97" points="206.29 99.24 206.29 103.22 176.61 103.22 176.61 85.72 206.29 85.72 206.29 99.24"/><polygon class="cls-98" points="206.29 99.22 206.29 103.22 176.61 103.22 176.61 85.72 206.29 85.72 206.29 99.22"/><polygon class="cls-99" points="206.29 99.2 206.29 103.22 176.61 103.22 176.61 85.72 206.29 85.72 206.29 99.2"/><polygon class="cls-100" points="206.29 99.18 206.29 103.22 176.61 103.22 176.61 85.72 206.29 85.72 206.29 99.18"/><polygon class="cls-101" points="206.29 99.16 206.29 103.22 176.61 103.22 176.61 85.72 206.29 85.72 206.29 99.16"/><polygon class="cls-102" points="206.29 99.14 206.29 103.22 176.61 103.22 176.61 85.72 206.29 85.72 206.29 99.14"/><path class="cls-103" d="M206.29,99.12v4.1H176.61V85.72h23V80.25A33.94,33.94,0,0,1,205.05,86a21.74,21.74,0,0,1,4.58,13.12Z"/><path class="cls-104" d="M206.66,99.1a18.81,18.81,0,0,1-1.18,6.43v-2.31H176.61V85.72h20.54V81.17a32.5,32.5,0,0,1,5.16,5.46A20.66,20.66,0,0,1,206.66,99.1Z"/><path class="cls-105" d="M203.69,99.08a17.84,17.84,0,0,1-1.12,6.09v-2h-26V85.72h18.07V82.1a30.69,30.69,0,0,1,4.89,5.17A19.56,19.56,0,0,1,203.69,99.08Z"/><path class="cls-106" d="M200.73,99.06a18.54,18.54,0,0,1-4,11.1v-6.94H176.61V85.72h9.46v-7C195.17,84,200.78,91.17,200.73,99.06Z"/><path class="cls-107" d="M197.76,99A17.4,17.4,0,0,1,194,109.49v-6.27H176.61V85.72H184v-5.8C192.53,84.85,197.81,91.61,197.76,99Z"/><path class="cls-108" d="M194.79,99a16.36,16.36,0,0,1-3.57,9.8v-5.6H176.61V85.72h5.25V81.1C189.89,85.72,194.83,92.06,194.79,99Z"/><path class="cls-109" d="M191.82,99a15.22,15.22,0,0,1-3.33,9.14v-4.92H176.61V85.72h3.14V82.27C187.25,86.58,191.86,92.5,191.82,99Z"/><path class="cls-110" d="M188.85,99a14.13,14.13,0,0,1-3.09,8.49v-4.25h-9.15V85.72h1V83.45C184.6,87.45,188.89,93,188.85,99Z"/><path class="cls-111" d="M185.88,99A13,13,0,0,1,183,106.8v-3.58h-6.42V85.72l-1.07-1.1C182,88.32,185.92,93.39,185.88,99Z"/><path class="cls-112" d="M182.91,98.94a12,12,0,0,1-2.61,7.19v-2.91h-3.69V85.8h-3.18C179.32,89.19,182.94,93.83,182.91,98.94Z"/><path class="cls-113" d="M179.94,98.92a10.79,10.79,0,0,1-2.38,6.53v-2.23h-.95V87h-5.29C176.68,90.05,180,94.28,179.94,98.92Z"/><path class="cls-114" d="M177,98.9a9.73,9.73,0,0,1-2.14,5.88l1.78-1.56V93h-1.7A9.73,9.73,0,0,1,177,98.9Z"/><path class="cls-115" d="M176.61,98.88v0Z"/><path class="cls-116" d="M176.61,98.86v0Z"/><path class="cls-117" d="M176.61,98.84v0Z"/><path class="cls-118" d="M176.61,98.83v0Z"/><path class="cls-119" d="M176.61,98.81v0Z"/><path class="cls-120" d="M176.61,98.79v0Z"/><path class="cls-121" d="M176.61,98.77v0Z"/><path class="cls-122" d="M176.61,98.75v0Z"/></g><g class="cls-129"><rect class="cls-70" x="218.68" y="86.5" width="30.96" height="14.72"/><polygon class="cls-71" points="250.64 98.98 250.64 102.22 217.69 102.22 217.69 85.5 250.64 85.5 250.64 98.98"/><polygon class="cls-72" points="250.64 98.96 250.64 102.22 217.69 102.22 217.69 85.5 250.64 85.5 250.64 98.96"/><polygon class="cls-73" points="250.64 98.94 250.64 102.22 217.69 102.22 217.69 85.5 250.64 85.5 250.64 98.94"/><polygon class="cls-74" points="250.64 98.92 250.64 102.22 217.69 102.22 217.69 85.5 250.64 85.5 250.64 98.92"/><polygon class="cls-75" points="250.64 98.9 250.64 102.22 217.69 102.22 217.69 85.5 250.64 85.5 250.64 98.9"/><polygon class="cls-76" points="250.64 98.88 250.64 102.22 217.69 102.22 217.69 85.5 250.64 85.5 250.64 98.88"/><polygon class="cls-77" points="250.64 98.86 250.64 102.22 217.69 102.22 217.69 85.5 250.64 85.5 250.64 98.86"/><polygon class="cls-78" points="250.64 98.84 250.64 102.22 217.69 102.22 217.69 85.5 250.64 85.5 250.64 98.84"/><polygon class="cls-79" points="250.64 98.82 250.64 102.22 217.69 102.22 217.69 85.5 250.64 85.5 250.64 98.82"/><polygon class="cls-80" points="250.64 98.8 250.64 102.22 217.69 102.22 217.69 85.5 250.64 85.5 250.64 98.8"/><polygon class="cls-81" points="250.64 98.78 250.64 102.22 217.69 102.22 217.69 85.5 250.64 85.5 250.64 98.78"/><polygon class="cls-82" points="250.64 98.77 250.64 102.22 217.69 102.22 217.69 85.5 250.64 85.5 250.64 98.77"/><polygon class="cls-83" points="250.64 98.75 250.64 102.22 217.69 102.22 217.69 85.5 250.64 85.5 250.64 98.75"/><polygon class="cls-84" points="250.64 98.73 250.64 102.22 217.69 102.22 217.69 85.5 250.64 85.5 250.64 98.73"/><polygon class="cls-85" points="250.64 98.71 250.64 102.22 217.69 102.22 217.69 85.5 250.64 85.5 250.64 98.71"/><polygon class="cls-86" points="250.64 98.69 250.64 102.22 217.69 102.22 217.69 85.5 250.64 85.5 250.64 98.69"/><polygon class="cls-87" points="250.64 98.67 250.64 102.22 217.69 102.22 217.69 85.5 250.64 85.5 250.64 98.67"/><path class="cls-88" d="M250.64,98.65v3.57h-33V85.5h31.74V81.19a38.45,38.45,0,0,1,2.51,5.63h-1.29Z"/><path class="cls-89" d="M251,98.63a32.42,32.42,0,0,1-.56,5.82v-2.23H217.68V85.5h28.91V81.67A37.34,37.34,0,0,1,249,87.14,33.42,33.42,0,0,1,251,98.63Z"/><path class="cls-90" d="M248,98.61a31.35,31.35,0,0,1-.54,5.65v-2H217.68V85.5h26.09V82.15a37.32,37.32,0,0,1,2.37,5.31A32.59,32.59,0,0,1,248,98.61Z"/><path class="cls-91" d="M245.09,98.59a30.38,30.38,0,0,1-.53,5.48v-1.85H217.68V85.5h23.26V82.63a36.2,36.2,0,0,1,2.3,5.15A31.87,31.87,0,0,1,245.09,98.59Z"/><path class="cls-92" d="M242.13,98.57A30.64,30.64,0,0,1,240.2,109v-6.8H217.68V85.5h20.43V83.11a35.09,35.09,0,0,1,2.23,5A30.65,30.65,0,0,1,242.13,98.57Z"/><path class="cls-93" d="M239.17,98.55a29.61,29.61,0,0,1-1.86,10.11v-6.44H217.68V85.5h14.65V79C236.78,85,239.22,91.61,239.17,98.55Z"/><path class="cls-94" d="M236.22,98.53a28.75,28.75,0,0,1-1.81,9.78v-6.09H217.68V85.5H229.6V79.58C233.9,85.42,236.26,91.83,236.22,98.53Z"/><path class="cls-95" d="M233.26,98.51a27.68,27.68,0,0,1-1.74,9.44v-5.73H217.68V85.5h9.19V80.22A30.28,30.28,0,0,1,233.26,98.51Z"/><path class="cls-96" d="M230.3,98.49a26.71,26.71,0,0,1-1.68,9.1v-5.37H217.68V85.5h6.47V80.85A29.28,29.28,0,0,1,230.3,98.49Z"/><path class="cls-97" d="M227.35,98.47a25.79,25.79,0,0,1-1.62,8.77v-5h-8V85.5h3.74v-4A28.16,28.16,0,0,1,227.35,98.47Z"/><path class="cls-98" d="M224.39,98.45a24.82,24.82,0,0,1-1.56,8.43v-4.66h-5.15V85.5h1V82.12A27,27,0,0,1,224.39,98.45Z"/><path class="cls-99" d="M221.43,98.43a23.79,23.79,0,0,1-1.49,8.09v-4.3h-2.26V85.5L216,82.75A26,26,0,0,1,221.43,98.43Z"/><path class="cls-100" d="M218.48,98.41a22.65,22.65,0,0,1-1.44,7.76l.64-4V85.5l-4.45-2.11A25,25,0,0,1,218.48,98.41Z"/><path class="cls-101" d="M217.68,98.39v0Z"/><path class="cls-102" d="M217.68,98.38v0Z"/><path class="cls-103" d="M217.68,98.36v0Z"/><path class="cls-104" d="M217.68,98.34v0Z"/><path class="cls-105" d="M217.68,98.32v0Z"/><path class="cls-106" d="M217.68,98.3v0Z"/><path class="cls-107" d="M217.68,98.28v0Z"/><path class="cls-108" d="M217.68,98.26v0Z"/><path class="cls-109" d="M217.68,98.24v0Z"/><path class="cls-110" d="M217.68,98.22v0Z"/><path class="cls-111" d="M217.68,98.2v0Z"/><path class="cls-112" d="M217.68,98.18v0Z"/><path class="cls-113" d="M217.68,98.16v0Z"/><path class="cls-114" d="M217.68,98.14v0Z"/><path class="cls-115" d="M217.68,98.12v0Z"/><path class="cls-116" d="M217.68,98.1v0Z"/><path class="cls-117" d="M217.68,98.08v0Z"/><path class="cls-118" d="M217.68,98.06v0Z"/><path class="cls-119" d="M217.68,98v0Z"/><path class="cls-120" d="M217.68,98v0Z"/><path class="cls-121" d="M217.68,98v0Z"/><path class="cls-122" d="M217.68,98v0Z"/></g><polygon class="cls-56" points="58.16 184.79 68.21 184.2 74.43 200.37 55.2 200.37 58.16 184.79"/><path class="cls-130" d="M4.59,206.36c5.38,0,14-5.06,18.27-10.34a.64.64,0,0,0-1-.8c-5,6.22-15.66,11.43-19.33,9.44-1.79-1-1.36-3.66-.68-5.74,4.06-12.48,27.9-16,28.14-16.09a.64.64,0,0,0,.54-.72.63.63,0,0,0-.72-.53C28.8,181.72,5,185.3.65,198.53c-1.5,4.6-.13,6.48,1.29,7.25A5.49,5.49,0,0,0,4.59,206.36Z"/><polygon class="cls-131" points="60.18 177.36 45.94 177.74 7.98 184.15 16.11 184.89 60.18 177.36"/><polygon class="cls-132" points="75.75 239.58 60.18 177.36 16.11 184.89 27.12 250.74 75.75 239.58"/><polygon class="cls-133" points="27.12 250.74 15.94 247.11 7.98 184.15 18.27 182.97 16.11 184.89 27.12 250.74"/><polygon class="cls-134" points="15.94 247.11 23.28 241 27.12 250.74 15.94 247.11"/><polygon class="cls-56" points="23.28 241 14.48 183.4 18.27 182.97 16.11 184.89 27.12 250.74 23.28 241"/><path class="cls-135" d="M46.31,185.91c.29,1.43,1.29,2.43,2.24,2.24s1.47-1.51,1.18-2.94-1.29-2.43-2.24-2.24S46,184.48,46.31,185.91Z"/><ellipse class="cls-136" cx="31.56" cy="189.27" rx="1.75" ry="2.64" transform="translate(-37.04 10.07) rotate(-11.48)"/><path class="cls-137" d="M47.28,186a16.81,16.81,0,0,0,3.61-3.24A30.81,30.81,0,0,0,53.72,179,41.74,41.74,0,0,0,56,174.83a28.4,28.4,0,0,0,1.68-4.47,14.51,14.51,0,0,0,.48-4.84,10.22,10.22,0,0,0-1.51-4.75,8.32,8.32,0,0,0-3.9-3.31,7.92,7.92,0,0,0-5.15-.22,7.39,7.39,0,0,0-4.15,3.12,17.31,17.31,0,0,0-2,4.48c-.93,3-1.52,6.09-2.29,9.06a35.91,35.91,0,0,1-3.2,8.48A19.49,19.49,0,0,1,30,189.06h0a.65.65,0,0,0-.15.89.63.63,0,0,0,.87.16,21,21,0,0,0,6.55-6.94,37.32,37.32,0,0,0,3.53-8.81c.86-3,1.44-6.08,2.35-9a15.7,15.7,0,0,1,1.8-4,6.08,6.08,0,0,1,1.37-1.48,5.2,5.2,0,0,1,.82-.53,5.72,5.72,0,0,1,.93-.34,6,6,0,0,1,4,.1,6.74,6.74,0,0,1,3.15,2.52,8.6,8.6,0,0,1,1.43,4,6.51,6.51,0,0,1,.07,1.09,6.62,6.62,0,0,1,0,1.09l-.11,1.1c-.07.37-.16.73-.24,1.09a16.54,16.54,0,0,1-.64,2.15c-.25.71-.58,1.41-.88,2.11a37.93,37.93,0,0,1-2.15,4A28.5,28.5,0,0,1,50,182a15.43,15.43,0,0,1-3.32,2.93l-.06,0a.65.65,0,0,0-.21.88.63.63,0,0,0,.88.2Z"/><polygon class="cls-138" points="65.39 222.47 61.94 200.01 24.36 205.09 30.54 229.31 65.39 222.47"/></g></g></g></svg>