<svg xmlns="http://www.w3.org/2000/svg" viewBox="0 0 1920.07 1753.3"><defs><style>.cls-1{fill:#ffb27d;}.cls-2{fill:#f99746;}.cls-3{fill:#efa26f;}.cls-4{fill:#ffc197;}.cls-5{fill:#2b478b;}.cls-6{fill:#c0d8fb;}.cls-7{fill:#cbe1fd;}.cls-8{fill:#ffd3b6;}.cls-9{fill:#ed7d2b;}.cls-10{fill:#dceaff;}.cls-11{fill:#699dee;}.cls-12{fill:#9abff6;}.cls-13{fill:#dfebfd;}.cls-14{fill:#9ec3f6;}.cls-15{fill:#fff;}.cls-16{fill:#d2e3fc;}</style></defs><title>Register</title><g id="Layer_2" data-name="Layer 2"><g id="Слой_1" data-name="Слой 1"><path class="cls-1" d="M1167.4,745.21s-95.75,191.54-193,323.76c-38.69,52.62-77.63,95.84-110.86,113.86-32.54,17.64-60.07,45.05-82.86,75.42-59,78.62-86.26,177.06-86.26,177.06L445.72,1059.07s8.48-367.79,38.34-429.31C527.58,540.11,548.61,359,565.33,322.9c12.4-26.75,47.82-164.94,51.22-175.09,1.47-4.38,13.26-11.09,28.56-11.08,12.29,0,33.14,11.87,38.4,36.27,26.59,123.31-5.42,204.64-5.06,208.26,9.39,94.76-18.82,165.11,1,183.74.74.69,2.1.36,4-.87,34.28-22,247.07-332.24,273.28-338.94C984.42,218.13,1167.4,745.21,1167.4,745.21Z"/><path class="cls-2" d="M769.23,1360.85s-3.39,167.2-13.08,392.39H128.83c143.4-305.78,268.06-563.15,268.06-563.15S754.07,1201,769.23,1360.85Z"/><path class="cls-1" d="M1384.83,97l-77,112.9-75.58,110.79c-4.6,5.56-9.94,7.5-15.71,6.94-18.13-1.72-40.57-27.88-58.06-42.36l-1.77-1.45a54.56,54.56,0,0,1-7.24-76.6L1265,67.58v0l34.26-41.4a54.54,54.54,0,0,1,76.59-7.24l1.77,1.45A54.57,54.57,0,0,1,1384.83,97Z"/><path class="cls-3" d="M1307.82,209.88l-75.58,110.79c-4.6,5.56-9.94,7.5-15.71,6.94l48.44-260C1265.07,69,1273.31,185.71,1307.82,209.88Z"/><path class="cls-3" d="M974.39,1069c-38.69,52.62-77.63,95.84-110.86,113.86-32.54,17.64-60.07,45.05-82.86,75.42-26.21-12.22-56.09-26.56-85.3-40.75-35.56-17.29-36.92-67.78-2.09-86.5l1-.55c32.64-18.68,66.09-84.62,66.09-84.62Z"/><path class="cls-4" d="M614.81,153.53l-20.15,81.35s17.62,7.21,28.93,1.61S644.14,157.91,614.81,153.53Z"/><rect class="cls-5" x="683.51" width="588.29" height="1107.41" rx="77.49"/><path class="cls-6" d="M1242.64,84.83v930.35c0,31.56-25.64,57.37-57,57.37H769.62c-31.32,0-57-25.81-57-57.37V84.83c0-31.56,25.63-57.38,57-57.38h416.06C1217,27.45,1242.64,53.27,1242.64,84.83Z"/><path class="cls-7" d="M1185.68,27.45,774.77,1072.55h-5.15c-31.32,0-57-25.81-57-57.37V84.83c0-31.56,25.63-57.38,57-57.38Z"/><rect class="cls-5" x="864.96" y="6.49" width="225.4" height="55.56" rx="25.75"/><path class="cls-1" d="M1346.49,523.33,1335,527.7l-77.23,29.35a50.88,50.88,0,0,1-5.47,1.73,52.73,52.73,0,0,1-62.37-32.22l-1.14-3a52.76,52.76,0,0,1,30.49-67.86l72-27.36,5.23-2L1308,422a52.75,52.75,0,0,1,67.85,30.48l1.13,3A52.75,52.75,0,0,1,1346.49,523.33Z"/><path class="cls-8" d="M1283.78,525.11c-12.89,4.88-36.23,13.55-48.71,15.34-3.52.51-10-1.41-16.1-8.06-3.64-4-7.13-9.66-9.71-17.52a55,55,0,0,1-2.64-11.18,47.06,47.06,0,0,1,.42-13.3,13.29,13.29,0,0,1,7.37-9.48s0,0,.06,0c13.26-6.34,31.15-14.06,46.83-18.37,10.85-3,21.81,1.8,25.24,11.28l1.63,4.43,8.28,22.7C1299.88,510.35,1294.31,521.14,1283.78,525.11Z"/><path class="cls-4" d="M1283.78,525.11c-12.89,4.88-36.23,13.55-48.71,15.34-3.52.51-10-1.41-16.1-8.06-.65-1.51-1.24-3.11-1.81-4.81a55.86,55.86,0,0,1-2.64-11.18,47.42,47.42,0,0,1,.42-13.3,13.3,13.3,0,0,1,7.37-9.49s0,0,.06,0c13.27-6.34,31.16-14.06,46.84-18.36a22.23,22.23,0,0,1,19,3l8.28,22.7C1299.88,510.35,1294.31,521.14,1283.78,525.11Z"/><path class="cls-1" d="M1311.45,631.91l-59.56,16.22a34.21,34.21,0,0,1-41.86-24l-1.83-6.74a34.2,34.2,0,0,1,23.94-41.86l59.56-16.22a34.21,34.21,0,0,1,41.86,23.95l1.84,6.74A34.2,34.2,0,0,1,1311.45,631.91Z"/><path class="cls-8" d="M1279.25,629c-10.94,2.92-30.72,8.08-41.08,8.64-3.77.21-11.32-3-16.25-12.89a39.48,39.48,0,0,1-3.05-8.4,40,40,0,0,1-1.33-8.75,34.1,34.1,0,0,1,1.33-10.19,10.55,10.55,0,0,1,6.73-6.81s.05,0,.06,0c11.35-4,26.59-8.79,39.78-11.09,9.11-1.6,17.75,2.78,19.88,10.29l1.54,5.36,4.58,16.11C1293.56,618.69,1288.18,626.62,1279.25,629Z"/><path class="cls-4" d="M1279.25,629c-10.94,2.92-30.72,8.08-41.08,8.64-3.77.21-11.32-3-16.25-12.89a37.17,37.17,0,0,1-1.2-8.21,34.21,34.21,0,0,1,1.33-10.2,10.56,10.56,0,0,1,6.73-6.8l.06,0c11.35-4,26.59-8.79,39.78-11.08,7.53-1.33,14.76,1.45,18.24,6.7l4.58,16.11C1293.56,618.69,1288.18,626.62,1279.25,629Z"/><path class="cls-9" d="M335.82,1317S458.4,1434.36,541,1479.69l62.57-44.38v65.47s123,21.76,161.87,0V1322.24L419.86,1149Z"/><path class="cls-10" d="M791.58,1486.57c-47.6,9.76-150.22-27.64-150.22-27.64l16.55-159.86L542,1431.87c-59-22-151.3-79.27-206.14-114.92-27.3-17.77-45.32-30.16-45.32-30.16,77.38-124.51,155.22-241,155.22-241,22.84,45.7,76.92,85.39,135.53,117.13,97.41,52.76,207.36,83.59,207.36,83.59C788.58,1341.54,791.58,1486.57,791.58,1486.57Z"/><path class="cls-1" d="M1344.62,409.19c-.43.16-.85.3-1.29.44l-78.08,20.05c-34.33,8.82-69.83-9.76-78.9-41.28l-4.64-16.15c-8.71-30.27,10-61.92,41.91-72.18l25.78-6.62L1301.7,280c34.33-8.83,69.84,9.75,78.9,41.27l4.64,16.15C1393.83,367.31,1375.73,398.49,1344.62,409.19Z"/><path class="cls-8" d="M1308.83,387.4l-37.93,17.09-.24.06a41.41,41.41,0,0,1-4.58.95c-.64.09-1.29.16-1.93.23a5.31,5.31,0,0,1-.8,0,6,6,0,0,1-5.24-8.53,37.71,37.71,0,0,0,2.15-25.72l-.9-3.3a.38.38,0,0,0,0-.1l-2.94-10.77a40.35,40.35,0,0,0-13.75-21c-.77-.64-1.58-1.23-2.4-1.8-7.49-5.19-5.59-16.95,3.19-19.39l.24-.07,41.63-6.3c10.29-2.8,20.2,5.12,23,15.42l3.35,12.26,7.11,26.16C1321.57,373,1319.13,384.6,1308.83,387.4Z"/><path class="cls-4" d="M1308.83,387.4l-37.93,17.09-.24.06c-.89.17-3.67.63-7.31,1.2a6,6,0,0,1-5.24-8.53,37.71,37.71,0,0,0,2.15-25.72l-.9-3.3a.38.38,0,0,0,0-.1l-2.94-10.77a40.35,40.35,0,0,0-13.75-21,10.53,10.53,0,0,1,6-4.25l.24-.07,41.63-6.3c8.67-2.36,17.06,2.89,21.18,10.74l7.11,26.16C1321.57,373,1319.13,384.6,1308.83,387.4Z"/><path class="cls-3" d="M683.51,815.33s-17-148.7-32.75-177.69-29-87.06-4.84-130.21,32.53-126.17,32.53-126.17c9.39,94.76-18.82,165.11,1,183.74.74.69,2.1.36,4-.87Z"/><rect class="cls-11" x="435.22" y="261.86" width="665.93" height="311.29" rx="37.18"/><rect class="cls-12" x="805.46" y="116.31" width="293.75" height="106.12" rx="31.1"/><rect class="cls-12" x="753.77" y="869.58" width="341.44" height="130.92" rx="37.25"/><path class="cls-2" d="M909.52,627.4h252.19A44.63,44.63,0,0,1,1206.33,672V770.7a44.63,44.63,0,0,1-44.62,44.63H909.52A44.62,44.62,0,0,1,864.9,770.7V672A44.62,44.62,0,0,1,909.52,627.4Z"/><path class="cls-1" d="M1874.69,1753.3H1414.63c-22.06-14.79-136.63-92.93-184-151.2-10-12.35-46.79-118.75-75-205.14-17.63-54-32-100.14-34.37-110.73-.84-3.69-1.4-11-1.74-20.89v-.11c-1.2-35.33.44-103.46,2.13-157.58v-.25l0-.71c.08-2.38.15-4.72.23-7v-.08c0-.23,0-.47,0-.7.31-9.4.61-18.25.89-26.32.71-20.13,1.31-35.29,1.56-41.21l.1-2.77h0c.73-.41,22.86-12.22,52.44,9.09,7.14,5.15,13.74,17.59,19.76,33.82,3.85,10.37,7.46,22.26,10.82,34.8,12.92,48.23,22.19,105.9,27.14,121.33,8,25,102,134.67,107.92,141.49.09.12.19.23.28.34V1196.17l-71-190-29.15-78L1228,889a706.69,706.69,0,0,1-41.32-81.27c-8.25-19.42-15.81-40.27-20.49-60.09-1.12-4.72-2.07-9.39-2.83-14v0c-2.77-16.75-3-32.29.89-44.94,6.87-22.53,22.35-26.77,34.24-26.31,1.23,0,2.42.15,3.57.28a24.31,24.31,0,0,1,3.42.66,23.82,23.82,0,0,1,5.91,2.46s0,0,0,0a24,24,0,0,1,7.72,7.22s10,13.11,23.51,30.73c8.86,11.6,19.21,25.15,29.15,38.21,17.7,23.27,34.14,45,38.66,51.34,24.43,34.39,90.21,146.46,90.21,146.46l77,3.23a51.08,51.08,0,0,1,32.73,13.7c27.38,25.57,86.41,80.91,93.65,89.13,0,2.7,45.88,24.76,81.31,44.4,25.35,10.72,73.5,48.67,73.5,48.67,10,8.81,17.58,17.58,21.43,26,16.51,35.93,61.29,348.42,82.7,502.9C1869.87,1717.4,1874.34,1750.73,1874.69,1753.3Z"/><path class="cls-3" d="M1400.66,939.75s71.34,116.44,80.78,121.69,46.16,12.58,50.35,0S1400.66,939.75,1400.66,939.75Z"/><path class="cls-3" d="M1759.21,1139.21l-.36-.33s-48.15-38-73.5-48.67c-32.53-18-73.86-38.1-80.41-43.35,7.55,8.63,60.68,68.75,81.12,73.26C1704,1124.08,1744.78,1135.23,1759.21,1139.21Z"/><path class="cls-3" d="M1342.8,1369.44V1196.16s41.16,68.86,44.31,106.62S1370,1401.67,1342.8,1369.44Z"/><path class="cls-8" d="M1193.45,733.6c-6-10.32-16.8-29-20.5-39.5-1-3-.92-8.89,2.72-15.2a34.36,34.36,0,0,1,10.8-11.21,35.92,35.92,0,0,1,7.58-4.08,29.17,29.17,0,0,1,9.7-1.79,10.27,10.27,0,0,1,8.29,4.81l0,0c7.15,10.41,16.19,24.58,22.33,37.4,4.26,8.86,2.91,19.1-3.29,23.59l-2.89,2.12-14.83,10.82C1207.23,745.09,1198.35,742,1193.45,733.6Z"/><path class="cls-4" d="M1193.45,733.6c-6-10.32-16.8-29-20.5-39.5-1-3-.92-8.89,2.72-15.2,1-.8,2-1.57,3.13-2.33a36,36,0,0,1,7.58-4.09,29.23,29.23,0,0,1,9.71-1.79,10.3,10.3,0,0,1,8.28,4.82s0,0,0,0c7.15,10.41,16.19,24.58,22.33,37.41a22.8,22.8,0,0,1,1.49,16.83l-14.83,10.82C1207.23,745.09,1198.35,742,1193.45,733.6Z"/><rect class="cls-13" x="1452.64" y="117.78" width="188.7" height="171.7" rx="46.13"/><path class="cls-2" d="M1496.84,202.22c5.25,13.81,50.18,50.09,50.18,50.09s14.64-11.9,28.21-24.71c10.15-9.49,19.63-19.47,21.88-25.38,5.32-13.73-.33-33.37-20-36.69S1547,182.67,1547,182.67s-10.57-20.47-30.21-17.14a26.6,26.6,0,0,0-9,3.16C1495.6,175.51,1492.52,190.91,1496.84,202.22Z"/><path class="cls-13" d="M44.33,736.64H333.25a42,42,0,0,1,41.87,41.88V905.27a38.58,38.58,0,0,1-38.46,38.46h-7.42l13.92,58.79-87.39-58.79H41.84A42,42,0,0,1,0,901.89V781A44.46,44.46,0,0,1,44.33,736.64Z"/><path class="cls-7" d="M36.58,828.65H337.83a7.49,7.49,0,0,0,7.46-7.46h0a7.49,7.49,0,0,0-7.46-7.47H36.58a7.49,7.49,0,0,0-7.46,7.47h0A7.49,7.49,0,0,0,36.58,828.65Z"/><path class="cls-7" d="M36.58,862H337.83a7.49,7.49,0,0,0,7.46-7.46h0a7.49,7.49,0,0,0-7.46-7.46H36.58a7.49,7.49,0,0,0-7.46,7.46h0A7.49,7.49,0,0,0,36.58,862Z"/><path class="cls-7" d="M36.58,895.43H337.83a7.49,7.49,0,0,0,7.46-7.46h0a7.49,7.49,0,0,0-7.46-7.46H36.58A7.49,7.49,0,0,0,29.12,888h0A7.49,7.49,0,0,0,36.58,895.43Z"/><path class="cls-7" d="M200.7,776.78H328.59a8.9,8.9,0,0,0,8.88-8.88h0a8.9,8.9,0,0,0-8.88-8.88H200.7a8.9,8.9,0,0,0-8.88,8.88h0A8.91,8.91,0,0,0,200.7,776.78Z"/><rect class="cls-7" x="83.78" y="759.02" width="90.99" height="17.76" rx="7.02" transform="translate(258.55 1535.8) rotate(180)"/><polygon class="cls-14" points="1496.03 800.93 1677.74 860.34 1568.89 754.25 1557.84 780.17 1511.07 780.39 1496.03 800.93"/><polygon class="cls-15" points="1677.74 860.34 1536.71 753.05 1386.03 718.63 1677.74 860.34"/><polygon class="cls-15" points="1568.89 754.25 1677.74 860.34 1605.19 711.71 1568.89 754.25"/><polygon class="cls-14" points="424.48 123.96 254.63 148.19 367.35 71.36 373.08 95.99 414.38 103.47 424.48 123.96"/><polygon class="cls-15" points="254.63 148.19 395.98 75.31 534.51 68.34 254.63 148.19"/><polygon class="cls-15" points="367.35 71.36 254.63 148.19 341.89 28.12 367.35 71.36"/><path class="cls-15" d="M691.15,405.76a96.49,96.49,0,1,1-96.49-96.49A96,96,0,0,1,691.15,405.76Z"/><path class="cls-5" d="M633.43,451.36l-.75-.81c-1.11-.85-2.22-1.38-6.68-2.15-2.27-.38-5.42-.83-9.89-1.41,0,0-1-.11-1.47-.15l-1.12-.1c-1.28-.67-1.61-6-1.6-11.58,0-.42,0-.84,0-1.26,0-2.12.09-4.21.17-6.09,0-.12,0-.23,0-.35,2.76.23,4.59.21,4.59.21,5.14-.41,8.35-14.19,9.5-25.33a37.56,37.56,0,0,0,2.54-12.72,16.43,16.43,0,0,0-3.3-10.63,14.17,14.17,0,0,0-3.61-3.24c-.32-.32-.65-.61-1-.89-4.78-5.31-24.22-25.21-37-13.7-.33-1.15-4.48-14.07-24.6-9.84,1.25-.13,10.17-1,12.75,2.64-.35-.15-8.14-3.61-13-.59-2.27,1.38-3.68,4.25-4.48,7.27,0,0,0,0,0,.06s0,0,0,.05h0a.29.29,0,0,0,0,.09c-.09.41-.19.82-.28,1.23,0,.06,0,.12,0,.19s0,0,0,.05v0a20.94,20.94,0,0,0-.24,7.62c.75,3.15,6.3,12.53,10,12.53a11,11,0,0,0,4.2-1,46.57,46.57,0,0,0-1.5,5.46c-3.91,18.39,8.31,32.36,14.64,28.9,4.06-2.21,7.13,4.89,7.13,4.89l0,0c-.6,13.45-4.29,22.23-7,24.42-1,.11-3.1.37-5.75.79h0s-9.33,1-16.43,4.11l-.17.07a17,17,0,0,0-4,2.24l0,0h0a5.88,5.88,0,0,0-1.3,1.35,3.33,3.33,0,0,0-.42.61c-2.37,4.52-4.76,11.31-7.05,19.27a81.84,81.84,0,0,0,101.77-3.19C642.67,459.46,636.69,453.83,633.43,451.36Z"/><rect class="cls-15" x="750.32" y="340.03" width="123.43" height="17.12" rx="6.91"/><path class="cls-15" d="M868.17,418.67H755.9a5.6,5.6,0,0,1-5.58-5.58h0a5.6,5.6,0,0,1,5.58-5.58H868.17a5.6,5.6,0,0,1,5.58,5.58h0A5.6,5.6,0,0,1,868.17,418.67Z"/><rect class="cls-15" x="750.32" y="433.92" width="72.42" height="11.16" rx="4.27"/><rect class="cls-15" x="840.07" y="433.92" width="113.94" height="11.16" rx="5.36"/><path class="cls-15" d="M1045.08,418.67H897.87a5.6,5.6,0,0,1-5.58-5.58h0a5.6,5.6,0,0,1,5.58-5.58h147.21a5.6,5.6,0,0,1,5.58,5.58h0A5.6,5.6,0,0,1,1045.08,418.67Z"/><path class="cls-15" d="M868.17,471.48H755.9a5.59,5.59,0,0,1-5.58-5.57h0a5.6,5.6,0,0,1,5.58-5.58H868.17a5.6,5.6,0,0,1,5.58,5.58h0A5.6,5.6,0,0,1,868.17,471.48Z"/><path class="cls-15" d="M1045.08,471.48H897.87a5.59,5.59,0,0,1-5.58-5.57h0a5.6,5.6,0,0,1,5.58-5.58h147.21a5.6,5.6,0,0,1,5.58,5.58h0A5.59,5.59,0,0,1,1045.08,471.48Z"/><rect class="cls-15" x="889.04" y="340.03" width="90.56" height="17.12" rx="5.92"/><rect class="cls-11" x="791.58" y="894.61" width="87.75" height="12.17" rx="4.91"/><path class="cls-11" d="M875.37,937.93H795.55a4,4,0,0,1-4-4h0a4,4,0,0,1,4-4h79.82a4,4,0,0,1,4,4h0A4,4,0,0,1,875.37,937.93Z"/><rect class="cls-11" x="791.58" y="948.77" width="51.49" height="7.93" rx="3.04"/><rect class="cls-11" x="855.39" y="948.77" width="81" height="7.93" rx="3.81"/><path class="cls-11" d="M1001.15,937.93H896.49a4,4,0,0,1-4-4h0a4,4,0,0,1,4-4h104.66a4,4,0,0,1,4,4h0A4,4,0,0,1,1001.15,937.93Z"/><path class="cls-11" d="M875.37,975.48H795.55a4,4,0,0,1-4-4h0a4,4,0,0,1,4-4h79.82a4,4,0,0,1,4,4h0A4,4,0,0,1,875.37,975.48Z"/><path class="cls-11" d="M1001.15,975.48H896.49a4,4,0,0,1-4-4h0a4,4,0,0,1,4-4h104.66a4,4,0,0,1,4,4h0A4,4,0,0,1,1001.15,975.48Z"/><rect class="cls-11" x="890.2" y="894.61" width="64.38" height="12.17" rx="4.21"/><rect class="cls-11" x="843.28" y="136.78" width="87.75" height="12.17" rx="4.91"/><path class="cls-11" d="M927.06,180.1H847.24a4,4,0,0,1-4-4h0a4,4,0,0,1,4-4h79.82a4,4,0,0,1,4,4h0A4,4,0,0,1,927.06,180.1Z"/><rect class="cls-11" x="843.28" y="190.94" width="51.49" height="7.93" rx="3.04"/><rect class="cls-11" x="907.09" y="190.94" width="81" height="7.93" rx="3.81"/><path class="cls-11" d="M1052.84,180.1H948.18a4,4,0,0,1-4-4h0a4,4,0,0,1,4-4h104.66a4,4,0,0,1,4,4h0A4,4,0,0,1,1052.84,180.1Z"/><rect class="cls-11" x="941.9" y="136.78" width="64.38" height="12.17" rx="4.21"/><rect class="cls-9" x="904.31" y="661.84" width="96.07" height="13.32" rx="5.38"/><path class="cls-9" d="M996,709.27H908.65a4.36,4.36,0,0,1-4.35-4.34h0a4.36,4.36,0,0,1,4.35-4.34H996a4.35,4.35,0,0,1,4.34,4.34h0A4.35,4.35,0,0,1,996,709.27Z"/><rect class="cls-9" x="904.3" y="721.14" width="56.37" height="8.69" rx="3.33"/><rect class="cls-9" x="974.16" y="721.14" width="88.68" height="8.69" rx="4.17"/><path class="cls-9" d="M1133.73,709.27H1019.15a4.36,4.36,0,0,1-4.34-4.34h0a4.36,4.36,0,0,1,4.34-4.34h114.58a4.36,4.36,0,0,1,4.35,4.34h0A4.36,4.36,0,0,1,1133.73,709.27Z"/><path class="cls-9" d="M996,750.38H908.65A4.36,4.36,0,0,1,904.3,746h0a4.37,4.37,0,0,1,4.35-4.35H996a4.36,4.36,0,0,1,4.34,4.35h0A4.36,4.36,0,0,1,996,750.38Z"/><path class="cls-9" d="M1133.73,750.38H1019.15a4.36,4.36,0,0,1-4.34-4.34h0a4.36,4.36,0,0,1,4.34-4.35h114.58a4.37,4.37,0,0,1,4.35,4.35h0A4.36,4.36,0,0,1,1133.73,750.38Z"/><path class="cls-9" d="M996,771.77H908.65a4.36,4.36,0,0,1-4.35-4.34h0a4.36,4.36,0,0,1,4.35-4.34H996a4.35,4.35,0,0,1,4.34,4.34h0A4.35,4.35,0,0,1,996,771.77Z"/><path class="cls-9" d="M1133.73,771.77H1019.15a4.36,4.36,0,0,1-4.34-4.34h0a4.36,4.36,0,0,1,4.34-4.34h114.58a4.36,4.36,0,0,1,4.35,4.34h0A4.36,4.36,0,0,1,1133.73,771.77Z"/><rect class="cls-9" x="1012.28" y="661.84" width="70.49" height="13.32" rx="4.61"/><path class="cls-15" d="M792.9,85.65,787,89.9l-6-4.21a7.29,7.29,0,0,1,11.89,0Z"/><path class="cls-15" d="M787,72.23a17.61,17.61,0,0,0-14.42,7.5l3.76,2.64a13,13,0,0,1,21.26-.08l3.75-2.69A17.64,17.64,0,0,0,787,72.23Z"/><path class="cls-15" d="M787,52.52a37.28,37.28,0,0,0-30.52,15.86L760.22,71a32.71,32.71,0,0,1,53.37-.2l3.73-2.69A37.26,37.26,0,0,0,787,52.52Z"/><path class="cls-15" d="M787,63.31a26.67,26.67,0,0,0-21.76,11.24L769,77.19a22.12,22.12,0,0,1,35.91-.14l3.73-2.67A26.65,26.65,0,0,0,787,63.31Z"/><path class="cls-15" d="M753.68,713.69a37.9,37.9,0,0,0,59.62,31.06c.31-.22.62-.44.92-.67a37.9,37.9,0,1,0-60.54-30.39Z"/><path class="cls-11" d="M801.84,738l-3.49-3.09-.87.16a23.62,23.62,0,0,0-2-1.27c.23-1.41.42-2.72.58-3.88a62.44,62.44,0,0,0,.59-6.89c1.85-.09,3.1-.29,3.1-.29,3.5-.81,3.67-12.76,2.86-19a4.48,4.48,0,0,0,1.95-.37c2.65-1.17,2.8-5.18,2.8-5.18a4.69,4.69,0,0,1-1.9,1.89s4.43-6.07-.71-10.22-10.35-1.44-13.33-1.26c-6.54.4-10.77.79-12.9,5.09s-1.28,15.9,2.76,20.19c.07.4.14.79.19,1.19a8,8,0,0,0,1.6,3.81,26.73,26.73,0,0,1-4.84,11.26,17.52,17.52,0,0,0-3.48,3.75l-.07.05h0a37.94,37.94,0,0,0-4.89,10.73l0,.06a35.93,35.93,0,0,0,6.91,3.8l.48.2.11,0,.79.31c.64.25,1.28.48,1.93.69s1.37.42,2.06.6l1,.23c.28.07.56.13.85.18l.12,0,.57.11,1.34.23.31,0,.74.1,1.05.12c.39,0,.79.07,1.19.09s.75,0,1.13.06l1.19,0,1.28,0h.42l.63,0h.08c.4,0,.79,0,1.19-.09a37.65,37.65,0,0,0,14.28-4.32A39.8,39.8,0,0,0,801.84,738Z"/><path class="cls-15" d="M1125.77,934a38,38,0,0,0,7.92,23.28,38.5,38.5,0,0,0,5.57,5.84A38.16,38.16,0,1,0,1125.77,934Z"/><path class="cls-2" d="M1183.42,955.59a1.17,1.17,0,0,0-.19-.3,3,3,0,0,0-.61-.62v0a8,8,0,0,0-1.88-1l-.08,0a30.73,30.73,0,0,0-7.66-1.92c-1.24-.19-2.22-.31-2.68-.36-1.28-1-3-5.12-3.28-11.39v0s1.43-3.32,3.32-2.28c3,1.61,8.65-4.91,6.83-13.47a23.24,23.24,0,0,0-.7-2.55,5.28,5.28,0,0,0,2,.48c1.71,0,4.3-4.38,4.65-5.85s0-6.29-2.38-7.73-5.92.21-6.08.27c1.17-1.64,5.17-1.31,5.9-1.23-9.34-1.94-11.27,4.06-11.43,4.59-5.94-5.36-15,3.91-17.24,6.39q-.22.19-.45.42a6.44,6.44,0,0,0-1.68,1.5,7.66,7.66,0,0,0-1.54,5,17.58,17.58,0,0,0,1.18,5.93c.54,5.19,2,11.62,4.44,11.82,0,0,.85,0,2.13-.11,0,.06,0,.11,0,.17,0,.87.07,1.86.08,2.83v.59c0,2.61-.15,5.09-.74,5.4l-.52.05-.69.07c-2.08.27-3.56.48-4.61.67-2.08.34-2.6.59-3.11,1a3.18,3.18,0,0,0-.36.37,23.87,23.87,0,0,0-6.75,8.86,38.13,38.13,0,0,0,47.45,1.49A50.51,50.51,0,0,0,1183.42,955.59Z"/><path class="cls-15" d="M1125.77,167.1a38,38,0,0,0,7.92,23.27,38.5,38.5,0,0,0,5.57,5.84,38.16,38.16,0,1,0-13.49-29.11Z"/><path class="cls-2" d="M1183.42,188.71a1.6,1.6,0,0,0-.19-.29,3,3,0,0,0-.61-.63h0a8.39,8.39,0,0,0-1.88-1.05l-.08,0a31.24,31.24,0,0,0-7.66-1.92h0c-1.24-.2-2.22-.32-2.68-.37a4.29,4.29,0,0,1-1-1.25h0c-1.06-1.86-2.1-5.36-2.31-10.13v0s1.43-3.31,3.32-2.28c3,1.61,8.65-4.9,6.83-13.47a23.24,23.24,0,0,0-.7-2.55,5.28,5.28,0,0,0,2,.48c1.71,0,4.3-4.38,4.65-5.84s0-6.31-2.38-7.74-5.92.21-6.08.28c1.17-1.64,5.18-1.31,5.9-1.24-9.34-1.94-11.27,4.06-11.43,4.59-5.94-5.36-15,3.92-17.24,6.39q-.22.2-.45.42a6.51,6.51,0,0,0-1.68,1.51,7.62,7.62,0,0,0-1.54,5,17.5,17.5,0,0,0,1.18,5.93c.54,5.2,2,11.62,4.44,11.81,0,0,.85,0,2.13-.09,0,.05,0,.1,0,.16,0,.87.07,1.85.08,2.84v.59c0,2.61-.15,5.08-.74,5.4l-.52,0-.69.07c-2.08.27-3.56.48-4.61.66-2.08.36-2.6.6-3.11,1l-.36.38a23.84,23.84,0,0,0-6.75,8.87q.54.47,1.11.9l.19.15c.28.22.56.43.85.63s.4.31.61.45.42.29.63.42.61.42.93.61l.64.4.8.47.9.5.08,0,0,0h0l.13.07.72.37,0,0,.22.11.41.2.4.19.93.41.94.38.43.17.43.16.88.31.92.3.78.24.08,0,.5.14c.91.25,1.84.47,2.78.65.41.08.82.16,1.23.22l.32,0h.11l.8.1.17,0,.12,0c.25,0,.5.06.74.08h.13l.23,0c.45,0,.89.07,1.34.09h.07l.42,0h.26q.66,0,1.32,0a37.94,37.94,0,0,0,22.79-7.56A51.26,51.26,0,0,0,1183.42,188.71Z"/><path class="cls-3" d="M1643.55,1682.15l-137.43,71.15h-91.49c-22.06-14.79-136.63-92.93-184-151.2-10-12.35-46.79-118.75-75-205.14v0c3.75,11.47,82.56,179.32,105,198.4s140.26,130.16,172.8,129c31.52-1.08,199.32-39.7,209.72-42.09Z"/><path class="cls-16" d="M1920.07,1753.3H1424.61c24.85-9.75,119.92-46.07,218.47-71l.47-.11c84.64-21.41,171.77-34.39,219.09-14.92l.34.51Z"/><path class="cls-3" d="M1121.87,1098.87h0c8.35-3.06,20.07-5.08,25.77,4.44,8.88,14.83-24.1,145.58-28.22,162Z"/><path class="cls-4" d="M1124.42,1028.57l-2.83,79.09s16.63,2.7,26.09-4.36S1152.12,1027.64,1124.42,1028.57Z"/><path class="cls-7" d="M791.58,1486.57c-47.6,9.76-150.22-27.64-150.22-27.64l16.55-159.86L542,1431.87c-59-22-151.3-79.27-206.14-114.92,140.52-15.32,245.43-154,245.43-154,97.41,52.76,207.36,83.59,207.36,83.59C788.58,1341.54,791.58,1486.57,791.58,1486.57Z"/><path class="cls-2" d="M464.87,1341.37A19.3,19.3,0,1,1,484,1360.84,19.3,19.3,0,0,1,464.87,1341.37Z"/></g></g></svg>