<svg xmlns="http://www.w3.org/2000/svg" viewBox="0 0 3000 2000"><defs><style>.cls-1{fill:#fff;}.cls-2{fill:#e9f3fe;}.cls-3{fill:#82b378;}.cls-4{fill:#a8d29f;}.cls-5{fill:#f1a34f;}.cls-6{fill:#d86713;}.cls-7{fill:#4a75cb;}.cls-8{fill:#699ff0;}.cls-9{fill:#163560;}.cls-10{fill:#e49963;}.cls-11{fill:#ffb27d;}.cls-12{fill:#373480;}.cls-13{fill:#575b9f;}.cls-14{fill:#e2e7f2;}.cls-15{fill:#ced4ea;}.cls-16{fill:#bcc5dd;}.cls-17{fill:#1c468a;}.cls-18{fill:#e8945b;}.cls-19{fill:#2b478b;}.cls-20{fill:#233862;}.cls-21{fill:#d9935c;}.cls-22{fill:#466aa5;}.cls-23{fill:#365da4;}.cls-24,.cls-25{fill:#afcdfb;}.cls-25{opacity:0.2;}.cls-26{fill:#e2810e;}.cls-27{fill:#ffb93e;}.cls-28{fill:#ffa412;}.cls-29{fill:#2e3552;}</style></defs><title>Asset 1</title><g id="Layer_2" data-name="Layer 2"><g id="Layer_1-2" data-name="Layer 1"><rect class="cls-1" width="3000" height="2000"/><path class="cls-2" d="M2804.43,1524.35S3038.6,1085.46,2763,876c-153.8-116.88-363.8,90.63-519.75-223.06-90.76-182.56-408.36-238-567.18,11.26s-295.35,248-404.93,201.88c-125.67-52.88-180.88-212-377.59-178.36C666.15,726.62,696.59,962.42,529.06,921.36,206,842.18-33.39,1294.54,189.94,1527.46Z"/><path class="cls-3" d="M1539.31,1258.49s-45.59,33.9-54.48,31.84,33.32-36.59,33.32-36.59c-15.88-7.64-65.26-2.85-65.26-2.85s-16.44,53-24.55,48.85,17-46.22,17-46.22c-17.69-1.06-39.38,12.07-39.38,12.07-29.71,23.46,1.95,60.39,1.95,60.39s-6.1,18.26-24.85,34.88c0,0-26.79,19.81-28.66,55.21l4.87.44s7.71-33,21.71-48.57l2.32-2.36c2.28-2.11,3.88-3.7,5-4.88,7-6.69,16.61-15.23,21.25-16a9.23,9.23,0,0,1-.2-2.34c.06.75.13,1.52.2,2.34,1.59,18.66,37.8,35,60.08,38.31s15.39-5.8,7.71-19.38-32-19.65-37.51-25.9,5.92-6.27,19.34-.14,15.26,22.47,36.79,32.79,53.93-25.42,53.93-25.42c-17.16-.87-41.66-19.51-40.78-25.21s41.6,9.84,48.56,10.58,22.79-7.91,25.24-35.94S1539.31,1258.49,1539.31,1258.49Z"/><path class="cls-4" d="M1297.18,1279.54s50.36-28.2,26.86-66.47c0,0-18.8-23.5-38.94-29.55,0,0,10.74,57.07,0,58.42s-7.39-64.46-7.39-64.46-53-25.51-73.86-23.5c0,0,32.9,55.73,22.16,54.39s-47.67-57.74-47.67-57.74-54.38-10.07-63.11,22.15,5.37,48.34,13.43,50.36,59.75,1.34,58.41,8-36.26,17.46-55.73,11.42c0,0,21.49,53,49.69,50.35s36.92-20.14,54.38-21.48,30.21,3.36,21.49,8.06-38.27,1.54-52.37,13.52-25.52,19.38.67,24.75,73.18,2,82.58-18.13Z"/><path class="cls-3" d="M1310.61,1328.55c-14.1-26.19-13.43-49-13.43-49-16.11-51-157.11-96.69-157.11-96.69,179.27,72.52,147.71,116.83,147.71,116.83,4.83,2.82,12.08,16.25,17.1,26.56.72,1.76,1.85,4.19,3.54,7.48h0c.68,1.49,1.23,2.71,1.6,3.56,9.23,23.1,4.34,63,4.34,63l5.6,1.5C1332.35,1361.57,1310.61,1328.55,1310.61,1328.55Z"/><path class="cls-4" d="M1377.29,1240.65s-66.38-37.18-35.4-87.62c0,0,24.78-31,51.33-39,0,0-14.16,75.23,0,77s9.74-85,9.74-85,69.92-33.63,97.35-31c0,0-43.36,73.46-29.2,71.69s62.83-76.11,62.83-76.11,71.69-13.28,83.2,29.2-7.08,63.73-17.7,66.38-78.77,1.77-77,10.62,47.79,23,73.46,15c0,0-28.32,69.92-65.5,66.38s-48.67-26.56-71.68-28.32-39.83,4.42-28.32,10.62,50.44,2,69,17.83,33.63,25.53-.89,32.61-96.47,2.66-108.86-23.89Z"/><path class="cls-3" d="M1584.39,1113.2s-185.86,60.18-207.1,127.45c0,0,.89,30.09-17.7,64.6,0,0-28.66,43.53-12.32,96.51l7.37-2s-6.44-52.57,5.72-83c.5-1.12,1.22-2.73,2.12-4.7h0c2.22-4.34,3.72-7.54,4.66-9.86,6.63-13.58,16.17-31.3,22.54-35C1389.68,1267.2,1348.09,1208.78,1584.39,1113.2Z"/><path class="cls-5" d="M1245,1386.63a130,130,0,1,0,260,0Z"/><path class="cls-5" d="M1490.83,1508.66H1259.28a16,16,0,0,0-16,16h263.64A16.06,16.06,0,0,0,1490.83,1508.66Z"/><path class="cls-6" d="M1506,1390.62H1242.75a2,2,0,0,1-2-2h0a2,2,0,0,1,2-2H1506a2,2,0,0,1,2,2h0A2,2,0,0,1,1506,1390.62Z"/><rect class="cls-7" x="1759.52" y="455.78" width="563.35" height="1068.93" rx="28.83" transform="translate(4082.39 1980.48) rotate(180)"/><rect class="cls-8" x="1704.92" y="455.78" width="563.35" height="1068.93" rx="28.83" transform="translate(3973.18 1980.48) rotate(180)"/><path class="cls-7" d="M1904,507.64h146.44a5.72,5.72,0,0,0,5.7-5.7h0a5.71,5.71,0,0,0-5.7-5.7H1904a5.72,5.72,0,0,0-5.7,5.7h0A5.72,5.72,0,0,0,1904,507.64Z"/><path class="cls-7" d="M2076.48,507.64h0a5.72,5.72,0,0,0,5.7-5.7h0a5.72,5.72,0,0,0-5.7-5.7h0a5.72,5.72,0,0,0-5.7,5.7h0A5.72,5.72,0,0,0,2076.48,507.64Z"/><path class="cls-7" d="M2016.36,1465.64a36.75,36.75,0,1,0-36.75,36.75A36.74,36.74,0,0,0,2016.36,1465.64Z"/><rect class="cls-1" x="1753" y="540.54" width="468.37" height="864.59"/><rect class="cls-7" x="796.55" y="566.46" width="505.02" height="958.25" rx="25.84"/><rect class="cls-8" x="845.5" y="566.46" width="505.02" height="958.25" rx="25.84"/><rect class="cls-1" x="863.56" y="643.07" width="467.83" height="776.48"/><path class="cls-7" d="M1040.74,602.73H1172a5.11,5.11,0,1,1,0,10.22H1040.74a5.11,5.11,0,1,1,0-10.22Z"/><path class="cls-7" d="M1017.42,602.73a5.11,5.11,0,1,1-5.1,5.11A5.13,5.13,0,0,1,1017.42,602.73Z"/><circle class="cls-7" cx="1097.48" cy="1478.54" r="26.16" transform="translate(-593.66 2206.96) rotate(-76.72)"/><path class="cls-9" d="M320.57,1524.08s-42.22,1.53-48.47,0c-.26-1.17-8.06-50.41-8.06-50.41l-6.49-45.53c-.91-6.36,6.7-10.57,11.42-6.21a22.76,22.76,0,0,1,6,9.77c5.31,16,21,41.87,44.21,48.61C343.6,1487.4,320.57,1524.08,320.57,1524.08Z"/><path class="cls-10" d="M540.74,1295.82l-4.15,1.47s-10.87-18.38-33.09-11c0,0-8.87,3.72-3.61,8.57s4,2.35,11.23,9.33,17.19,10.5,24,8.14l7.58-2.67Z"/><path class="cls-9" d="M728,1449.8s-154.91-118.36-199-119.66S342,1524.5,342,1524.5H395.5s94.33-50.19,127.51-97.9a8.13,8.13,0,0,1,13.57.37c17.15,27.41,62,94.64,91,97.53C658.7,1527.61,728,1449.8,728,1449.8Z"/><path class="cls-11" d="M713.14,1127.72s1,7.75,2.24,17.33c1.68,12.44,3.91,27.88,5.38,32.7l46.61,11.81,3.42-33.89s-11.67-23.41-11.6-56.53Z"/><path class="cls-3" d="M753.68,1198.26l-66.23,81.13-23.16,28.37s-41.48,7.77-63.26,9.66c-15.71,1.36-65.88-5-65.88-5l1.44-15.09s31.13-13.24,45.92-16.34c15.09-3.16,53.21-11.76,53.21-11.76,14.41-5.24,69.17-76,69.17-76Z"/><path class="cls-4" d="M796.89,1488l-135.45-11s-.37-2.72-1-7.27a41.28,41.28,0,0,1-.34-4.42c-.31-13.53,5-31.78,7.3-49.71,1.51-11.83,1.7-23.53-1.92-33.65-4.17-11.68-6.09-33.84-6.93-54.92-1.07-26.38-.46-51-.47-51.22-1.36-16.8,2.64-35.47,9.34-53.21,13.21-35,37.85-54.8,49.42-66.55,0,0,14.14,3.49,50.88-7.53,1.09-.33,4.25,4.29,5.65,7,0,0,15.9,20.12,22.44,69.19C801.66,1268.53,796.89,1488,796.89,1488Z"/><path class="cls-3" d="M763,1244.75c-.26,6.16-54.76,179.64-48.09,192.44,32.32,61.91-49.15,34-53.57,18,1.51-11.83,7.76-63.26,4.14-73.38-4.17-11.68-6.09-33.84-6.93-54.92a75.2,75.2,0,0,1,8.87-23.29C687.67,1300.48,765,1197,763,1244.75Z"/><path class="cls-12" d="M492.1,1278.58,508.9,1267a2.08,2.08,0,0,1,.45-.22h0l3.17-1.29L528,1314.33l-13.52,10.94-2.43,1.06h0a2.51,2.51,0,0,1-3.08-1.69l-17.5-42.89A2.64,2.64,0,0,1,492.1,1278.58Z"/><path class="cls-13" d="M531.44,1311.44l-16,13.42c-1.13.94-2.89.25-3.57-1.41l-17.49-42.88a2.62,2.62,0,0,1,.67-3.18l16.8-11.54c1.15-.79,2.79-.06,3.43,1.51l16.73,41A2.7,2.7,0,0,1,531.44,1311.44Z"/><polygon class="cls-14" points="528.84 1306.18 513.05 1319.4 497.18 1280.51 513.73 1269.15 528.84 1306.18"/><path class="cls-12" d="M522.61,1315.12a1.54,1.54,0,0,1,.7-1.86c.6-.25,1.27.19,1.49,1a1.54,1.54,0,0,1-.7,1.86C523.5,1316.34,522.83,1315.91,522.61,1315.12Z"/><polygon class="cls-15" points="499.57 1281.23 513.01 1271.75 526.94 1305.15 513.26 1315.82 499.57 1281.23"/><polygon class="cls-16" points="503.09 1283.24 512.5 1276.6 522.26 1300 512.67 1307.47 503.09 1283.24"/><path class="cls-10" d="M538.79,1319.48l-8.52-.28s-8.49-17.61-27.93-9.26c0,0-7.79,4.07-3.49,8.61s3.29,2.12,9.22,8.67,14.28,9.54,20.27,6.9l6.63-3Z"/><path class="cls-4" d="M750.41,1156.26s-33.25,14-50.52,44c-11.51,20-31.33,54-43.27,74.49a45.17,45.17,0,0,1-29.31,21.35L587,1305l-56.68,14.17a11.85,11.85,0,0,0-1,6.33c.46,5.57,4.11,6.7,4.11,6.7s52.92,12.73,71.76,14.15c46.41,3.49,68.41-2.59,75.23-5.1a14.18,14.18,0,0,0,4.14-2.4c7.11-5.77,34.38-28.62,48.74-50.45,14-21.23,52.48-76.42,52.48-76.42Z"/><path class="cls-17" d="M797.82,1435.56s13.36,88.94-27.6,88.94H319.44s-12.45-8.4-13.32-24.42c-.93-17,4.44-23,4.44-23s161.37-5.62,194.13-16.6C668.91,1405.45,797.82,1435.56,797.82,1435.56Z"/><path class="cls-18" d="M713.14,1127.72s1,7.75,2.24,17.33c43.06-12.56,43.81-45.91,43.81-45.91Z"/><path class="cls-11" d="M706.37,1130.2s52.34,1.55,52.8-31.06,7.54-54.38-25.86-56.74-40.07,10-42.88,20.83S692.76,1129,706.37,1130.2Z"/><path class="cls-19" d="M760.11,1111.91s-5.53-.92-4.64-8.54.88-17.57-5.31-15.72-6.5,6.82-9,3.92-2.59-15.1-21-16-25.92,5.57-34.49,1.8-9-16.74-9-16.74,2.44,4.63,6.12,6.11c0,0-14.3-19.56,2.25-33s33.44-4.63,43-4c21.1,1.28,34.74,2.54,41.63,16.41S773.65,1098.56,760.11,1111.91Z"/><polygon class="cls-3" points="2076.8 349.95 2217.25 391.16 2131.47 312.53 2123.62 332.62 2087.83 333.89 2076.8 349.95"/><polygon class="cls-4" points="2217.25 391.16 2106.81 312.37 1990.7 289.56 2217.25 391.16"/><polygon class="cls-4" points="2131.47 312.53 2217.25 391.16 2158.24 279.13 2131.47 312.53"/><path class="cls-20" d="M2470,563.27c9.27-5.68,24.08,1.11,24.08,1.11-5.12-7.2-23.81-4.85-23.81-4.85,37.23-7.92,45,15.88,45.64,18.11,27-24.37,70.22,27.57,70.22,27.57l-62,82.22s-5.66-13.08-13.13-9c-11.66,6.37-34.2-19.39-27-53.29a90.15,90.15,0,0,1,2.75-10.08A20.1,20.1,0,0,1,2479,617c-6.78,0-17-17.31-18.41-23.12S2460.74,568.94,2470,563.27Z"/><path class="cls-11" d="M2647.44,921.2c39.29-14.47,77.13-81.7,77.13-81.7l-12.4-8.68c-10.31,15.1-56.74,44.08-56.74,44.08-1.06-12.72-2.6-24.26-4.5-34.71-12.89-71.06-42.37-92.1-50.29-96.57a16.55,16.55,0,0,0-2-1s0,.52.08,1.51c.12,2.14.37,6.45.78,12.35C2602.58,800.46,2614.61,933.3,2647.44,921.2Z"/><path class="cls-11" d="M2457.56,993.75c19.41-43.53,28.7-55.84,29-69.53.26-10.83-5.08-22.52-15.45-51.17a106.22,106.22,0,0,1-5.17-20.71c-8.21-55.24,23.74-115,43.59-119,5.53-1.46,14.89-21.41,14.77-53.56l2.49.49,41.8,8.28s-1,13.15-1,25.55c0,10.32.6,20.11,2.94,21.35,3,.27,4.78.45,4.78.45s34.86,48.41,37.79,93.43-27.91,64.58.24,154.55C2642.11,1075.75,2446.84,1017.8,2457.56,993.75Z"/><path class="cls-18" d="M2568.61,688.53s-1,13.15-1,25.55c-23.39-.66-35.75-22-40.82-33.83Z"/><path class="cls-20" d="M2522.49,675.7s-12.26-19.37-15.2-35.94c-2.1-11.82,3.92-55.65,48-49.34a59.87,59.87,0,0,1,24.82,9.38c9.56,6.46,23.36,20.41,7.93,58.65l-4,12.92Z"/><path class="cls-11" d="M2576.43,700.26s-55.35.91-55.39-33.56-7.21-57.58,28.13-59.62,42.22,11.11,45,22.61S2590.82,699.14,2576.43,700.26Z"/><path class="cls-9" d="M2506.57,1411.42a546.1,546.1,0,0,0,34.89,97.86l18.25-1.26s-8.95-42.58-8.44-100.11c.36-40.23,5.34-87.76,21.23-133.15,54.61-156,45.79-269.48,45.79-269.48l-102.7,12-4.79.56c-.42,47.16-1.64,111.2-2.71,161.28-.94,45-1.77,78.77-1.77,78.77C2486.58,1300.42,2493.75,1360.45,2506.57,1411.42Z"/><path class="cls-17" d="M2447.65,1402.58c5.91,63,31.91,103.77,31.91,103.77l8.71,6.34s8.26-44.4,14.1-97.22c5.56-50.21,13.19-103.34,21.81-119.56,34.25-64.31,44.56-307.1,44.56-307.1l-104.12-5.16c-10.47,17.6-15,46.48-16.12,79.31-2.74,82.86,16.74,190.91,19.65,206.53v0a5.43,5.43,0,0,1-.68,3.49C2446.75,1314,2443.76,1361,2447.65,1402.58Z"/><path class="cls-20" d="M2536,652.66c-23.26,6-33.35-.25-33.35-.25s17.84-14.17,21.54-38.91c0,0,10.22-32.24,49.77-8,3.62-3.11,10.08-5.36,18.62,5,12.83,15.55,1.42,43.05,1.42,43.05-5.27.61-6.51-17.46-9.27-26.24-2-6.46-8.69-13.05-12.07-16.09-1.11,4.09-12.27,42.73-40.05,55.57a129.25,129.25,0,0,0,22.21-27.12C2549.4,645.8,2543.06,650.84,2536,652.66Z"/><path class="cls-11" d="M2376.45,1052.44c4.21-2.66,8.29-10.83,9.75-14,12.87-32.05,27.7-94.18,32.6-105.62,1.79-4.17,5.21-23.82,9.7-49.15,8.06-45.45,19.52-109.15,31-134.39,1.38-3,5.33-5.6,10.5-7.76,15.63-6.54,42.34-9.27,42.34-9.27l-14,60.43-4.09,17.71s-12.42,43.77-22.05,79.54c-4.65,17.28-8.63,32.69-10.26,40.4C2457,954,2402.2,1045,2402.2,1045h0s-1.66,1.1-3.6,6.64-17.44,34.88-24.08,34.88-8-10-9.41-16.33S2371.19,1055.76,2376.45,1052.44Z"/><path class="cls-11" d="M2712.17,830.82c0-1.71-1.43-26.43,3-31.62s13.39-12.58,16.21-12.35,13.88,14.91,10.56,26.16-17.34,26.49-17.34,26.49Z"/><path class="cls-13" d="M2692,800.58l25.62,7.68a1.61,1.61,0,0,0,2-1.08l14.65-48.85a1.61,1.61,0,0,0-1.08-2l-25.62-7.68a1.61,1.61,0,0,0-2,1.08l-14.64,48.85A1.6,1.6,0,0,0,2692,800.58Z"/><path class="cls-12" d="M2698.65,802.58l23.24,7a2.85,2.85,0,0,0,3.55-1.91l13.93-46.47a2.85,2.85,0,0,0-1.92-3.55l-23.24-7a2.83,2.83,0,0,0-3.54,1.91L2696.74,799A2.85,2.85,0,0,0,2698.65,802.58Z"/><path class="cls-11" d="M2447.65,1402.58c5.91,63,31.91,103.77,31.91,103.77l8.87,8.09s8.1-46.15,13.94-99C2496.21,1415.91,2469.09,1416.9,2447.65,1402.58Z"/><path class="cls-13" d="M2472,891.86c-6.17,1.65-26,5.38-48.76-7.15,9.38-45.76,22.71-109.92,36.07-135.35a10.62,10.62,0,0,1,3.29-3.46l-.14-.16c12.52-9.1,38.11-11.9,38.11-11.9s7.88,35,12.86,39.55,77.24,12,78.91,3.74c1.59-7.94-18.79-38.79-20.31-41.51a31.86,31.86,0,0,1,3.28.26c8.24,1.08,14.05,1.91,18.24,2.62,8.21,1.41,13.23,4.92,13.7,5.46,9.73,7.37,32.59,30,41.53,84.5,0,0-11.31,15.5-27.23,20.07-.42.12-.84.23-1.27.33,2.77,46.2,19.77,123.08,13.65,167.55-5.89,42.76-95.84,31.83-113.68,27.86-12.22-2.71-21.67-15.62-28.42-38.61-2.24,16.07-7.25,34.91-18.49,36.08-18.4,1.9-26-1.27-28.22-8.24a24.68,24.68,0,0,1-.65-8.33C2445.71,1001.16,2464,944.57,2472,891.86Z"/><path class="cls-21" d="M2506.57,1411.42a546.1,546.1,0,0,0,34.89,97.86l18.25-1.26s-8.95-42.58-8.44-100.11C2545.08,1411,2532.3,1414.19,2506.57,1411.42Z"/><path class="cls-20" d="M2531,1524.59h11.65c3.9-.62,6.78-1.75,10.79-2.27,6.08-.8,8.87,1.69,9.43,2.27a.58.58,0,0,1,.11.12h49.5c1.24-1.78.05-5.9-1.12-8.93a7.06,7.06,0,0,0-4.64-4.24c-5.25-1.52-15.59-2.87-25.07-11.45-5.33-4.82-25.75-17.72-25.75-17.72l-.1,0c-.45,0-2.59.66-11.87,8.5-4.8,4.05-13-5.71-13-5.71a11.65,11.65,0,0,0-2.69,3.64,12.31,12.31,0,0,0-1.06,7.6c.74,4.45-1.64,12.74-3.55,18.35-1.15,3.4-2.12,5.81-2.12,5.81S2520.92,1523.33,2531,1524.59Z"/><path class="cls-22" d="M2528.21,1488.78c2.79,2,8.66,5.82,12.55,6.32,5.26.69,15.09-12.73,15.09-12.73l-.1,0c-.45,0-2.59.66-11.87,8.5-4.8,4.05-13-5.71-13-5.71A11.65,11.65,0,0,0,2528.21,1488.78Z"/><path class="cls-22" d="M2531,1524.59h11.65c3.9-.62,6.78-1.75,10.79-2.27,6.08-.8,8.87,1.69,9.43,2.27a.58.58,0,0,1,.11.12h49.5c1.24-1.78.05-5.9-1.12-8.93-1.51-1.34-1.93,5.8-2.76,6.94s-40.38.41-42.66-1.25-9.14-4.56-18.69-2.28c-8.31,2-20.56-3.11-23.6-4.46-1.15,3.4-2.12,5.81-2.12,5.81S2520.92,1523.33,2531,1524.59Z"/><path class="cls-20" d="M2468.76,1524.59h11.66c3.9-.62,6.78-1.75,10.79-2.27,6.07-.8,8.87,1.69,9.43,2.27l.11.12h49.5c1.24-1.78.05-5.9-1.12-8.93a7.06,7.06,0,0,0-4.64-4.24c-5.25-1.52-15.6-2.87-25.07-11.45-5.33-4.82-25.75-17.72-25.75-17.72l-.11,0c-.44,0-2.58.66-11.86,8.5-4.8,4.05-13-5.71-13-5.71a11.65,11.65,0,0,0-2.69,3.64,12.31,12.31,0,0,0-1.06,7.6c.74,4.45-1.64,12.74-3.55,18.35-1.15,3.4-2.12,5.81-2.12,5.81S2458.74,1523.33,2468.76,1524.59Z"/><path class="cls-22" d="M2466,1488.78c2.78,2,8.66,5.82,12.55,6.32,5.26.69,15.09-12.73,15.09-12.73l-.11,0c-.44,0-2.58.66-11.86,8.5-4.8,4.05-13-5.71-13-5.71A11.65,11.65,0,0,0,2466,1488.78Z"/><path class="cls-22" d="M2468.76,1524.59h11.66c3.9-.62,6.78-1.75,10.79-2.27,6.07-.8,8.87,1.69,9.43,2.27l.11.12h49.5c1.24-1.78.05-5.9-1.12-8.93-1.51-1.34-1.93,5.8-2.76,6.94s-40.38.41-42.67-1.25-9.13-4.56-18.68-2.28c-8.32,2-20.57-3.11-23.6-4.46-1.15,3.4-2.12,5.81-2.12,5.81S2458.74,1523.33,2468.76,1524.59Z"/><path class="cls-12" d="M2444.51,1025.17c12.36-4.13,28.21-15.1,47.25-39.71,50.41-65.15,4.28-141.71-1.9-143.14S2472,891.86,2472,891.86C2464,944.57,2445.71,1001.16,2444.51,1025.17Z"/><path class="cls-11" d="M2733.57,788.52s-8.09-7.34-14.69-.4,2.5,19.33,9.16,22.28,8.87,4.63,8.87,4.63Z"/><path class="cls-1" d="M2565.61,679.8s1,4.06,11.07,3.43c0,0,8.48-.52,8.22-5C2584.9,678.24,2576.68,675.07,2565.61,679.8Z"/><path class="cls-8" d="M2144.76,1213.83l.07-161.84a10.2,10.2,0,0,0-10.18-10.19l-294.85-.13a10.2,10.2,0,0,0-10.19,10.18l-.08,161.83a10.22,10.22,0,0,0,10.18,10.19l294.86.13A10.2,10.2,0,0,0,2144.76,1213.83Z"/><rect class="cls-23" x="1829.59" y="1068.83" width="315.23" height="36.06"/><rect class="cls-24" x="1853.3" y="1114.93" width="192.87" height="28.35"/><path class="cls-24" d="M1892.62,1194.21v-20.67a7.7,7.7,0,0,0-7.69-7.7h-24a7.7,7.7,0,0,0-7.7,7.7v20.66a7.7,7.7,0,0,0,7.69,7.7h24A7.69,7.69,0,0,0,1892.62,1194.21Z"/><path class="cls-25" d="M1928.6,1169.5l189.47.09a3,3,0,0,0,3-3v-2.92a3,3,0,0,0-3-3l-189.46-.08a3,3,0,0,0-3,3v2.91A3,3,0,0,0,1928.6,1169.5Z"/><path class="cls-25" d="M1928.56,1186.14l189.54.09a2.94,2.94,0,0,0,2.94-2.94v-2.78a3,3,0,0,0-3-3l-189.54-.09a3,3,0,0,0-2.94,3v2.78A2.93,2.93,0,0,0,1928.56,1186.14Z"/><path class="cls-25" d="M2121,1199.32v-3.15a3,3,0,0,0-3-3l-189.35-.09a3,3,0,0,0-3,3v3.15a3,3,0,0,0,3,3l189.35.09A3,3,0,0,0,2121,1199.32Z"/><rect class="cls-7" x="944.48" y="904.64" width="306" height="203.11" rx="18.07"/><rect class="cls-3" x="957.5" y="845.61" width="246.5" height="125.88"/><rect class="cls-3" x="956.19" y="843.74" width="246.5" height="125.88"/><rect class="cls-3" x="954.44" y="842.11" width="246.5" height="125.88"/><rect class="cls-4" x="952.75" y="840.57" width="246.5" height="125.88"/><path class="cls-3" d="M962.39,850V957h227.22V850ZM1181,948.72H971V858.3h210Z"/><path class="cls-3" d="M962.39,850v24.34A19.8,19.8,0,0,0,987,850Z"/><path class="cls-3" d="M1189.61,849.91h-24.34a19.8,19.8,0,0,0,24.34,24.6Z"/><path class="cls-3" d="M1189.61,957h-24.34a19.79,19.79,0,0,1,19-25.33,19.7,19.7,0,0,1,5.29.74Z"/><path class="cls-3" d="M962.39,956.91V932.57A19.8,19.8,0,0,1,987,956.91Z"/><path class="cls-3" d="M1102.67,903.51A26.67,26.67,0,1,1,1076,876.85,26.67,26.67,0,0,1,1102.67,903.51Z"/><circle class="cls-26" cx="1170.7" cy="917.43" r="50.66" transform="translate(-128.27 192.93) rotate(-8.93)"/><path class="cls-27" d="M1160,867.71a50.66,50.66,0,1,0,56.55,44A50.66,50.66,0,0,0,1160,867.71Z"/><path class="cls-28" d="M1172.11,964.36a46.15,46.15,0,1,1,40.07-51.52A46.21,46.21,0,0,1,1172.11,964.36ZM1161,875.5a43.4,43.4,0,1,0,48.44,37.69A43.45,43.45,0,0,0,1161,875.5Z"/><path class="cls-28" d="M1174.35,931.07a7.38,7.38,0,0,0-.44-2.64,5.48,5.48,0,0,0-1.4-2.07,10.42,10.42,0,0,0-2.49-1.7,27.78,27.78,0,0,0-3.73-1.52,73.65,73.65,0,0,1-6.88-2.73,23,23,0,0,1-5.3-3.31,13.6,13.6,0,0,1-3.44-4.42,15.23,15.23,0,0,1-.2-11.6,12.72,12.72,0,0,1,3-4.39,16.24,16.24,0,0,1,4.78-3.05,21,21,0,0,1,6.25-1.52l0-7.66,6.16,0,0,7.76a19.33,19.33,0,0,1,6,1.72,14.49,14.49,0,0,1,7.55,8.38,19.23,19.23,0,0,1,1.06,6.46l-11.14.07q0-4.29-1.94-6.41a6.47,6.47,0,0,0-5.12-2.1,8.14,8.14,0,0,0-3,.5,5.62,5.62,0,0,0-2.05,1.34,5.19,5.19,0,0,0-1.18,2,7.65,7.65,0,0,0-.37,2.47,7,7,0,0,0,.4,2.4,5.32,5.32,0,0,0,1.34,2,10.51,10.51,0,0,0,2.52,1.7,34.38,34.38,0,0,0,3.88,1.64q3.75,1.38,6.82,2.82a23.18,23.18,0,0,1,5.28,3.35,13.05,13.05,0,0,1,4.69,10.44,14.09,14.09,0,0,1-1.06,5.67,12.87,12.87,0,0,1-3.08,4.35,15.49,15.49,0,0,1-4.82,3,23.1,23.1,0,0,1-6.29,1.47l0,7.13-6.13,0,0-7.08a26,26,0,0,1-6.2-1.36,16.26,16.26,0,0,1-5.32-3.06,14.78,14.78,0,0,1-3.73-5.08,17.86,17.86,0,0,1-1.43-7.37l11.14-.07a11,11,0,0,0,.73,4.24,7.19,7.19,0,0,0,1.93,2.71,6.75,6.75,0,0,0,2.72,1.41,12.12,12.12,0,0,0,3.11.4,9.83,9.83,0,0,0,3.18-.49,6.49,6.49,0,0,0,2.28-1.3,5.38,5.38,0,0,0,1.38-2A6.37,6.37,0,0,0,1174.35,931.07Z"/><rect class="cls-8" x="944.48" y="920.52" width="286" height="203.11" rx="18.07"/><path class="cls-7" d="M1239,1049.83h-88.75a27.75,27.75,0,0,1-27.75-27.75h0a27.74,27.74,0,0,1,27.75-27.75H1239Z"/><circle class="cls-2" cx="1150.23" cy="1022.08" r="21.75"/><circle class="cls-4" cx="1979.61" cy="772.39" r="67.56" transform="translate(-32.97 90.5) rotate(-2.6)"/><path class="cls-1" d="M1940.25,777l22.07,22.07a6.44,6.44,0,0,0,4.55,1.88h3.21a6.44,6.44,0,0,0,4.55-1.88L2019,754.77a6.43,6.43,0,0,0-4.55-11h-2.08a6.46,6.46,0,0,0-4.5,1.83l-36.32,35.51a6.43,6.43,0,0,1-9-.06l-13.12-13.12a6.44,6.44,0,0,0-4.62-1.88h0A6.43,6.43,0,0,0,1940.25,777Z"/><path class="cls-4" d="M699.94,797.65c-1.91.25-3.79.48-5.66.71a3.9,3.9,0,0,1-1-7.74h0c3.36-.41,6.78-.84,10.26-1.31h0a3.9,3.9,0,0,1,1,7.73Zm15-2a3.9,3.9,0,0,1-1-7.73c3.37-.48,6.78-1,10.25-1.53a3.9,3.9,0,0,1,1.19,7.7q-5.23.81-10.33,1.55ZM684,799.53h-.09c-3.53.38-7,.72-10.4,1a3.9,3.9,0,1,1-.7-7.76c3.33-.3,6.79-.64,10.28-1a3.9,3.9,0,0,1,.91,7.74Zm51.48-7.1a3.9,3.9,0,0,1-1.12-7.71q5.05-.83,10.23-1.71a3.9,3.9,0,1,1,1.32,7.68c-3.47.59-6.9,1.17-10.29,1.72Zm-72.18,9-.23,0c-3.58.25-7.11.46-10.46.61a3.89,3.89,0,1,1-.36-7.78c3.29-.15,6.75-.36,10.28-.6a3.9,3.9,0,0,1,.77,7.75ZM756,788.92a3.9,3.9,0,0,1-1.17-7.7q5.06-.9,10.2-1.86a3.9,3.9,0,0,1,1.42,7.66q-5.17,1-10.25,1.87ZM642.53,802.31l-.43,0c-3.65.06-7.2,0-10.54,0a3.9,3.9,0,1,1,.17-7.79c3.24.07,6.69.07,10.24,0a3.9,3.9,0,0,1,.56,7.76Zm133.89-17.18a3.9,3.9,0,0,1-1.22-7.69q5.06-1,10.18-2a3.9,3.9,0,0,1,1.51,7.65q-5.14,1-10.22,2Zm20.41-4a3.89,3.89,0,0,1-1.27-7.68l10.17-2.09a3.9,3.9,0,1,1,1.58,7.63l-10.2,2.1Zm20.36-4.23a3.89,3.89,0,0,1-1.3-7.67L826,767a3.9,3.9,0,0,1,1.65,7.62l-10.18,2.18ZM621.77,801.81a4.15,4.15,0,0,1-.79,0c-3.77-.27-7.34-.67-10.62-1.16a3.89,3.89,0,1,1,1.16-7.7c3.08.46,6.46.83,10,1.09a3.9,3.9,0,0,1,.22,7.75Zm215.74-29.34a3.9,3.9,0,0,1-1.33-7.67q5-1.11,10.14-2.26a3.9,3.9,0,0,1,1.71,7.61l-10.17,2.26C837.75,772.44,837.63,772.45,837.51,772.47Zm20.29-4.56a3.89,3.89,0,0,1-1.36-7.66q5-1.15,10.12-2.33a3.9,3.9,0,1,1,1.76,7.59l-10.14,2.34A2.5,2.5,0,0,1,857.8,767.91Zm20.26-4.69a3.9,3.9,0,0,1-1.38-7.66l10.1-2.39a3.9,3.9,0,1,1,1.81,7.58l-10.13,2.4ZM601.27,798.59a3.79,3.79,0,0,1-1.53-.1,51.9,51.9,0,0,1-10.47-4,3.9,3.9,0,0,1,3.65-6.89A43.29,43.29,0,0,0,601.8,791a3.89,3.89,0,0,1-.53,7.62Zm297-40.19a3.9,3.9,0,0,1-1.41-7.65L907,748.3a3.9,3.9,0,1,1,1.84,7.57l-10.11,2.45A3.1,3.1,0,0,1,898.29,758.4Zm20.2-4.93a3.9,3.9,0,0,1-1.43-7.65l10.09-2.5a3.9,3.9,0,1,1,1.88,7.56l-10.1,2.51Zm20.17-5a3.9,3.9,0,0,1-1.44-7.65l10.07-2.54a3.9,3.9,0,1,1,1.92,7.55l-10.08,2.55A3.89,3.89,0,0,1,938.66,748.44Zm20.16-5.13a3.9,3.9,0,0,1-1.46-7.64l10.06-2.59a3.9,3.9,0,0,1,2,7.55l-10.08,2.59Zm20.09-5.2a3.89,3.89,0,0,1-1.47-7.63l10-2.63a3.89,3.89,0,1,1,2,7.53L979.41,738A3,3,0,0,1,978.91,738.11ZM583.66,788.36a3.92,3.92,0,0,1-3.65-1.58c-.23-.32-.45-.64-.65-1a52.65,52.65,0,0,1-4.68-9,3.9,3.9,0,1,1,7.25-2.86,45.76,45.76,0,0,0,4,7.71c.13.2.26.39.4.58a3.89,3.89,0,0,1-.87,5.44A3.82,3.82,0,0,1,583.66,788.36ZM999,732.83a3.9,3.9,0,0,1-1.49-7.64l10-2.67a3.9,3.9,0,0,1,2,7.53l-10.06,2.68Zm20.12-5.38a3.9,3.9,0,0,1-1.5-7.63l10.06-2.71a3.9,3.9,0,0,1,2,7.52l-10.08,2.72A3.18,3.18,0,0,1,1019.12,727.45Zm20.1-5.44a3.9,3.9,0,0,1-1.51-7.63l10-2.74a3.9,3.9,0,1,1,2.06,7.52l-10,2.74A3.45,3.45,0,0,1,1039.22,722Zm20.06-5.5a3.9,3.9,0,0,1-1.53-7.62l10-2.77a3.89,3.89,0,1,1,2.09,7.5l-10,2.78A5.17,5.17,0,0,1,1059.28,716.51Zm20-5.56a3.9,3.9,0,0,1-1.54-7.62l10-2.8a3.89,3.89,0,1,1,2.1,7.5l-10,2.8A5.59,5.59,0,0,1,1079.31,711Zm20-5.62a3.9,3.9,0,0,1-1.55-7.62l10-2.83a3.9,3.9,0,0,1,2.13,7.5l-10,2.83Zm20-5.68a3.9,3.9,0,0,1-1.56-7.61l10-2.86a3.89,3.89,0,1,1,2.14,7.49l-10,2.86A2.85,2.85,0,0,1,1119.33,699.65Zm-543,69.49-.15,0a3.89,3.89,0,0,1-4.23-3.53,36.05,36.05,0,0,1,.78-11.43,3.89,3.89,0,0,1,7.59,1.75,28.26,28.26,0,0,0-.61,9A3.89,3.89,0,0,1,576.35,769.14Zm563-75.22a3.9,3.9,0,0,1-1.57-7.61l10-2.88a3.89,3.89,0,0,1,2.16,7.48l-10,2.89A4.12,4.12,0,0,1,1139.32,693.92Zm20-5.78a3.9,3.9,0,0,1-1.58-7.61l10-2.9a3.9,3.9,0,0,1,2.18,7.48l-10,2.91A3.86,3.86,0,0,1,1159.3,688.14Zm20-5.83a3.89,3.89,0,0,1-1.59-7.6l10-2.93a3.9,3.9,0,0,1,2.21,7.47l-10,2.94A3.46,3.46,0,0,1,1179.26,682.31Zm20-5.87a3.9,3.9,0,0,1-1.6-7.6l10-3a3.9,3.9,0,1,1,2.21,7.47q-4.95,1.49-10,3A4.42,4.42,0,0,1,1199.21,676.44Zm19.93-5.92a3.9,3.9,0,0,1-1.6-7.6l10-3a3.9,3.9,0,1,1,2.23,7.47l-10,3A4.7,4.7,0,0,1,1219.14,670.52Zm-638.4,78.85a3.9,3.9,0,0,1-3.91-5.73,56.47,56.47,0,0,1,6.31-9.13,3.9,3.9,0,0,1,6,5,48.94,48.94,0,0,0-5.44,7.85A3.88,3.88,0,0,1,580.74,749.37Zm658.33-84.81a3.9,3.9,0,0,1-1.62-7.6l10-3a3.9,3.9,0,0,1,2.25,7.46l-10,3A4.75,4.75,0,0,1,1239.07,664.56Zm19.91-6a3.9,3.9,0,0,1-1.62-7.6l10-3a3.89,3.89,0,1,1,2.26,7.45l-10,3A3.88,3.88,0,0,1,1259,658.55Zm19.9-6a3.9,3.9,0,0,1-1.63-7.59l9.94-3a3.9,3.9,0,1,1,2.28,7.45l-10,3A3.67,3.67,0,0,1,1278.88,652.5Zm19.89-6.09a3.9,3.9,0,0,1-1.64-7.59l9.94-3.06a3.9,3.9,0,1,1,2.29,7.45l-9.94,3.06A4,4,0,0,1,1298.77,646.41Zm-704.91,87a3.89,3.89,0,0,1-3.11-6.76c2.52-2.27,5.34-4.55,8.37-6.79a3.9,3.9,0,0,1,4.62,6.28c-2.83,2.08-5.44,4.2-7.77,6.3A3.9,3.9,0,0,1,593.86,733.45Zm724.78-93.17a3.9,3.9,0,0,1-1.64-7.59l9.93-3.08a3.9,3.9,0,0,1,2.32,7.44l-9.94,3.09A5,5,0,0,1,1318.64,640.28Zm19.87-6.17a3.9,3.9,0,0,1-1.65-7.59l9.93-3.1a3.9,3.9,0,0,1,2.33,7.44l-9.94,3.1A3.82,3.82,0,0,1,1338.51,634.11Zm19.86-6.21a3.9,3.9,0,0,1-1.66-7.59l9.93-3.12a3.89,3.89,0,0,1,2.34,7.43l-9.93,3.13A4.14,4.14,0,0,1,1358.37,627.9ZM610.53,721.07A3.9,3.9,0,0,1,608,713.9c2.87-1.8,5.95-3.61,9.16-5.39a3.9,3.9,0,0,1,3.77,6.82c-3.09,1.7-6,3.44-8.78,5.17A4,4,0,0,1,610.53,721.07Zm767.69-99.43a3.9,3.9,0,0,1-1.66-7.58l9.92-3.14a3.89,3.89,0,1,1,2.36,7.42l-9.93,3.15A4.26,4.26,0,0,1,1378.22,621.64Zm19.85-6.3a3.9,3.9,0,0,1-1.67-7.58l9.91-3.17a3.9,3.9,0,0,1,2.38,7.42q-4.71,1.51-9.93,3.17A3.44,3.44,0,0,1,1398.07,615.34ZM628.72,711a3.9,3.9,0,0,1-2.22-7.36c3-1.5,6.25-3,9.54-4.5a3.9,3.9,0,1,1,3.2,7.11c-3.21,1.44-6.33,2.91-9.28,4.38A4,4,0,0,1,628.72,711Zm789.2-102a3.89,3.89,0,0,1-1.69-7.57l9.93-3.2a3.9,3.9,0,0,1,2.39,7.42l-9.93,3.2A4.37,4.37,0,0,1,1417.92,609Zm19.87-6.42a3.9,3.9,0,0,1-1.7-7.57c6.13-2,9.4-3.07,9.4-3.07a3.9,3.9,0,0,1,2.44,7.4l-9.43,3.08A3.47,3.47,0,0,1,1437.79,602.56ZM647.7,702.41a3.9,3.9,0,0,1-2-7.47c3.14-1.29,6.43-2.6,9.77-3.88a3.9,3.9,0,1,1,2.78,7.28c-3.27,1.25-6.5,2.53-9.58,3.81A3.91,3.91,0,0,1,647.7,702.41ZM667.14,695a3.9,3.9,0,0,1-1.8-7.54c3.22-1.14,6.55-2.29,9.92-3.42a3.9,3.9,0,0,1,2.47,7.39c-3.32,1.11-6.61,2.24-9.77,3.37A4.08,4.08,0,0,1,667.14,695Zm19.76-6.6a3.9,3.9,0,0,1-1.66-7.58c3.26-1,6.63-2,10-3.06a3.9,3.9,0,0,1,2.21,7.48c-3.35,1-6.68,2-9.9,3A4,4,0,0,1,686.9,688.36Zm20-5.91a3.9,3.9,0,0,1-1.54-7.62c3.33-.93,6.73-1.85,10.11-2.74a3.89,3.89,0,0,1,2,7.53c-3.35.88-6.71,1.8-10,2.72A4,4,0,0,1,706.87,682.45ZM727,677.12a3.89,3.89,0,0,1-1.44-7.64c3.34-.84,6.77-1.67,10.17-2.48a3.9,3.9,0,1,1,1.8,7.58c-3.37.8-6.76,1.63-10.08,2.46Zm20.28-4.81a3.89,3.89,0,0,1-1.34-7.66c3.42-.77,6.86-1.52,10.25-2.23a3.9,3.9,0,0,1,1.6,7.63c-3.35.7-6.76,1.44-10.14,2.2A2.38,2.38,0,0,1,747.3,672.31Zm20.43-4.3a3.89,3.89,0,0,1-1.24-7.68c6.5-1.28,10.25-1.92,10.41-2a3.9,3.9,0,1,1,1.31,7.68s-3.82.65-10.22,1.91Z"/><polygon class="cls-3" points="1492.58 654.99 1628.35 553.28 1495.81 578.27 1509 599.51 1485.33 633.6 1492.58 654.99"/><polygon class="cls-4" points="1628.35 553.28 1478.54 601.03 1376.74 692.94 1628.35 553.28"/><polygon class="cls-4" points="1495.81 578.27 1628.35 553.28 1483.41 530.23 1495.81 578.27"/><rect class="cls-4" x="916.95" y="1247.71" width="361.05" height="88.65" rx="15.16"/><path class="cls-1" d="M980.26,1272a1.47,1.47,0,0,1,1.09.46,1.44,1.44,0,0,1,.46,1.08v4.07a1.44,1.44,0,0,1-.46,1.08,1.47,1.47,0,0,1-1.09.46H970v31.36a1.55,1.55,0,0,1-1.54,1.54h-4.63a1.57,1.57,0,0,1-1.55-1.54v-31.36h-10.3a1.55,1.55,0,0,1-1.54-1.54v-4.07a1.55,1.55,0,0,1,1.54-1.54Z"/><path class="cls-1" d="M1003.84,1272q7.15,0,10.87,3.32t3.72,9.21a12.73,12.73,0,0,1-1.92,7.12,11.32,11.32,0,0,1-5.63,4.38l7.89,14.13a1.36,1.36,0,0,1,.17.63,1.26,1.26,0,0,1-1.25,1.26h-4.87a2.33,2.33,0,0,1-1.69-.54,4.07,4.07,0,0,1-.77-1l-7.49-13.33h-7.62v13.33a1.55,1.55,0,0,1-1.54,1.54h-4.63a1.57,1.57,0,0,1-1.55-1.54v-37a1.57,1.57,0,0,1,1.55-1.54Zm-8.59,18h8.3a10.27,10.27,0,0,0,5.21-1.14c1.3-.76,1.94-2.21,1.94-4.35s-.64-3.57-1.94-4.29a10.62,10.62,0,0,0-5.21-1.09h-8.3Z"/><path class="cls-1" d="M1044.69,1272a1.8,1.8,0,0,1,1.38.49,4.22,4.22,0,0,1,.8,1.45l14,36.17a1.56,1.56,0,0,1,0,.4,1.55,1.55,0,0,1-1.54,1.54h-4.12a2.14,2.14,0,0,1-1.6-.48,2.79,2.79,0,0,1-.63-.95l-2.46-6.35H1032.5l-2.46,6.35a2.79,2.79,0,0,1-.63.95,2.14,2.14,0,0,1-1.6.48h-4.12a1.57,1.57,0,0,1-1.54-1.54,1.2,1.2,0,0,1,.06-.4l14-36.17a4.07,4.07,0,0,1,.81-1.45,1.76,1.76,0,0,1,1.37-.49Zm3.15,25.12-6.29-16.31-6.3,16.31Z"/><path class="cls-1" d="M1092.13,1312.06a2,2,0,0,1-1.49-.51,10.24,10.24,0,0,1-.74-.8l-16-23.81v23.58a1.55,1.55,0,0,1-1.54,1.54h-4.64a1.57,1.57,0,0,1-1.54-1.54v-37a1.57,1.57,0,0,1,1.54-1.54h4a2,2,0,0,1,1.49.51,10,10,0,0,1,.74.81l16,23.8v-23.58a1.44,1.44,0,0,1,.46-1.08,1.48,1.48,0,0,1,1.09-.46h4.63a1.57,1.57,0,0,1,1.55,1.54v37a1.57,1.57,0,0,1-1.55,1.54Z"/><path class="cls-1" d="M1120.34,1271.44a20.2,20.2,0,0,1,6.75,1A16.62,16.62,0,0,1,1132,1275a11.14,11.14,0,0,1,3,3.41A8.59,8.59,0,0,1,1136,1282a1.28,1.28,0,0,1-.42,1.12,1.64,1.64,0,0,1-1.12.43h-4a2.38,2.38,0,0,1-1.46-.37,3.78,3.78,0,0,1-.88-1,7.29,7.29,0,0,0-2.61-2.49,10.08,10.08,0,0,0-5.17-1.06,12.42,12.42,0,0,0-2.84.31,8.11,8.11,0,0,0-2.34.92,4.85,4.85,0,0,0-1.58,1.46,3.43,3.43,0,0,0-.57,1.94,3.79,3.79,0,0,0,.55,2.15,4.26,4.26,0,0,0,1.83,1.43,19,19,0,0,0,3.4,1.12q2.12.51,5.27,1.2a37.45,37.45,0,0,1,5.92,1.74,13.72,13.72,0,0,1,4.06,2.41,9,9,0,0,1,2.35,3.23,10.74,10.74,0,0,1,.77,4.18,10.09,10.09,0,0,1-1.15,4.77,11,11,0,0,1-3.26,3.78,16.44,16.44,0,0,1-5.2,2.49,24.39,24.39,0,0,1-6.93.91,23.65,23.65,0,0,1-6.12-.77,17.87,17.87,0,0,1-5.18-2.23,12.22,12.22,0,0,1-3.63-3.52,9.25,9.25,0,0,1-1.55-4.58,1.26,1.26,0,0,1,.43-1.11,1.64,1.64,0,0,1,1.12-.43h4a2.67,2.67,0,0,1,1.49.34,2.62,2.62,0,0,1,.86,1,11.44,11.44,0,0,0,1,1.49,5.22,5.22,0,0,0,1.55,1.32,9.55,9.55,0,0,0,2.43.94,14.85,14.85,0,0,0,3.63.37,19.94,19.94,0,0,0,3.32-.26,9.59,9.59,0,0,0,2.8-.85,6,6,0,0,0,2-1.49,3.29,3.29,0,0,0,.74-2.2,2.76,2.76,0,0,0-.8-2.06,6.4,6.4,0,0,0-2.43-1.38,33.78,33.78,0,0,0-4-1.08q-2.42-.53-5.55-1.32a29.79,29.79,0,0,1-5-1.63,11.81,11.81,0,0,1-3.55-2.32,8.7,8.7,0,0,1-2.09-3.23,13,13,0,0,1-.68-4.44,10.1,10.1,0,0,1,1.14-4.75,11.29,11.29,0,0,1,3.15-3.71,15.59,15.59,0,0,1,4.78-2.44A19.56,19.56,0,0,1,1120.34,1271.44Z"/><path class="cls-1" d="M1169.66,1272a1.55,1.55,0,0,1,1.54,1.54v4.07a1.55,1.55,0,0,1-1.54,1.54h-18.25v11.1h17.1a1.5,1.5,0,0,1,1.09.46,1.48,1.48,0,0,1,.46,1.09v4.06a1.55,1.55,0,0,1-1.55,1.54h-17.1v13.11a1.57,1.57,0,0,1-1.55,1.54h-4.63a1.47,1.47,0,0,1-1.09-.46,1.44,1.44,0,0,1-.46-1.08v-37a1.44,1.44,0,0,1,.46-1.08,1.47,1.47,0,0,1,1.09-.46Z"/><path class="cls-1" d="M1204.5,1304.91a1.57,1.57,0,0,1,1.55,1.55v4.06a1.44,1.44,0,0,1-.46,1.08,1.47,1.47,0,0,1-1.09.46h-25.11a1.57,1.57,0,0,1-1.55-1.54v-37a1.57,1.57,0,0,1,1.55-1.54h24.66a1.57,1.57,0,0,1,1.54,1.54v4.07a1.57,1.57,0,0,1-1.54,1.54h-18.49v9.1h17.23a1.55,1.55,0,0,1,1.54,1.54v4.07a1.55,1.55,0,0,1-1.54,1.54h-17.23v9.5Z"/><path class="cls-1" d="M1229.45,1272q7.15,0,10.87,3.32t3.72,9.21a12.81,12.81,0,0,1-1.91,7.12,11.3,11.3,0,0,1-5.64,4.38l7.9,14.13a1.49,1.49,0,0,1,.17.63,1.24,1.24,0,0,1-.37.89,1.22,1.22,0,0,1-.89.37h-4.86a2.3,2.3,0,0,1-1.69-.54,3.84,3.84,0,0,1-.77-1l-7.5-13.33h-7.61v13.33a1.44,1.44,0,0,1-.46,1.08,1.47,1.47,0,0,1-1.09.46h-4.63a1.57,1.57,0,0,1-1.55-1.54v-37a1.57,1.57,0,0,1,1.55-1.54Zm-8.58,18h8.3a10.23,10.23,0,0,0,5.2-1.14q2-1.14,2-4.35t-2-4.29a10.58,10.58,0,0,0-5.2-1.09h-8.3Z"/><path class="cls-29" d="M83.67,1529.57H2916.33a2.75,2.75,0,0,0,2.75-2.74h0a2.76,2.76,0,0,0-2.75-2.75H83.67a2.76,2.76,0,0,0-2.75,2.75h0A2.75,2.75,0,0,0,83.67,1529.57Z"/></g></g></svg>