<svg xmlns="http://www.w3.org/2000/svg" xmlns:xlink="http://www.w3.org/1999/xlink" viewBox="0 0 2207.47 1351"><defs><style>.cls-1{fill:url(#linear-gradient);}.cls-2{fill:#91b3fa;}.cls-3{fill:url(#linear-gradient-2);}.cls-4{opacity:0.86;}.cls-34,.cls-5{fill:#fff;}.cls-6{fill:url(#linear-gradient-3);}.cls-7{fill:url(#linear-gradient-4);}.cls-8{fill:url(#linear-gradient-5);}.cls-9{fill:url(#linear-gradient-6);}.cls-10{fill:url(#linear-gradient-7);}.cls-11{fill:#7d97f4;}.cls-12{fill:url(#linear-gradient-8);}.cls-13{fill:url(#linear-gradient-9);}.cls-14{fill:url(#linear-gradient-10);}.cls-15{fill:url(#linear-gradient-11);}.cls-16{fill:url(#linear-gradient-12);}.cls-17{fill:url(#linear-gradient-13);}.cls-18{fill:url(#linear-gradient-14);}.cls-19{fill:url(#linear-gradient-15);}.cls-20{fill:url(#linear-gradient-16);}.cls-21{fill:url(#linear-gradient-17);}.cls-22{fill:#bdd0fb;}.cls-23{fill:url(#linear-gradient-18);}.cls-24{fill:url(#linear-gradient-19);}.cls-25{fill:url(#linear-gradient-20);}.cls-26{fill:url(#linear-gradient-21);}.cls-27{fill:url(#linear-gradient-22);}.cls-28{fill:url(#linear-gradient-23);}.cls-29{fill:url(#linear-gradient-24);}.cls-30{fill:url(#linear-gradient-25);}.cls-31{fill:url(#linear-gradient-26);}.cls-32{fill:url(#linear-gradient-27);}.cls-33{fill:url(#linear-gradient-28);}.cls-34{font-size:36px;font-family:MyriadPro-Regular, Myriad Pro;}.cls-35{letter-spacing:0em;}.cls-36{letter-spacing:0em;}.cls-37{letter-spacing:-0.01em;}.cls-38{letter-spacing:-0.08em;}.cls-39{letter-spacing:0.01em;}.cls-40{letter-spacing:0em;}.cls-41{fill:url(#linear-gradient-29);}.cls-42{fill:url(#linear-gradient-30);}.cls-43{fill:url(#linear-gradient-31);}.cls-44{fill:url(#linear-gradient-32);}.cls-45{fill:url(#linear-gradient-33);}.cls-46{fill:url(#linear-gradient-34);}.cls-47{fill:url(#linear-gradient-35);}.cls-48{fill:url(#linear-gradient-36);}.cls-49{fill:url(#linear-gradient-37);}.cls-50{fill:url(#linear-gradient-38);}.cls-51{fill:url(#linear-gradient-39);}.cls-52{fill:url(#linear-gradient-40);}.cls-53{fill:url(#linear-gradient-41);}.cls-54{fill:url(#linear-gradient-42);}.cls-55{fill:url(#linear-gradient-43);}.cls-56{fill:url(#linear-gradient-44);}.cls-57{fill:url(#linear-gradient-45);}.cls-58{fill:url(#linear-gradient-46);}.cls-59{fill:url(#linear-gradient-47);}.cls-60{fill:url(#linear-gradient-48);}.cls-61{fill:url(#linear-gradient-49);}.cls-62{fill:url(#linear-gradient-50);}.cls-63{fill:url(#linear-gradient-51);}.cls-64{fill:url(#linear-gradient-52);}.cls-65{fill:url(#linear-gradient-53);}.cls-66{fill:url(#linear-gradient-54);}.cls-67{fill:url(#linear-gradient-55);}.cls-68{fill:url(#linear-gradient-56);}.cls-69{fill:url(#linear-gradient-57);}.cls-70{fill:url(#linear-gradient-58);}.cls-71{fill:url(#linear-gradient-59);}.cls-72{fill:url(#linear-gradient-60);}.cls-73{fill:url(#linear-gradient-61);}.cls-74{fill:url(#linear-gradient-62);}.cls-75{fill:url(#linear-gradient-63);}.cls-76{fill:url(#linear-gradient-64);}.cls-77{fill:url(#linear-gradient-65);}.cls-78{fill:url(#linear-gradient-66);}.cls-79{fill:url(#linear-gradient-67);}.cls-80{fill:url(#linear-gradient-68);}.cls-81{fill:url(#linear-gradient-69);}.cls-82{fill:url(#linear-gradient-70);}.cls-83{fill:url(#linear-gradient-71);}.cls-84{fill:url(#linear-gradient-72);}.cls-85{fill:url(#linear-gradient-73);}.cls-86{fill:url(#linear-gradient-74);}.cls-87{fill:url(#linear-gradient-75);}.cls-88{fill:url(#linear-gradient-76);}.cls-89{fill:url(#linear-gradient-77);}.cls-90{opacity:0.8;}.cls-91{fill:url(#linear-gradient-78);}.cls-92{fill:url(#linear-gradient-79);}.cls-93{fill:url(#linear-gradient-80);}.cls-94{fill:url(#linear-gradient-81);}.cls-95{fill:url(#linear-gradient-82);}.cls-96{fill:url(#linear-gradient-83);}.cls-97{fill:url(#linear-gradient-84);}.cls-98{fill:url(#linear-gradient-85);}.cls-99{fill:url(#linear-gradient-86);}.cls-100{fill:url(#linear-gradient-87);}.cls-101{fill:url(#linear-gradient-88);}.cls-102{fill:url(#linear-gradient-89);}.cls-103{fill:url(#linear-gradient-90);}.cls-104{fill:url(#linear-gradient-91);}.cls-105{fill:url(#linear-gradient-92);}.cls-106{fill:url(#linear-gradient-93);}.cls-107{fill:url(#linear-gradient-94);}</style><linearGradient id="linear-gradient" x1="-85.23" y1="1621.98" x2="2131.39" y2="12.29" gradientUnits="userSpaceOnUse"><stop offset="0" stop-color="#dae3fe"/><stop offset="1" stop-color="#e9effd"/></linearGradient><linearGradient id="linear-gradient-2" x1="1288.23" y1="2053.87" x2="2187.79" y2="3131.41" gradientTransform="translate(1470.52 -2386.3) rotate(29.01)" gradientUnits="userSpaceOnUse"><stop offset="0" stop-color="#fe7062"/><stop offset="1" stop-color="#ff928e"/></linearGradient><linearGradient id="linear-gradient-3" x1="1407.93" y1="109.62" x2="1540.25" y2="109.62" gradientUnits="userSpaceOnUse"><stop offset="0" stop-color="#4042e2"/><stop offset="1" stop-color="#4f52ff"/></linearGradient><linearGradient id="linear-gradient-4" x1="1574.72" y1="699.87" x2="1508.72" y2="1079.87" xlink:href="#linear-gradient-3"/><linearGradient id="linear-gradient-5" x1="8075.86" y1="1328.58" x2="8009.86" y2="1708.58" gradientTransform="matrix(-1, 0, 0, 1, 10037.92, 0)" xlink:href="#linear-gradient-3"/><linearGradient id="linear-gradient-6" x1="1576.1" y1="700.11" x2="1510.1" y2="1080.11" xlink:href="#linear-gradient-3"/><linearGradient id="linear-gradient-7" x1="1813.63" y1="741.37" x2="1747.63" y2="1121.37" xlink:href="#linear-gradient-3"/><linearGradient id="linear-gradient-8" x1="1676.21" y1="1060.63" x2="1442.21" y2="1564.63" xlink:href="#linear-gradient-3"/><linearGradient id="linear-gradient-9" x1="1768.75" y1="507.44" x2="1736.75" y2="623.44" xlink:href="#linear-gradient-3"/><linearGradient id="linear-gradient-10" x1="1226.24" y1="-270.92" x2="826.25" y2="1733.08" gradientUnits="userSpaceOnUse"><stop offset="0" stop-color="#09005d"/><stop offset="1" stop-color="#1a0f91"/></linearGradient><linearGradient id="linear-gradient-11" x1="1020.92" y1="839.4" x2="1208.63" y2="-720.56" gradientTransform="matrix(1, 0, 0, 1, 0, 0)" xlink:href="#linear-gradient-2"/><linearGradient id="linear-gradient-12" x1="1042.47" y1="-272.2" x2="1045.47" y2="-167.19" xlink:href="#linear-gradient-10"/><linearGradient id="linear-gradient-13" x1="1085.67" y1="-167.17" x2="1505.67" y2="-535.17" xlink:href="#linear-gradient-3"/><linearGradient id="linear-gradient-14" x1="1173.22" y1="-67.26" x2="1593.22" y2="-435.26" xlink:href="#linear-gradient-3"/><linearGradient id="linear-gradient-15" x1="1261.29" y1="33.26" x2="1681.29" y2="-334.74" xlink:href="#linear-gradient-3"/><linearGradient id="linear-gradient-16" x1="1349.36" y1="133.78" x2="1769.36" y2="-234.22" xlink:href="#linear-gradient-3"/><linearGradient id="linear-gradient-17" x1="641.76" y1="209.71" x2="640.71" y2="464.98" xlink:href="#linear-gradient-3"/><linearGradient id="linear-gradient-18" x1="873.76" y1="209.71" x2="872.71" y2="464.97" xlink:href="#linear-gradient-3"/><linearGradient id="linear-gradient-19" x1="1108.26" y1="209.71" x2="1107.21" y2="464.98" xlink:href="#linear-gradient-3"/><linearGradient id="linear-gradient-20" x1="1341.76" y1="209.7" x2="1340.71" y2="464.99" xlink:href="#linear-gradient-3"/><linearGradient id="linear-gradient-21" x1="397.34" y1="1160.46" x2="247.43" y2="1703.12" xlink:href="#linear-gradient-3"/><linearGradient id="linear-gradient-22" x1="114.44" y1="1165.19" x2="644.59" y2="1165.19" xlink:href="#linear-gradient"/><linearGradient id="linear-gradient-23" x1="114.44" y1="1181.92" x2="644.59" y2="1181.92" xlink:href="#linear-gradient"/><linearGradient id="linear-gradient-24" x1="114.44" y1="1198.66" x2="644.59" y2="1198.66" xlink:href="#linear-gradient"/><linearGradient id="linear-gradient-25" x1="114.44" y1="1215.39" x2="644.59" y2="1215.39" xlink:href="#linear-gradient"/><linearGradient id="linear-gradient-26" x1="114.44" y1="1232.12" x2="644.59" y2="1232.12" xlink:href="#linear-gradient"/><linearGradient id="linear-gradient-27" x1="472.05" y1="199.21" x2="463.05" y2="499.24" xlink:href="#linear-gradient-3"/><linearGradient id="linear-gradient-28" x1="1020.17" y1="1043.39" x2="916.17" y2="1427.39" gradientUnits="userSpaceOnUse"><stop offset="0" stop-color="#e1473d"/><stop offset="1" stop-color="#e9605a"/></linearGradient><linearGradient id="linear-gradient-29" x1="1237.54" y1="1053.98" x2="1236.93" y2="1062.21" xlink:href="#linear-gradient-3"/><linearGradient id="linear-gradient-30" x1="1267.74" y1="1060.46" x2="1267.14" y2="1068.68" xlink:href="#linear-gradient-3"/><linearGradient id="linear-gradient-31" x1="1237.14" y1="1040.66" x2="1268.1" y2="1040.66" xlink:href="#linear-gradient"/><linearGradient id="linear-gradient-32" x1="1299.79" y1="839.42" x2="1301.29" y2="881.42" gradientUnits="userSpaceOnUse"><stop offset="0" stop-color="#ff928e"/><stop offset="1" stop-color="#feb3b1"/></linearGradient><linearGradient id="linear-gradient-33" x1="1466.86" y1="1073.53" x2="1490.91" y2="1073.53" xlink:href="#linear-gradient"/><linearGradient id="linear-gradient-34" x1="1422.91" y1="1071.85" x2="1439.4" y2="1094.36" gradientTransform="matrix(1, 0.08, -0.08, 1, 135.12, -101.85)" xlink:href="#linear-gradient-28"/><linearGradient id="linear-gradient-35" x1="1484.12" y1="1235.56" x2="1482.62" y2="1397.55" gradientTransform="matrix(1, 0.08, -0.08, 1, 135.12, -101.85)" xlink:href="#linear-gradient-10"/><linearGradient id="linear-gradient-36" x1="1331.23" y1="1454.51" x2="1377.54" y2="913.35" gradientTransform="matrix(1, 0.08, -0.08, 1, 135.12, -101.85)" xlink:href="#linear-gradient-32"/><linearGradient id="linear-gradient-37" x1="1344.59" y1="1234.27" x2="1343.09" y2="1396.26" gradientTransform="matrix(1, 0.08, -0.08, 1, 135.12, -101.85)" xlink:href="#linear-gradient-10"/><linearGradient id="linear-gradient-38" x1="1424.37" y1="1462.57" x2="1470.69" y2="921.26" gradientTransform="matrix(1, 0.08, -0.08, 1, 135.12, -101.85)" xlink:href="#linear-gradient-32"/><linearGradient id="linear-gradient-39" x1="1331.23" y1="909.87" x2="1483.93" y2="531.53" gradientTransform="matrix(1, 0.08, -0.08, 1, 135.12, -101.85)" xlink:href="#linear-gradient-3"/><linearGradient id="linear-gradient-40" x1="1319.27" y1="1613.04" x2="1299.85" y2="1839.56" gradientTransform="matrix(1, 0.08, -0.08, 1, 135.12, -101.85)" xlink:href="#linear-gradient-3"/><linearGradient id="linear-gradient-41" x1="1328.08" y1="898.19" x2="1321.82" y2="773.97" gradientTransform="matrix(1, 0.08, -0.08, 1, 135.12, -101.85)" xlink:href="#linear-gradient-32"/><linearGradient id="linear-gradient-42" x1="1493.26" y1="1134.44" x2="1533.78" y2="1134.44" xlink:href="#linear-gradient-28"/><linearGradient id="linear-gradient-43" x1="1458.55" y1="1079.72" x2="1483.97" y2="1079.72" xlink:href="#linear-gradient"/><linearGradient id="linear-gradient-44" x1="1400.95" y1="995.96" x2="1384.05" y2="822.11" gradientTransform="matrix(1, 0.08, -0.08, 1, 135.12, -101.85)" xlink:href="#linear-gradient-32"/><linearGradient id="linear-gradient-45" x1="1452.69" y1="1135.96" x2="1520.21" y2="1135.96" gradientTransform="matrix(1, 0, 0, 1, 0, 0)" xlink:href="#linear-gradient-2"/><linearGradient id="linear-gradient-46" x1="1932.12" y1="995.31" x2="1932.62" y2="1038.81" gradientTransform="matrix(1, 0.08, -0.08, 1, -335.4, -7.91)" xlink:href="#linear-gradient-32"/><linearGradient id="linear-gradient-47" x1="1950.26" y1="995.1" x2="1950.76" y2="1038.6" gradientTransform="matrix(1, 0.08, -0.08, 1, -335.4, -7.91)" xlink:href="#linear-gradient-32"/><linearGradient id="linear-gradient-48" x1="1420.17" y1="773.92" x2="1371.87" y2="829.66" xlink:href="#linear-gradient-32"/><linearGradient id="linear-gradient-49" x1="1427.96" y1="1228.12" x2="1303.05" y2="1358.08" gradientTransform="translate(253.93 -690.9) rotate(7.69)" xlink:href="#linear-gradient-28"/><linearGradient id="linear-gradient-50" x1="1435.39" y1="787.11" x2="1387.08" y2="842.85" xlink:href="#linear-gradient-32"/><linearGradient id="linear-gradient-51" x1="1481.2" y1="1279.28" x2="1356.28" y2="1409.24" gradientTransform="translate(253.93 -690.9) rotate(7.69)" xlink:href="#linear-gradient-28"/><linearGradient id="linear-gradient-52" x1="2132.33" y1="128.15" x2="1981.37" y2="477.93" xlink:href="#linear-gradient-3"/><linearGradient id="linear-gradient-53" x1="2139.39" y1="131.2" x2="1988.43" y2="480.98" xlink:href="#linear-gradient-3"/><linearGradient id="linear-gradient-54" x1="2157.48" y1="139" x2="2006.52" y2="488.79" xlink:href="#linear-gradient-3"/><linearGradient id="linear-gradient-55" x1="2167.28" y1="143.23" x2="2016.32" y2="493.01" xlink:href="#linear-gradient-3"/><linearGradient id="linear-gradient-56" x1="2205.37" y1="159.67" x2="2054.41" y2="509.46" xlink:href="#linear-gradient-3"/><linearGradient id="linear-gradient-57" x1="2260.57" y1="183.49" x2="2109.61" y2="533.28" xlink:href="#linear-gradient-3"/><linearGradient id="linear-gradient-58" x1="2267.05" y1="186.29" x2="2116.09" y2="536.08" xlink:href="#linear-gradient-3"/><linearGradient id="linear-gradient-59" x1="2300.73" y1="200.82" x2="2149.77" y2="550.61" xlink:href="#linear-gradient-3"/><linearGradient id="linear-gradient-60" x1="2345.9" y1="220.32" x2="2194.94" y2="570.1" xlink:href="#linear-gradient-3"/><linearGradient id="linear-gradient-61" x1="2355.52" y1="224.47" x2="2204.56" y2="574.26" xlink:href="#linear-gradient-3"/><linearGradient id="linear-gradient-62" x1="2305.99" y1="203.1" x2="2155.03" y2="552.88" xlink:href="#linear-gradient-3"/><linearGradient id="linear-gradient-63" x1="2353.37" y1="223.55" x2="2202.41" y2="573.33" xlink:href="#linear-gradient-3"/><linearGradient id="linear-gradient-64" x1="2273.6" y1="189.12" x2="2122.64" y2="538.9" xlink:href="#linear-gradient-3"/><linearGradient id="linear-gradient-65" x1="2269.35" y1="187.28" x2="2118.39" y2="537.07" xlink:href="#linear-gradient-3"/><linearGradient id="linear-gradient-66" x1="2276.55" y1="190.39" x2="2125.59" y2="540.17" xlink:href="#linear-gradient-3"/><linearGradient id="linear-gradient-67" x1="2349.37" y1="221.82" x2="2198.41" y2="571.6" xlink:href="#linear-gradient-3"/><linearGradient id="linear-gradient-68" x1="2191.21" y1="153.56" x2="2040.25" y2="503.34" xlink:href="#linear-gradient-3"/><linearGradient id="linear-gradient-69" x1="2198.84" y1="156.85" x2="2047.88" y2="506.64" xlink:href="#linear-gradient-3"/><linearGradient id="linear-gradient-70" x1="2200.13" y1="157.41" x2="2049.17" y2="507.19" xlink:href="#linear-gradient-3"/><linearGradient id="linear-gradient-71" x1="2217.01" y1="164.69" x2="2066.05" y2="514.48" xlink:href="#linear-gradient-3"/><linearGradient id="linear-gradient-72" x1="2228.34" y1="169.58" x2="2077.38" y2="519.37" xlink:href="#linear-gradient-3"/><linearGradient id="linear-gradient-73" x1="2261.19" y1="183.76" x2="2110.23" y2="533.54" xlink:href="#linear-gradient-3"/><linearGradient id="linear-gradient-74" x1="2268.67" y1="186.99" x2="2117.71" y2="536.77" xlink:href="#linear-gradient-3"/><linearGradient id="linear-gradient-75" x1="2312.79" y1="206.03" x2="2161.84" y2="555.82" xlink:href="#linear-gradient-3"/><linearGradient id="linear-gradient-76" x1="1884.26" y1="1407.58" x2="1748.26" y2="1787.58" xlink:href="#linear-gradient-3"/><linearGradient id="linear-gradient-77" x1="145.77" y1="384.41" x2="273.48" y2="384.41" xlink:href="#linear-gradient"/><linearGradient id="linear-gradient-78" x1="285.24" y1="985.27" x2="327.06" y2="985.27" xlink:href="#linear-gradient-10"/><linearGradient id="linear-gradient-79" x1="289.48" y1="965.84" x2="306.44" y2="965.84" xlink:href="#linear-gradient-32"/><linearGradient id="linear-gradient-80" x1="374.17" y1="984.6" x2="439.79" y2="984.6" xlink:href="#linear-gradient-10"/><linearGradient id="linear-gradient-81" x1="375.17" y1="958.31" x2="392.04" y2="958.31" xlink:href="#linear-gradient-32"/><linearGradient id="linear-gradient-82" x1="430.52" y1="550.91" x2="384.52" y2="682.91" xlink:href="#linear-gradient-10"/><linearGradient id="linear-gradient-83" x1="362.12" y1="647.85" x2="209.13" y2="910.33" gradientUnits="userSpaceOnUse"><stop offset="0" stop-color="#020039"/><stop offset="1" stop-color="#090056"/></linearGradient><linearGradient id="linear-gradient-84" x1="469.43" y1="334.75" x2="435.12" y2="524.49" xlink:href="#linear-gradient-28"/><linearGradient id="linear-gradient-85" x1="488.03" y1="464.4" x2="550.71" y2="464.4" xlink:href="#linear-gradient-32"/><linearGradient id="linear-gradient-86" x1="418.24" y1="562.28" x2="383.92" y2="887.26" gradientTransform="matrix(1, 0, 0, 1, 0, 0)" xlink:href="#linear-gradient-2"/><linearGradient id="linear-gradient-87" x1="629.97" y1="478.07" x2="494.52" y2="646.58" xlink:href="#linear-gradient-32"/><linearGradient id="linear-gradient-88" x1="655.65" y1="498.71" x2="520.2" y2="667.23" xlink:href="#linear-gradient-32"/><linearGradient id="linear-gradient-89" x1="477.59" y1="376.23" x2="346.4" y2="617.27" xlink:href="#linear-gradient-32"/><linearGradient id="linear-gradient-90" x1="115.93" y1="3153.86" x2="57.96" y2="3230.56" gradientTransform="translate(-1477.31 -2089.21) rotate(-35.22)" xlink:href="#linear-gradient-32"/><linearGradient id="linear-gradient-91" x1="453.79" y1="355.29" x2="413.29" y2="518.78" xlink:href="#linear-gradient-10"/><linearGradient id="linear-gradient-92" x1="31.02" y1="3214.6" x2="77.52" y2="3166.89" gradientTransform="translate(-1477.31 -2089.21) rotate(-35.22)" xlink:href="#linear-gradient-32"/><linearGradient id="linear-gradient-93" x1="728.77" y1="626.01" x2="728.77" y2="1527.81" xlink:href="#linear-gradient-3"/><linearGradient id="linear-gradient-94" x1="778.85" y1="136.39" x2="752.85" y2="280.39" xlink:href="#linear-gradient-10"/></defs><title>Asset 1</title><g id="Layer_2" data-name="Layer 2"><g id="Illustration"><path class="cls-1" d="M2169.05,579.44c-58.58-79.1-182.74-121.48-186-240-2.09-77,34.06-118.77-23.79-184.52C1819.44-4,1603.92-22.67,1419.9,43.73s-331,199.42-535.48,191.4C773,230.76,669.56,179.65,559.31,170.06c-34-3-65.7-.42-95.37,6.93C352.69,204.55,254.46,308,217.47,423c-30,93.2,8.32,185.2-38.75,276.46C128.53,796.74,29.71,864.3,4.81,976.6c-29.88,134.79,84.29,252,206.94,255.67,78.06,2.34,222.76-9.72,289.08-56.3,80.75-56.72,160.12-60.45,254.25-58.27,179.16,4.13,358.31,43.12,535.15,70.87,151.53,23.79,300.89,59,454.46,63.48,112.78,3.29,208.5,4.76,269.53-113.7C2087.16,996.76,2291.93,745.35,2169.05,579.44Z"/><path class="cls-2" d="M448.52,832.18a1.53,1.53,0,0,1-.47-.07l-8.22-2.55a1.59,1.59,0,0,1-1.12-1.47l-.21-6.63a32.34,32.34,0,0,1-7.2-6l-6.55,1a1.58,1.58,0,0,1-1.65-.83l-4-7.62a1.59,1.59,0,0,1,.24-1.83l4.54-4.83a32.45,32.45,0,0,1-.86-9.32l-5.35-3.93a1.59,1.59,0,0,1-.57-1.75l2.55-8.23A1.59,1.59,0,0,1,421.1,777l6.64-.21a31.59,31.59,0,0,1,6-7.2l-1-6.55a1.59,1.59,0,0,1,.82-1.65l7.63-4a1.61,1.61,0,0,1,1.83.25l4.83,4.54a32.1,32.1,0,0,1,9.32-.86l3.92-5.35a1.58,1.58,0,0,1,1.75-.57L471,758a1.59,1.59,0,0,1,1.12,1.47l.21,6.62a32.56,32.56,0,0,1,7.2,6l6.55-1a1.58,1.58,0,0,1,1.65.83l4,7.62a1.58,1.58,0,0,1-.25,1.83L487,786.15a32.1,32.1,0,0,1,.86,9.32l5.35,3.92a1.59,1.59,0,0,1,.58,1.75l-2.55,8.23a1.59,1.59,0,0,1-1.47,1.12l-6.63.21a32.56,32.56,0,0,1-6,7.2l1,6.55a1.6,1.6,0,0,1-.83,1.65l-7.62,4a1.58,1.58,0,0,1-1.83-.25l-4.83-4.54a32.1,32.1,0,0,1-9.32.86l-3.93,5.35A1.59,1.59,0,0,1,448.52,832.18Zm-7.82-4.45,7.66,2.38,4.4-6,.55,0a30.29,30.29,0,0,0,9.77-.9l.53-.14L469,828.2l7.11-3.74L475,817.11l.41-.36a29.94,29.94,0,0,0,6.27-7.54l.28-.48,7.43-.23,2.38-7.67-6-4.4,0-.55a30.06,30.06,0,0,0-.9-9.77l-.14-.53,5.09-5.42-3.74-7.1-7.34,1.13-.37-.42a30.36,30.36,0,0,0-7.54-6.27l-.48-.27-.23-7.44-7.67-2.38-4.4,6-.55,0a30.31,30.31,0,0,0-9.77.9l-.53.14-5.42-5.09-7.1,3.74,1.13,7.35-.42.36a30.34,30.34,0,0,0-6.26,7.55l-.28.47-7.44.23-2.38,7.67,6,4.4,0,.55a30.31,30.31,0,0,0,.9,9.77l.14.53L421,807.36l3.74,7.11,7.35-1.13.36.41A30.16,30.16,0,0,0,440,820l.47.28ZM486.42,773Zm-44.33-13.83Zm13.19,56.33a21.76,21.76,0,1,1,21-27.63,1,1,0,0,1-1.93.54,20.24,20.24,0,0,0-1.55-3.92,19.78,19.78,0,1,0-.61,19.51,1,1,0,0,1,1.71,1,21.85,21.85,0,0,1-18.58,10.46Z"/><path class="cls-2" d="M455.44,802.41H455a8.74,8.74,0,1,1,.47,0Zm0-15.3a6.65,6.65,0,1,0,4.46,11.6,6.65,6.65,0,0,0-4.09-11.59Z"/><path class="cls-2" d="M559.14,793.76a2.71,2.71,0,0,1-2.49-1.67l-5.19-12.61a64,64,0,0,1-18.19-6.32l-11.9,6.69a2.69,2.69,0,0,1-3.1-.34L505.3,768a2.69,2.69,0,0,1-.69-3l5.25-12.6A64.31,64.31,0,0,1,501.45,735l-13.13-3.69a2.69,2.69,0,0,1-2-2.43l-1-17.32a2.68,2.68,0,0,1,1.66-2.64l12.61-5.2a64.24,64.24,0,0,1,6.32-18.19l-6.68-11.89a2.69,2.69,0,0,1,.33-3.11l11.53-13a2.69,2.69,0,0,1,3-.7l12.6,5.25a64.52,64.52,0,0,1,17.33-8.41l3.68-13.12a2.69,2.69,0,0,1,2.43-2l17.32-1a2.68,2.68,0,0,1,2.65,1.67l5.19,12.6a64.55,64.55,0,0,1,18.19,6.32l11.89-6.68a2.71,2.71,0,0,1,3.11.33l13,11.53a2.69,2.69,0,0,1,.7,3L617,679a64.22,64.22,0,0,1,8.41,17.33l13.13,3.68a2.68,2.68,0,0,1,2,2.43l1,17.33a2.69,2.69,0,0,1-1.66,2.64l-12.61,5.19a64.34,64.34,0,0,1-6.32,18.19l6.68,11.9a2.69,2.69,0,0,1-.33,3.1l-11.53,13a2.69,2.69,0,0,1-3.05.69l-12.59-5.25a64.22,64.22,0,0,1-17.33,8.41l-3.68,13.13a2.7,2.7,0,0,1-2.43,2l-17.32,1Zm-25.9-24,.73.39a61.6,61.6,0,0,0,18.82,6.55l.82.14,5.73,13.92,16.88-1,4.07-14.5.79-.23a61.43,61.43,0,0,0,17.93-8.7l.68-.48,13.91,5.8L624.84,759l-7.38-13.14.39-.72a61.47,61.47,0,0,0,6.54-18.83l.14-.81,13.93-5.74-1-16.88L623,698.81l-.24-.79A61.41,61.41,0,0,0,614,680.09l-.48-.68,5.79-13.91-12.63-11.24-13.14,7.39-.73-.4A61.41,61.41,0,0,0,574,654.71l-.82-.14-5.73-13.93-16.88,1-4.07,14.5-.8.24a61.31,61.31,0,0,0-17.93,8.7l-.67.47-13.92-5.79L502,672.38l7.38,13.14-.39.73a61.32,61.32,0,0,0-6.54,18.82l-.15.82-13.92,5.73,1,16.88,14.5,4.07.23.8a61.68,61.68,0,0,0,8.7,17.93l.48.67-5.8,13.92,12.64,11.23Zm104.44-66.8h0Zm-74.62,55.9a43.37,43.37,0,1,1,43.35-45.91,43.64,43.64,0,0,1-.44,9.22,1.5,1.5,0,1,1-3-.46,40.34,40.34,0,1,0-17.17,27.16,1.49,1.49,0,1,1,1.68,2.47,43.37,43.37,0,0,1-21.87,7.45C564.79,758.82,563.92,758.84,563.06,758.84Z"/><path class="cls-2" d="M563.42,732.6a16.91,16.91,0,1,1,15-9.11,16.94,16.94,0,0,1-15,9.11Zm0-30.82a13.92,13.92,0,1,0,13.27,9.73A13.85,13.85,0,0,0,563.4,701.78Z"/><path class="cls-3" d="M1880.26,511.79a18.18,18.18,0,0,0-2-14.15c-38-63.44-174.08-290.56-178.41-293-5-2.79-165.78-113.28-165.78-113.28-29.62-20.34-35.59,3.29-35.59,3.29L1469.1,333.27l179.22,291.36a18.19,18.19,0,0,0,24.19,6.46L1871.39,523A18.23,18.23,0,0,0,1880.26,511.79ZM1526,177.32a25.89,25.89,0,1,1,35.2-10.09A25.89,25.89,0,0,1,1526,177.32Z"/><g class="cls-4"><path class="cls-5" d="M1625.8,375.08c23.65,32.06,21.77,58.37,6.44,69.69-15.68,11.57-40.52,4.59-62.27-24.52-21.23-28.78-23-56.76-5.74-69.47C1582,337.69,1605.61,347.71,1625.8,375.08Zm53.9,133.3-51-205.15,12.06-8.9,51,205.15Zm-94.22-101c12.78,17.68,26.92,27.11,35.36,20.88s3.61-21.44-10-39.93c-12.43-16.84-25.88-27.87-35-21.13C1567.18,373.53,1572.88,390.28,1585.48,407.36ZM1749.6,381.3c23.48,31.82,22,58.24,6.44,69.68s-40.52,4.6-62.26-24.88c-21.06-28.54-23-56.75-5.92-69.34C1705.61,343.67,1729.41,353.93,1749.6,381.3Zm-40.32,32.28c12.6,17.44,26.92,27.11,35.37,20.88,8.61-6.36,3.6-21.45-10-39.93-12.6-17.08-25.88-27.87-35-21.14C1691,379.75,1696.68,396.5,1709.28,413.58Z"/></g><path class="cls-6" d="M1529.47,160.53a10.81,10.81,0,0,1-10-6.62h0c-1-2.5-26.75-61.33-102.54-73.75a10.79,10.79,0,0,1,3.49-21.3c88,14.42,117.74,83.79,119,86.74a10.79,10.79,0,0,1-10,14.93Z"/><polygon class="cls-7" points="1697.39 689.89 1459.25 640.08 1484.16 672.88 1439.2 710.55 1702.25 735.15 1697.39 689.89"/><polygon class="cls-8" points="1730.19 689.89 1968.33 640.08 1943.43 672.88 1988.38 710.55 1725.33 735.15 1730.19 689.89"/><path class="cls-9" d="M1531,559.49a23.13,23.13,0,0,1,17.72-3.24l42,9.32a21.72,21.72,0,0,1,13.45,9.28l88.11,133.88,15.49-14.58-91.55-160.41a41.94,41.94,0,0,0-34.45-21.11l-38-1.8a64.85,64.85,0,0,0-62.53,38.88l-14.3,32.84a32.19,32.19,0,0,0,15.8,42l190.41,89.65,7.29-6.37-147.07-102.9A30.21,30.21,0,0,1,1521,574.47,23.18,23.18,0,0,1,1531,559.49Z"/><path class="cls-10" d="M1885.13,559.49a23.12,23.12,0,0,0-17.72-3.24l-42,9.32a21.74,21.74,0,0,0-13.45,9.28l-88.1,133.88-15.49-14.58L1800,533.74a42,42,0,0,1,34.45-21.11l38-1.8a64.84,64.84,0,0,1,62.53,38.88l14.31,32.84a32.2,32.2,0,0,1-15.81,42L1743,714.19l-7.29-6.37,147.08-102.9a30.22,30.22,0,0,0,12.34-30.45A23.14,23.14,0,0,0,1885.13,559.49Z"/><path class="cls-11" d="M1442.54,753.36l22.68,474.2a22.06,22.06,0,0,0,22.09,20.8h440.81a22.06,22.06,0,0,0,22.09-20.8l22.68-474.2Z"/><rect class="cls-12" x="1654.47" y="740.36" width="105" height="508"/><rect class="cls-2" x="1412.47" y="699.36" width="592" height="72" rx="10.19"/><rect class="cls-13" x="1654.47" y="693.36" width="105" height="76"/><path class="cls-14" d="M1427.82,1244.66c-.26,25.27-22,45.76-48.51,45.82l-641.5,1.4c-26.73.06-48.92-20.42-49.55-45.8L658.37,51.25A49.65,49.65,0,0,1,708.47,0l680.94,3.26a50.8,50.8,0,0,1,50.47,51.51Z"/><path class="cls-15" d="M1370,123.73c.19-27.3-22.21-49.58-50-49.7L779.5,71.65c-28-.12-50.22,22-49.62,49.43L752.1,1137c.55,24.88,22.55,45,49.15,44.93l513.46-.81c26.44,0,48-20.14,48.18-44.94Z"/><path class="cls-16" d="M1131.16,35.37a9.46,9.46,0,0,1-9.51,9.54L981,44.28a9.78,9.78,0,0,1-9.68-9.65h0a9.4,9.4,0,0,1,9.46-9.56l140.81.65a9.67,9.67,0,0,1,9.57,9.65Z"/><path class="cls-17" d="M710,72.36a10.26,10.26,0,0,0-8.67,4.77c-39.55,62.41-79.1,125.23-118.65,187.23h116.6c30.42-62,60.84-127,91.26-192Z"/><path class="cls-2" d="M815.9,264.08H699.29l91.26-192h86.19Z"/><path class="cls-18" d="M932.51,264.08H815.9l60.84-192h86.19Z"/><path class="cls-2" d="M1049.12,264.08H932.51l30.42-192h86.19Z"/><path class="cls-19" d="M1165.72,264.08h-116.6v-192h86.19Q1150.51,168.07,1165.72,264.08Z"/><path class="cls-2" d="M1282.33,264.08H1165.72q-15.2-96-30.41-192h86.18Z"/><path class="cls-20" d="M1398.94,264.08H1282.33l-60.84-192h86.19Z"/><path class="cls-2" d="M1396.89,77.13a10.25,10.25,0,0,0-8.66-4.77h-80.55c30.42,65,60.84,130,91.26,192h116.61C1476,202.36,1436.44,139.54,1396.89,77.13Z"/><path class="cls-21" d="M582.47,264.36V295.9c0,27.7,26.68,48.46,58.8,48.46h1.25c32.11,0,58-20.76,58-48.46V264.36Z"/><path class="cls-22" d="M700.47,264.36V295.9c0,27.7,24.74,48.46,56.32,48.46H758c31.58,0,56.46-20.76,56.46-48.46V264.36Z"/><path class="cls-23" d="M814.47,264.36V295.9c0,27.7,27.68,48.46,59.8,48.46h1.25c32.11,0,57-20.76,57-48.46V264.36Z"/><path class="cls-22" d="M932.47,264.36V295.9c0,27.7,25.74,48.46,57.31,48.46H991c31.58,0,58.46-20.76,58.46-48.46V264.36Z"/><path class="cls-24" d="M1049.47,264.36V295.9c0,27.7,25.68,48.46,57.8,48.46h1.25c32.11,0,58-20.76,58-48.46V264.36Z"/><path class="cls-22" d="M1166.47,264.36V295.9c0,27.7,24.74,48.46,56.31,48.46H1224c31.58,0,58.46-20.76,58.46-48.46V264.36Z"/><path class="cls-25" d="M1282.47,264.36V295.9c0,27.7,25.68,48.46,57.79,48.46h1.25c32.12,0,59-20.76,59-48.46V264.36Z"/><path class="cls-22" d="M1400.47,264.36V295.9c0,27.7,23.74,48.46,55.31,48.46H1457c31.57,0,57.46-20.76,57.46-48.46V264.36Z"/><path class="cls-2" d="M95.94,1254.79H659.21V1142.06H95.94C108,1142.06,108,1254.79,95.94,1254.79Z"/><path class="cls-26" d="M659.21,1226.58V1175c0-18.19-11.13-32.93-24.86-32.93H79.76a1,1,0,0,1-1-1v-23.5a1,1,0,0,1,1-1H670.55c13.43,0,34.76,21.13,34.76,47.18v72.06c0,24.57-20.7,44.49-33.37,44.49H79.76a1,1,0,0,1-1-1v-23.5a1,1,0,0,1,1-1H637.91C649.68,1254.79,659.21,1242.16,659.21,1226.58Z"/><path class="cls-27" d="M643.59,1166.19H115.44a1,1,0,0,1,0-2H643.59a1,1,0,1,1,0,2Z"/><path class="cls-28" d="M643.59,1182.92H115.44a1,1,0,0,1,0-2H643.59a1,1,0,1,1,0,2Z"/><path class="cls-29" d="M643.59,1199.66H115.44a1,1,0,0,1,0-2H643.59a1,1,0,0,1,0,2Z"/><path class="cls-30" d="M643.59,1216.39H115.44a1,1,0,0,1,0-2H643.59a1,1,0,0,1,0,2Z"/><path class="cls-31" d="M643.59,1233.12H115.44a1,1,0,0,1,0-2H643.59a1,1,0,1,1,0,2Z"/><rect class="cls-32" x="218.85" y="1001.08" width="454.98" height="109.83" rx="15.47"/><rect class="cls-11" x="270.27" y="1013.7" width="53.45" height="84.58"/><rect class="cls-11" x="331.58" y="1013.7" width="20.06" height="84.58"/><path class="cls-33" d="M1236.47,933.36a70,70,0,0,1-70,70h-233a70,70,0,0,1-70-70h0a70,70,0,0,1,70-70h233a70,70,0,0,1,70,70Z"/><text class="cls-34" transform="translate(953.55 927.81)"><tspan class="cls-35">W</tspan><tspan class="cls-36" x="30.28" y="0">hi</tspan><tspan class="cls-37" x="58.68" y="0">t</tspan><tspan x="70.38" y="0">e Lable</tspan></text><text class="cls-34" transform="translate(942.77 969.79)"><tspan class="cls-38">Y</tspan><tspan class="cls-36" x="16.74" y="0">our </tspan><tspan class="cls-39" x="75.74" y="0">O</tspan><tspan x="101.05" y="0">wn B</tspan><tspan class="cls-35" x="174.67" y="0">r</tspan><tspan class="cls-40" x="186.26" y="0">and</tspan></text><path class="cls-22" d="M731.84,1240.37s-86.4,95.24-158.55,55c-58-32.35,24.4-23.9,94.28-39.19,5.48-1.19,4-9.39-1.52-8.65-54.67,7.24-138.11,13.17-152.6-15.34-21.87-43-.66-29.08,65.92-22.86s79.41-10.23,36-20.47-112.59,12.41-128.7-8.65-24.91-62.86-31.33-80.84,82.88-44.95,107-21.35,43.75,76.28,72.4,85.9-2.17-37-21.17-61S587,1061,625,1066.68s58,52.07,62,86.65,17.38,53.93,16.77,36.82-6.81-69.58-19-85.35S759.3,1108.27,731.84,1240.37Z"/><path class="cls-2" d="M724.81,1241.28a1.15,1.15,0,0,1-1.16-.21c-74.15-64.88-198.53-112-199.77-112.5a1.13,1.13,0,1,1,.8-2.12c1.25.46,126,47.76,200.47,112.91a1.14,1.14,0,0,1,.11,1.6A1.25,1.25,0,0,1,724.81,1241.28Z"/><path class="cls-2" d="M784,1301.2s-157.78,5.2-183.93-92.8c-21-78.76,41.91,1.1,115.09,49.65,5.74,3.81,11.74-4.46,6.33-8.74-53.1-42-129.6-110.5-116.84-147.63,19.25-56,25.07-25.43,76.47,38.58s76.85,61.27,48.75,14.21-107.13-88.66-102.32-120.85,34.14-75.66,44.5-96.68S782.49,971.6,782.3,1013s-29.87,103.74-13.88,137.21,30.75-33.51,35.72-70.8,14.3-59.21,41.67-20.85,3.67,95.64-23.4,128.71-32.7,61.39-18.13,46.24,55.52-65.45,59.06-89.62S923.91,1212.56,784,1301.2Z"/><path class="cls-11" d="M777.19,1295.78a1.4,1.4,0,0,1-.8-1.2c-6.16-120.79-70.84-270.73-71.5-272.23a1.4,1.4,0,0,1,2.56-1.11c.65,1.51,65.54,151.89,71.72,273.2a1.4,1.4,0,0,1-1.32,1.47A1.44,1.44,0,0,1,777.19,1295.78Z"/><path class="cls-2" d="M1285.08,1058l-61.25-11.25a1.67,1.67,0,0,0-1.94,1.27l-21.34,92.51a1.67,1.67,0,0,0,.24,1.32,1.7,1.7,0,0,0,1.14.71l82.58,12.29a1.72,1.72,0,0,0,1.36-.39,1.69,1.69,0,0,0,.6-1.27v-93.55A1.69,1.69,0,0,0,1285.08,1058Z"/><path class="cls-41" d="M1239.71,1054.26a2.19,2.19,0,1,1-2.19-2.19A2.19,2.19,0,0,1,1239.71,1054.26Z"/><path class="cls-42" d="M1269.91,1060.73a2.19,2.19,0,1,1-2.19-2.19A2.19,2.19,0,0,1,1269.91,1060.73Z"/><path class="cls-43" d="M1267.72,1061.11h0a.38.38,0,0,1-.37-.38c0-.38-.1-38.72-9.55-39.75a3,3,0,0,0-.43,0c-9.23,0-19.2,31.57-19.48,33.34a.35.35,0,0,1-.37.35.39.39,0,0,1-.38-.39c0-.79,7.31-24.49,15.52-31.85,1.81-1.63,3.56-2.36,5.23-2.18,10.1,1.11,10.21,38.89,10.21,40.5A.38.38,0,0,1,1267.72,1061.11Z"/><path class="cls-44" d="M1351.18,908.45s-33.52,76.49-81.18,88.33c-9.22,1.79-20.06,1-24.9,4-5.51,3.42,1.19,12.64,3.87,19.64s3.72,3.71,4.91,1.48-3.82-9.27,2.72-12,4.57,1.49,1.49,5.16a14.25,14.25,0,0,0-2.78,9.62c.2.3,5.16-2.18,9.82-4.36,4-1.88,6.24-7,6.8-8.45,9.44-1.1,68.5-10.39,93.6-72.49C1365.53,939.35,1368,877.69,1351.18,908.45Z"/><path class="cls-45" d="M1490.54,1089.24a.38.38,0,0,1-.37-.31c0-.26-4.07-25.27-11.85-29.7a4.47,4.47,0,0,0-4.08-.3c-10.56,4.2-5.26,27.91-5.21,28.15a.37.37,0,1,1-.73.17c-.23-1-5.49-24.58,5.66-29a5.24,5.24,0,0,1,4.73.35c8.1,4.61,12.06,29.18,12.22,30.23a.39.39,0,0,1-.31.43Z"/><polygon class="cls-46" points="1501.11 1087.12 1461.53 1083.46 1452.72 1088.35 1460.27 1097.79 1496.42 1094.11 1501.11 1087.12"/><path class="cls-47" d="M1495.39,1328.11l.65,15.15a6.22,6.22,0,0,0,5,5.84,96.5,96.5,0,0,0,20,1.88,5.32,5.32,0,0,0,5-6.53c-1.39-5.94-4.08-14.89-8.54-20.39l-16.64-1.29A5.13,5.13,0,0,0,1495.39,1328.11Z"/><path class="cls-48" d="M1378.76,1142.24l-4.09,16.3s2,96,.68,134.24a30,30,0,0,1-5.75,16.62l-18.42,25.28,43.47-21.28,1.23-5-6.08-9.88,17.24-106a32.9,32.9,0,0,0-2.32-18.4l-7.34-16.82Z"/><path class="cls-49" d="M1348.14,1338.32l13.27,1a8,8,0,0,0,6.58-2.61c4.55-5,13.93-14.87,18-14.82,5.55.06,3.31,19.61,3.31,19.61l3.09.24,5.82-24a14.47,14.47,0,0,0-6.39-15.67h0s-2,9.23-9.15,12.82-29.29,16.72-29.29,16.72a18.92,18.92,0,0,0-5.4-.28C1343.79,1331.74,1343.89,1338,1348.14,1338.32Z"/><path class="cls-50" d="M1435.08,1154.53s47,108.81,53.84,133.35,8.42,44.69,8.39,46.59c0,3,3.4,6.07,13.49,6.85,5.22.41,7.93-1.48,9.34-3.4a5.94,5.94,0,0,0,.67-5.69c-2.69-6.7-11.2-28.1-14.21-37.74-3.6-11.51-9.28-62.85-13.18-80.84s-8.39-37.55-30-56.91C1463.43,1156.74,1448.86,1140.06,1435.08,1154.53Z"/><path class="cls-51" d="M1413.63,980.56c-9.52-61.33,29.14-92.58,29.14-92.58-11.55-13-29-22.77-42.42-29a34,34,0,0,0-36.48,5.11c-11.1,9.59-23.18,23.18-21.56,35.89,1.71,13.46,21.57,81.51,21.57,81.51S1386.16,994.28,1413.63,980.56Z"/><path class="cls-52" d="M1442.81,1012.84c-4.42-17.88-29.18-32.28-29.18-32.28-27.47,13.72-49.75,1-49.75,1s-6.73,19.43-4.59,38.14,15.38,138.88,15.38,138.88c34.83,9.94,90.39-.21,90.39-.21C1445.64,1116.55,1447.24,1030.71,1442.81,1012.84Z"/><path class="cls-53" d="M1398.31,821.1l7.51,52.81c.75,4.66-3.36,3.58-7.92,2.35-7.45-2-17-5.72-19.78-11.86a5.53,5.53,0,0,1-.44-2L1375.52,826a6.49,6.49,0,0,1,4.31-6.5l9.92-3.5A6.48,6.48,0,0,1,1398.31,821.1Z"/><polygon class="cls-54" points="1520.21 1181.77 1533.78 1173.97 1501.11 1087.12 1493.26 1092.41 1520.21 1181.77"/><path class="cls-55" d="M1483.37,1098.36h0c-.2,0-.36,0-.34-.24s1.78-25.5-5.47-33.8a6.93,6.93,0,0,0-4.93-2.52,6.71,6.71,0,0,0-5,2c-7.82,7.29-8.28,32.39-8.28,32.64a.35.35,0,0,1-.38.37.37.37,0,0,1-.37-.37c0-1.05.46-25.66,8.52-33.17a7.29,7.29,0,0,1,5.57-2.14,7.67,7.67,0,0,1,5.45,2.82c7.58,8.66,5.68,34,5.66,34.27S1483.57,1098.36,1483.37,1098.36Z"/><path class="cls-56" d="M1423.84,911.86c1.94,2.58,31.35,37.56,39.77,76.61s5.59,65.11,5.59,65.11-8.55,6.38-5.48,10.91,2.27,7.6,6.2,8.48,8.81,2.12,8.21-5.65,8.67-9.32,7.13-14,9-130.68-41.77-164.85l-.72-.48C1421.33,895.73,1420.72,907.73,1423.84,911.86Z"/><polygon class="cls-57" points="1452.69 1088.63 1493.26 1092.41 1520.21 1181.77 1461.96 1183.29 1452.69 1088.63"/><path class="cls-58" d="M1521,1180.37l-.13,0a.54.54,0,0,1-.39-.66l2.61-9.93L1502.56,1106a.54.54,0,0,1,1-.33l20.59,63.9a.55.55,0,0,1,0,.31l-2.64,10.08A.56.56,0,0,1,1521,1180.37Z"/><path class="cls-59" d="M1532.8,1174.14a.46.46,0,0,1-.23-.05l-7-3.36a.54.54,0,0,1,.46-1l7,3.36a.54.54,0,0,1,.25.72A.53.53,0,0,1,1532.8,1174.14Z"/><path class="cls-60" d="M1390,779.22s-16.06,4.37-29.36,24.93-7,31.75,2.55,34.45,24,4.45,41.28-7.67S1410.78,774.28,1390,779.22Z"/><path class="cls-61" d="M1395.75,817.82s15.8-30.59-12.63-34.81l-7.34,3.78s-8-19.23,10.26-25.42,42.88,4.84,47.06,28.94-2.11,38.45-15.75,47.87-16.95-3.8-16.95-3.8,8-9.45,6.06-15.35-9,0-9,0Z"/><path class="cls-62" d="M1398.46,821.83s8-15.77,14.88-8.14-8.35,14.44-14.22,16.52Z"/><path class="cls-63" d="M1419.44,785.61s55.23-17,64.32,40.62,15.37,76.07,29.06,66.13c0,0-2.25,21.52-28.55,11.9C1416,879.3,1457.56,799.35,1419.44,785.61Z"/><path class="cls-64" d="M1937.3,838.24c-15.67-37.36-72.47-150.64-172.94-115.66a1.54,1.54,0,0,0,.24,3c22.15,4.1,104.24,24.84,170.07,114.18A1.52,1.52,0,0,0,1937.3,838.24Z"/><path class="cls-65" d="M1936.44,840.58c-22.58-21.29-89.84-103.65-179.15-66a1,1,0,0,0,.27,2c22.08,2.33,131.67,16.21,178.45,65.83C1937.25,843.7,1937.76,841.82,1936.44,840.58Z"/><path class="cls-66" d="M1934.32,831.23c-2.14-28.16-14.73-134.49-83.21-156.43a.55.55,0,0,0-.62.84c8.25,11.64,68.28,97.61,82.76,155.76A.54.54,0,0,0,1934.32,831.23Z"/><path class="cls-67" d="M1939.7,852.48a.59.59,0,0,0,.7-.93c-12.09-12-62.18-56.34-125.77-34.53C1742.6,841.72,1868.73,814,1939.7,852.48Z"/><path class="cls-68" d="M1939.48,841.44a1.83,1.83,0,0,1-3.61.29c-7.6-33.4-23.7-125.5,23.16-148.93C2014.49,665.07,1947,732.22,1939.48,841.44Z"/><path class="cls-69" d="M1936.24,841.2c7.87-20.51,38.22-84.19,101.37-49.78a1.21,1.21,0,0,1-.5,2.27c-14.2.9-61.44,7-98.84,48.73A1.2,1.2,0,0,1,1936.24,841.2Z"/><path class="cls-70" d="M1937.94,846.35c2.91-12.67,18-38.07,94.88-14.8a.4.4,0,0,1-.14.78c-15.1-1.57-66.14-5-91.16,16.21A2.22,2.22,0,0,1,1937.94,846.35Z"/><path class="cls-71" d="M1956,1191.63a.45.45,0,0,0-.15.24s0,.17,0,0l0-.33.06-1.34.11-2.75.19-5.54.28-11.13.39-22.29q.29-22.3.2-44.62-.12-44.61-1.75-89.2-.88-22.28-2.28-44.53c-1-14.83-2.18-29.63-3.69-44.4s-3.45-29.48-6-44-5.77-29.06-11-42.66l0-.07a2.6,2.6,0,0,1,4.83-1.9c5.66,14.17,9,28.87,11.89,43.58s4.94,29.55,6.68,44.39,3.13,29.72,4.32,44.61,2.1,29.78,2.9,44.68q2.31,44.72,3,89.47.38,22.37.41,44.75l-.09,22.39-.13,11.21-.11,5.62-.07,2.84-.06,1.45v.36c0,.11,0,.5-.06.74a14.58,14.58,0,0,1-.27,1.63,5,5,0,1,1-9.55-3.19Z"/><path class="cls-72" d="M1993.92,927.78c11.72-27.94,54.19-112.65,129.32-86.49a1.15,1.15,0,0,1-.18,2.21c-16.56,3.07-78,18.57-127.17,85.38A1.14,1.14,0,0,1,1993.92,927.78Z"/><path class="cls-73" d="M1994.56,929.52c16.89-15.92,67.18-77.5,134-49.36a.77.77,0,0,1-.21,1.48c-16.51,1.75-98.46,12.13-133.44,49.23C1994,931.86,1993.58,930.45,1994.56,929.52Z"/><path class="cls-74" d="M1996.14,922.53c1.61-21.06,11-100.57,62.23-117a.41.41,0,0,1,.46.63c-6.17,8.7-51.06,73-61.89,116.47A.41.41,0,0,1,1996.14,922.53Z"/><path class="cls-75" d="M1991.05,946.66a.44.44,0,0,1-.53-.7c9-9,46.5-42.12,94.05-25.82C2138.44,938.62,2044.12,917.87,1991.05,946.66Z"/><path class="cls-76" d="M1992.29,930.16a1.37,1.37,0,0,0,2.7.23c5.68-25,17.72-93.85-17.32-111.37C1936.2,798.28,1986.66,848.49,1992.29,930.16Z"/><path class="cls-77" d="M1994.71,930c-5.89-15.34-28.58-63-75.8-37.23a.9.9,0,0,0,.37,1.7,111.12,111.12,0,0,1,73.91,36.44A.9.9,0,0,0,1994.71,930Z"/><path class="cls-78" d="M1993.44,933.84c-2.17-9.47-13.47-28.47-71-11.07a.3.3,0,0,0,.1.59c11.3-1.18,49.46-3.77,68.17,12.11A1.66,1.66,0,0,0,1993.44,933.84Z"/><path class="cls-79" d="M1971.61,1194.82a11.55,11.55,0,0,1-.25-1.45c0-.21-.06-.58-.06-.66v-.27l0-1.1-.06-2.13-.07-4.22-.08-8.39,0-16.75q0-16.75.38-33.49.63-33.46,2.38-66.93c1.24-22.3,2.91-44.59,5.56-66.81,1.33-11.11,3-22.21,5.07-33.24s4.73-22,9-32.7a2.59,2.59,0,0,1,4.83,1.89l0,.07c-3.85,10.1-6.19,20.94-8.11,31.79s-3.3,21.87-4.41,32.9c-2.22,22.06-3.48,44.25-4.31,66.45s-1.14,44.44-1.16,66.67q0,16.68.24,33.34l.32,16.66.24,8.31.14,4.14.09,2,0,1v.25c0,.09,0-.1,0-.13a1.1,1.1,0,0,0-.17-.42,5,5,0,1,1-9.55,3.19Z"/><path class="cls-80" d="M1903.63,976c-13.42-21.9-59.33-87.29-111.71-54.2a1,1,0,0,0,.49,1.84c13,.18,61.84,4.31,109.91,53.59C1903.11,978.07,1904.23,977,1903.63,976Z"/><path class="cls-81" d="M1903.43,977.62c-15.35-11-63.37-55.7-109.14-22.15a.69.69,0,0,0,.4,1.22c12.74-.93,76.25-4.14,108.72,22.11C1904.27,979.5,1904.32,978.26,1903.43,977.62Z"/><path class="cls-82" d="M1901.09,971.94c-4.66-17.57-24.78-83.4-66.09-89.78a.35.35,0,0,0-.25.6c6.08,6.45,50.47,54.23,65.76,89.4A.31.31,0,1,0,1901.09,971.94Z"/><path class="cls-83" d="M1906.73,983c.38.14.61-.42.28-.67-8.3-6.29-42-28.81-75.17-8.08C1794.23,997.7,1862,966.38,1906.73,983Z"/><path class="cls-84" d="M1905.24,977.83a1,1,0,0,1-2,.58c-8.38-20.28-28.74-76.74-5.18-96.67C1926,858.16,1896.12,908,1905.24,977.83Z"/><path class="cls-85" d="M1903.39,978c1.93-13.82,11.25-57.39,51.08-42.54a.8.8,0,0,1,0,1.49c-7.9,2.12-33.8,11.16-49.78,41.6C1904.3,979.31,1903.27,978.88,1903.39,978Z"/><path class="cls-86" d="M1905,981.1c.09-8.32,5.5-26,51.71-19.72.27,0,.29.48,0,.5-8.71.66-37.92,4-49.43,20.21A1.3,1.3,0,0,1,1905,981.1Z"/><path class="cls-87" d="M1955.32,1197.36a1,1,0,0,0-.06.42s0,.2,0,.12l0-.21-.12-.84-.26-1.73-.56-3.51-1.17-7.06-2.44-14.11q-2.51-14.12-5.21-28.19-5.4-28.17-11.64-56.14c-4.2-18.64-8.73-37.2-14-55.53-2.62-9.16-5.45-18.25-8.63-27.19s-6.72-17.76-11.3-25.83l0-.06a2.59,2.59,0,0,1,4.48-2.61c5.07,8.51,8.82,17.47,12.29,26.49s6.5,18.18,9.35,27.37c5.67,18.39,10.62,37,15.25,55.6s8.87,37.37,12.88,56.14q3,14.07,5.83,28.2l2.76,14.14,1.33,7.09.65,3.57.31,1.81.15.93,0,.24.07.57a11.3,11.3,0,0,1,0,1.3,5,5,0,0,1-10-1Z"/><path class="cls-88" d="M1914.3,1171.74h99.12a10.09,10.09,0,0,1,9.84,12.37c-6.34,27.48-13.94,55.36-29.49,83.65a16.33,16.33,0,0,1-14.3,8.51h-32.35a15.94,15.94,0,0,1-14-8.4c-12.46-23.16-24.45-50.75-30.37-82.08A11.82,11.82,0,0,1,1914.3,1171.74Z"/><path class="cls-5" d="M438.18,682.47l2.71,1.28a1.5,1.5,0,0,1-1.28,2.71l-2.71-1.28a1.5,1.5,0,1,1,1.28-2.72Z"/><path class="cls-5" d="M447.22,686.77l2.7,1.3a1.5,1.5,0,0,1-1.3,2.7l-2.7-1.3a1.5,1.5,0,1,1,1.3-2.7Z"/><path class="cls-5" d="M456.23,691.12l2.69,1.32a1.5,1.5,0,0,1-1.31,2.69l-2.69-1.32a1.5,1.5,0,1,1,1.31-2.69Z"/><path class="cls-5" d="M465.21,695.53l2.69,1.33a1.49,1.49,0,1,1-1.32,2.67l-2.69-1.33a1.49,1.49,0,0,1,1.32-2.67Z"/><path class="cls-5" d="M474.18,700l2.68,1.34a1.49,1.49,0,0,1-1.33,2.67l-2.69-1.35a1.49,1.49,0,0,1,1.34-2.66Z"/><path class="cls-5" d="M483.12,704.48l2.67,1.36a1.48,1.48,0,0,1-1.34,2.65l-2.68-1.36a1.49,1.49,0,0,1,1.35-2.65Z"/><path class="cls-5" d="M492,709l2.67,1.37a1.48,1.48,0,1,1-1.36,2.64l-2.67-1.37A1.48,1.48,0,1,1,492,709Z"/><path class="cls-5" d="M500.92,713.63l2.66,1.39a1.48,1.48,0,0,1-1.37,2.63l-2.66-1.39a1.48,1.48,0,1,1,1.37-2.63Z"/><path class="cls-5" d="M509.78,718.28l2.66,1.4a1.48,1.48,0,0,1-1.39,2.62l-2.65-1.41a1.48,1.48,0,1,1,1.38-2.61Z"/><path class="cls-5" d="M518.62,723l2.65,1.42a1.49,1.49,0,0,1,.6,2,1.47,1.47,0,0,1-2,.6l-2.64-1.41a1.48,1.48,0,0,1,1.39-2.61Z"/><path class="cls-5" d="M527.43,727.72l2.64,1.43a1.47,1.47,0,0,1-1.41,2.59L526,730.31a1.47,1.47,0,1,1,1.4-2.59Z"/><path class="cls-5" d="M536.22,732.51l2.63,1.45a1.47,1.47,0,1,1-1.42,2.58l-2.63-1.45a1.47,1.47,0,0,1,1.42-2.58Z"/><path class="cls-5" d="M545,737.35l2.62,1.46a1.47,1.47,0,1,1-1.43,2.57l-2.62-1.46a1.47,1.47,0,0,1,1.43-2.57Z"/><path class="cls-5" d="M553.71,742.24l2.61,1.48a1.46,1.46,0,1,1-1.44,2.55l-2.61-1.47a1.47,1.47,0,0,1,1.44-2.56Z"/><path class="cls-5" d="M562.41,747.18l2.61,1.49a1.46,1.46,0,0,1-1.45,2.54L561,749.72a1.46,1.46,0,0,1,1.45-2.54Z"/><path class="cls-5" d="M571.09,752.17l2.6,1.5a1.46,1.46,0,0,1-1.47,2.53l-2.59-1.5a1.46,1.46,0,1,1,1.46-2.53Z"/><path class="cls-5" d="M579.74,757.2l2.59,1.52a1.46,1.46,0,0,1-1.48,2.51l-2.58-1.51a1.46,1.46,0,1,1,1.47-2.52Z"/><path class="cls-5" d="M588.36,762.28l2.57,1.53a1.45,1.45,0,1,1-1.48,2.5l-2.58-1.52a1.46,1.46,0,1,1,1.49-2.51Z"/><path class="cls-5" d="M597,767.41l2.57,1.54a1.46,1.46,0,0,1,.49,2,1.44,1.44,0,0,1-2,.49l-2.57-1.54a1.45,1.45,0,1,1,1.5-2.49Z"/><path class="cls-5" d="M605.51,772.58l2.56,1.56a1.45,1.45,0,0,1-1.51,2.48L604,775.06a1.45,1.45,0,1,1,1.51-2.48Z"/><path class="cls-5" d="M614,777.81l2.55,1.57a1.45,1.45,0,0,1-1.52,2.46l-2.55-1.57a1.45,1.45,0,0,1,1.52-2.46Z"/><path class="cls-5" d="M622.55,783.08l2.54,1.58a1.45,1.45,0,1,1-1.54,2.46L621,785.53a1.44,1.44,0,1,1,1.53-2.45Z"/><path class="cls-5" d="M631,788.39l2.53,1.61a1.43,1.43,0,0,1,.45,2,1.45,1.45,0,0,1-2,.45l-2.53-1.6a1.45,1.45,0,0,1,1.54-2.45Z"/><path class="cls-5" d="M639.46,793.76l2.53,1.62a1.44,1.44,0,1,1-1.56,2.42l-2.52-1.61a1.44,1.44,0,1,1,1.55-2.43Z"/><path class="cls-5" d="M647.88,799.17l2.51,1.63a1.44,1.44,0,1,1-1.56,2.42l-2.52-1.63a1.44,1.44,0,0,1,1.57-2.42Z"/><path class="cls-5" d="M656.26,804.63l2.51,1.65a1.44,1.44,0,0,1-1.58,2.4l-2.5-1.65a1.43,1.43,0,1,1,1.57-2.4Z"/><path class="cls-5" d="M664.62,810.14l2.49,1.66a1.43,1.43,0,0,1-1.58,2.38l-2.5-1.65a1.43,1.43,0,0,1,1.58-2.39Z"/><path class="cls-5" d="M672.94,815.69l2.49,1.67a1.43,1.43,0,0,1-1.6,2.38l-2.49-1.67a1.43,1.43,0,1,1,1.6-2.38Z"/><path class="cls-5" d="M681.23,821.29,683.7,823a1.43,1.43,0,1,1-1.6,2.36l-2.48-1.69a1.43,1.43,0,1,1,1.61-2.36Z"/><path class="cls-5" d="M689.48,826.93l2.47,1.71a1.42,1.42,0,1,1-1.62,2.34l-2.47-1.7a1.43,1.43,0,0,1,1.62-2.35Z"/><path class="cls-5" d="M697.71,832.63l2.46,1.71a1.43,1.43,0,0,1-1.63,2.34L696.08,835a1.42,1.42,0,0,1,1.63-2.33Z"/><path class="cls-5" d="M705.9,838.37l2.45,1.73a1.42,1.42,0,0,1-1.63,2.32l-2.46-1.73a1.42,1.42,0,0,1,1.64-2.33Z"/><path class="cls-5" d="M714.07,844.15l2.44,1.75a1.42,1.42,0,1,1-1.65,2.3l-2.44-1.74a1.42,1.42,0,0,1,1.64-2.31Z"/><path class="cls-5" d="M722.2,850l2.43,1.76A1.42,1.42,0,0,1,723,854l-2.43-1.76a1.41,1.41,0,0,1-.32-2,1.43,1.43,0,0,1,2-.32Z"/><path class="cls-5" d="M730.29,856.36l2.42,1.52a1.27,1.27,0,0,1,.31,1.85,1.41,1.41,0,0,1-2,.25l-2.41-1.8a1.15,1.15,0,0,1-.31-1.74c.46-.64,1.34-1.08,2-.08Z"/><path class="cls-5" d="M738.35,861.8l2.41,1.79a1.41,1.41,0,1,1-1.68,2.26l-2.41-1.79a1.41,1.41,0,1,1,1.68-2.26Z"/><path class="cls-5" d="M746.37,867.8l2.39,1.81a1.41,1.41,0,0,1-1.7,2.25l-2.39-1.81a1.41,1.41,0,1,1,1.7-2.25Z"/><path class="cls-5" d="M754.33,873.86l2.38,1.83a1.41,1.41,0,0,1-1.71,2.23l-2.38-1.83a1.41,1.41,0,1,1,1.71-2.23Z"/><path class="cls-5" d="M762.25,880l2.37,1.84A1.4,1.4,0,0,1,762.9,884l-2.37-1.84a1.4,1.4,0,1,1,1.72-2.21Z"/><path class="cls-5" d="M770.13,886.14l2.36,1.86a1.4,1.4,0,0,1-1.73,2.2l-2.36-1.86a1.4,1.4,0,1,1,1.73-2.2Z"/><path class="cls-5" d="M778,892.35l2.35,1.87a1.39,1.39,0,1,1-1.74,2.18l-2.35-1.86a1.4,1.4,0,0,1,1.74-2.19Z"/><path class="cls-5" d="M785.8,898.59l2.34,1.88a1.39,1.39,0,1,1-1.74,2.18l-2.34-1.88a1.39,1.39,0,0,1,1.74-2.18Z"/><path class="cls-5" d="M793.6,904.87l2.33,1.89a1.39,1.39,0,1,1-1.75,2.16L791.85,907a1.39,1.39,0,1,1,1.75-2.17Z"/><path class="cls-5" d="M801.37,911.17l2.33,1.89a1.39,1.39,0,0,1-1.76,2.16l-2.32-1.89a1.39,1.39,0,1,1,1.75-2.16Z"/><path class="cls-5" d="M809.12,917.49l2.33,1.89a1.39,1.39,0,0,1-1.76,2.15l-2.32-1.89a1.39,1.39,0,1,1,1.75-2.15Z"/><path class="cls-5" d="M816.87,923.82l2.32,1.9a1.39,1.39,0,1,1-1.76,2.14l-2.32-1.9a1.39,1.39,0,1,1,1.76-2.14Z"/><path class="cls-5" d="M824.6,930.16l2.32,1.9a1.38,1.38,0,0,1-1.75,2.14l-2.32-1.9a1.38,1.38,0,1,1,1.75-2.14Z"/><path class="cls-5" d="M832.33,936.5l2.32,1.91a1.38,1.38,0,1,1-1.75,2.13l-2.32-1.9a1.38,1.38,0,0,1,1.75-2.14Z"/><path class="cls-5" d="M840.06,942.84l2.32,1.91a1.38,1.38,0,1,1-1.74,2.13l-2.32-1.9a1.38,1.38,0,1,1,1.74-2.14Z"/><path class="cls-5" d="M847.8,949.18l2.32,1.89a1.38,1.38,0,1,1-1.74,2.13l-2.32-1.89a1.38,1.38,0,1,1,1.74-2.13Z"/><path class="cls-5" d="M855.55,955.5l2.32,1.89a1.37,1.37,0,1,1-1.73,2.13l-2.33-1.89a1.38,1.38,0,1,1,1.74-2.14Z"/><path class="cls-5" d="M863.31,961.8l2.33,1.88a1.37,1.37,0,0,1-1.72,2.13l-2.34-1.88a1.38,1.38,0,0,1,1.73-2.14Z"/><path class="cls-5" d="M871.09,968.07l2.34,1.88a1.37,1.37,0,1,1-1.71,2.13l-2.35-1.88a1.37,1.37,0,1,1,1.72-2.13Z"/><path class="cls-5" d="M878.89,974.31l2.35,1.87a1.37,1.37,0,1,1-1.7,2.14l-2.35-1.87a1.37,1.37,0,0,1,1.7-2.14Z"/><path class="cls-5" d="M886.72,980.52l2.36,1.86a1.36,1.36,0,0,1-1.69,2.14L885,982.67a1.37,1.37,0,0,1,1.69-2.15Z"/><path class="cls-5" d="M894.58,986.69l2.37,1.84a1.36,1.36,0,0,1-1.67,2.15l-2.37-1.84a1.36,1.36,0,1,1,1.67-2.15Z"/><path class="cls-5" d="M902.48,992.81l2.38,1.83a1.36,1.36,0,1,1-1.65,2.15L900.83,995a1.36,1.36,0,0,1,1.65-2.15Z"/><path class="cls-5" d="M910.42,998.88l2.39,1.81a1.35,1.35,0,0,1-1.63,2.16l-2.4-1.81a1.36,1.36,0,0,1-.26-1.9,1.35,1.35,0,0,1,1.9-.26Z"/><path class="cls-5" d="M918.4,1004.88l2.41,1.79a1.35,1.35,0,0,1-1.62,2.17l-2.4-1.79a1.35,1.35,0,0,1,1.61-2.17Z"/><path class="cls-5" d="M926.43,1010.82l2.42,1.77a1.35,1.35,0,1,1-1.59,2.18l-2.42-1.77a1.35,1.35,0,1,1,1.59-2.18Z"/><path class="cls-5" d="M934.51,1016.69l2.45,1.75a1.35,1.35,0,0,1-1.57,2.19l-2.45-1.75a1.35,1.35,0,0,1,1.57-2.19Z"/><path class="cls-5" d="M942.65,1022.48l2.46,1.73a1.34,1.34,0,0,1-1.54,2.2l-2.46-1.73a1.34,1.34,0,1,1,1.54-2.2Z"/><path class="cls-5" d="M950.85,1028.19l2.48,1.69a1.35,1.35,0,0,1-1.52,2.22l-2.47-1.7a1.34,1.34,0,1,1,1.51-2.21Z"/><path class="cls-5" d="M959.12,1033.8l2.49,1.67a1.34,1.34,0,1,1-1.49,2.23l-2.49-1.67a1.34,1.34,0,0,1,1.49-2.23Z"/><path class="cls-5" d="M967.44,1039.31,970,1041a1.34,1.34,0,0,1-1.46,2.24l-2.52-1.63a1.34,1.34,0,0,1,1.46-2.25Z"/><path class="cls-5" d="M975.83,1044.72l2.54,1.6a1.34,1.34,0,0,1-1.43,2.26l-2.53-1.6a1.33,1.33,0,1,1,1.42-2.26Z"/><path class="cls-5" d="M984.29,1050l2.56,1.57a1.33,1.33,0,1,1-1.39,2.27l-2.56-1.57a1.33,1.33,0,0,1,1.39-2.27Z"/><path class="cls-5" d="M992.82,1055.18l2.58,1.53a1.33,1.33,0,0,1-1.35,2.29l-2.58-1.53a1.33,1.33,0,1,1,1.35-2.29Z"/><path class="cls-5" d="M1001.43,1060.23l2.6,1.49a1.32,1.32,0,0,1-1.31,2.3l-2.61-1.49a1.33,1.33,0,0,1,1.32-2.3Z"/><path class="cls-5" d="M1010.12,1065.14l2.62,1.44a1.32,1.32,0,1,1-1.28,2.32l-2.62-1.44a1.32,1.32,0,1,1,1.27-2.32Z"/><path class="cls-5" d="M1018.88,1069.9l2.66,1.41a1.32,1.32,0,1,1-1.24,2.33l-2.65-1.4a1.32,1.32,0,0,1,1.23-2.34Z"/><path class="cls-5" d="M1027.74,1074.51l2.67,1.35a1.32,1.32,0,1,1-1.19,2.36l-2.67-1.35a1.32,1.32,0,1,1,1.18-2.36Z"/><path class="cls-5" d="M1036.67,1079l2.7,1.31a1.31,1.31,0,0,1-1.14,2.37l-2.71-1.3a1.32,1.32,0,0,1,1.15-2.38Z"/><path class="cls-5" d="M1045.68,1083.24l2.72,1.25a1.32,1.32,0,1,1-1.1,2.39l-2.72-1.25a1.32,1.32,0,0,1-.64-1.75,1.3,1.3,0,0,1,1.74-.64Z"/><path class="cls-5" d="M1054.77,1087.36l2.74,1.21a1.31,1.31,0,0,1-1,2.4l-2.75-1.21a1.31,1.31,0,1,1,1.06-2.4Z"/><path class="cls-5" d="M1063.92,1091.33l2.77,1.16a1.31,1.31,0,0,1-1,2.42l-2.77-1.17a1.31,1.31,0,0,1,1-2.41Z"/><path class="cls-5" d="M1073.15,1095.14l2.78,1.12a1.3,1.3,0,1,1-1,2.42l-2.78-1.11a1.31,1.31,0,1,1,1-2.43Z"/><path class="cls-5" d="M1082.44,1098.8l2.8,1.07a1.3,1.3,0,0,1-.92,2.44l-2.81-1.07a1.32,1.32,0,0,1-.76-1.69,1.31,1.31,0,0,1,1.69-.75Z"/><path class="cls-5" d="M1091.79,1102.3l2.82,1a1.3,1.3,0,1,1-.89,2.44l-2.82-1a1.3,1.3,0,0,1,.88-2.45Z"/><path class="cls-5" d="M1101.19,1105.65l2.84,1a1.3,1.3,0,0,1-.85,2.46l-2.84-1a1.29,1.29,0,0,1-.8-1.65,1.3,1.3,0,0,1,1.65-.81Z"/><path class="cls-5" d="M1110.65,1108.86l2.85.93a1.29,1.29,0,0,1,.83,1.63,1.31,1.31,0,0,1-1.64.83l-2.85-.93a1.29,1.29,0,0,1-.83-1.63,1.28,1.28,0,0,1,1.63-.83Z"/><path class="cls-5" d="M1120.15,1111.91l2.86.89a1.29,1.29,0,0,1-.76,2.47l-2.87-.89a1.29,1.29,0,0,1,.77-2.47Z"/><path class="cls-5" d="M1129.69,1114.81l2.88.85a1.29,1.29,0,0,1-.72,2.48l-2.88-.85a1.29,1.29,0,1,1,.72-2.48Z"/><path class="cls-5" d="M1139.29,1117.57l2.89.81a1.29,1.29,0,0,1-.69,2.48l-2.89-.8a1.29,1.29,0,1,1,.69-2.49Z"/><path class="cls-5" d="M1148.92,1120.19l2.9.76a1.29,1.29,0,0,1-.65,2.49l-2.9-.76a1.29,1.29,0,1,1,.65-2.49Z"/><path class="cls-5" d="M1158.59,1122.67l2.91.72a1.28,1.28,0,0,1-.61,2.49l-2.92-.71a1.29,1.29,0,0,1,.62-2.5Z"/><path class="cls-5" d="M1168.29,1125l2.92.68a1.28,1.28,0,0,1-.57,2.49l-2.93-.67a1.28,1.28,0,1,1,.58-2.5Z"/><path class="cls-5" d="M1178,1127.21l2.93.64a1.28,1.28,0,1,1-.54,2.5l-2.94-.64a1.28,1.28,0,1,1,.55-2.5Z"/><path class="cls-5" d="M1187.79,1129.28l2.94.6a1.27,1.27,0,0,1-.5,2.5l-2.94-.6a1.27,1.27,0,1,1,.5-2.5Z"/><path class="cls-5" d="M1197.59,1131.21l2.94.56a1.27,1.27,0,1,1-.47,2.5l-3-.55a1.28,1.28,0,0,1,.47-2.51Z"/><path class="cls-5" d="M1207.4,1133l3,.51a1.27,1.27,0,0,1-.44,2.51l-3-.52a1.27,1.27,0,1,1,.43-2.5Z"/><path class="cls-5" d="M1217.25,1134.69l3,.48a1.27,1.27,0,0,1-.4,2.5l-3-.48a1.27,1.27,0,1,1,.41-2.5Z"/><path class="cls-5" d="M1227.11,1136.23l3,.44a1.27,1.27,0,0,1-.37,2.51l-3-.44a1.27,1.27,0,1,1,.37-2.51Z"/><path class="cls-5" d="M1237,1137.65l3,.4a1.27,1.27,0,0,1-.34,2.51l-3-.4a1.27,1.27,0,1,1,.33-2.51Z"/><path class="cls-5" d="M1246.89,1138.94l3,.37a1.26,1.26,0,1,1-.3,2.5l-3-.36a1.26,1.26,0,0,1,.3-2.51Z"/><path class="cls-5" d="M1256.81,1140.11l3,.33a1.26,1.26,0,0,1,1.11,1.39,1.24,1.24,0,0,1-1.38,1.11l-3-.32a1.26,1.26,0,0,1-1.11-1.39,1.27,1.27,0,0,1,1.39-1.12Z"/><path class="cls-5" d="M1266.74,1141.16l3,.29a1.26,1.26,0,1,1-.24,2.5l-3-.29a1.26,1.26,0,0,1,.24-2.5Z"/><path class="cls-5" d="M1276.68,1142.09l3,.26a1.25,1.25,0,0,1-.21,2.49l-3-.25a1.27,1.27,0,0,1-1.15-1.36,1.26,1.26,0,0,1,1.36-1.14Z"/><path class="cls-5" d="M1286.63,1142.9l3,.22a1.25,1.25,0,1,1-.18,2.49l-3-.22a1.25,1.25,0,1,1,.18-2.49Z"/><path class="cls-5" d="M1296.59,1143.59l3,.18a1.25,1.25,0,1,1-.16,2.5l-3-.19a1.25,1.25,0,0,1,.15-2.49Z"/><path class="cls-5" d="M1306.56,1144.17l3,.15a1.24,1.24,0,1,1-.13,2.48l-3-.15a1.24,1.24,0,1,1,.12-2.48Z"/><path class="cls-5" d="M1316.54,1144.63l3,.11a1.25,1.25,0,0,1-.1,2.49l-3-.12a1.24,1.24,0,0,1,.1-2.48Z"/><path class="cls-5" d="M1326.52,1145l3,.09a1.23,1.23,0,0,1,1.21,1.27,1.26,1.26,0,0,1-1.28,1.21l-3-.09a1.23,1.23,0,0,1-1.21-1.27,1.25,1.25,0,0,1,1.28-1.21Z"/><path class="cls-5" d="M1336.51,1145.21l3,0a1.24,1.24,0,1,1,0,2.47l-3,0a1.25,1.25,0,0,1-1.22-1.26,1.23,1.23,0,0,1,1.26-1.22Z"/><path class="cls-5" d="M1346.49,1145.33h3a1.24,1.24,0,0,1,1.23,1.24,1.22,1.22,0,0,1-1.24,1.23h-3a1.24,1.24,0,1,1,0-2.47Z"/><path class="cls-5" d="M1356.48,1145.33l3,0a1.23,1.23,0,1,1,0,2.46l-3,0a1.24,1.24,0,1,1,0-2.47Z"/><path class="cls-5" d="M1366.46,1145.2l3-.06a1.24,1.24,0,0,1,1.26,1.21,1.23,1.23,0,0,1-1.21,1.25l-3,.07a1.24,1.24,0,0,1,0-2.47Z"/><path class="cls-5" d="M1376.44,1145l3-.1a1.23,1.23,0,0,1,1.26,1.19,1.21,1.21,0,0,1-1.18,1.26l-3,.1a1.23,1.23,0,1,1-.08-2.45Z"/><path class="cls-5" d="M1386.42,1144.59l3-.13a1.23,1.23,0,0,1,.11,2.45l-3,.13a1.23,1.23,0,1,1-.11-2.45Z"/><path class="cls-5" d="M1396.39,1144.11l3-.16a1.22,1.22,0,0,1,.14,2.44l-3,.17a1.23,1.23,0,0,1-.13-2.45Z"/><path class="cls-5" d="M1406.35,1143.53l3-.2a1.22,1.22,0,1,1,.16,2.43l-3,.2a1.22,1.22,0,0,1-.17-2.43Z"/><path class="cls-5" d="M1416.32,1142.83l3-.23a1.22,1.22,0,1,1,.19,2.43l-3,.23a1.22,1.22,0,0,1-.18-2.43Z"/><path class="cls-5" d="M1426.28,1142l3-.26a1.21,1.21,0,0,1,1.31,1.11,1.2,1.2,0,0,1-1.1,1.31l-3,.27a1.22,1.22,0,1,1-.21-2.43Z"/><path class="cls-5" d="M1436.23,1141.14l3-.29a1.21,1.21,0,1,1,.23,2.41l-3,.29a1.21,1.21,0,1,1-.23-2.41Z"/><path class="cls-5" d="M1446.17,1140.14l3-.31a1.21,1.21,0,1,1,.25,2.4l-3,.32a1.21,1.21,0,1,1-.26-2.41Z"/><path class="cls-5" d="M1456.1,1139.06l3-.34a1.2,1.2,0,1,1,.27,2.39l-3,.35a1.21,1.21,0,1,1-.28-2.4Z"/><path class="cls-5" d="M1466,1137.89l3-.37a1.2,1.2,0,0,1,.3,2.39l-3,.37a1.2,1.2,0,1,1-.3-2.39Z"/><path class="cls-5" d="M1475.94,1136.63l3-.4a1.21,1.21,0,1,1,.31,2.39l-3,.39a1.2,1.2,0,0,1-.32-2.38Z"/><path class="cls-5" d="M1485.84,1135.29l3-.42a1.2,1.2,0,1,1,.34,2.38l-3,.42a1.2,1.2,0,1,1-.34-2.38Z"/><path class="cls-5" d="M1495.73,1133.87l3-.44a1.2,1.2,0,0,1,1.36,1,1.21,1.21,0,0,1-1,1.36l-3,.44a1.2,1.2,0,1,1-.36-2.37Z"/><path class="cls-5" d="M1505.62,1132.38l3-.47a1.19,1.19,0,1,1,.36,2.36l-3,.47a1.19,1.19,0,1,1-.37-2.36Z"/><path class="cls-5" d="M1515.49,1130.81l3-.48a1.19,1.19,0,1,1,.39,2.35l-3,.49a1.2,1.2,0,1,1-.38-2.36Z"/><path class="cls-5" d="M1525.35,1129.18l3-.5a1.19,1.19,0,0,1,.4,2.34l-3,.51a1.19,1.19,0,0,1-.4-2.35Z"/><path class="cls-5" d="M1535.2,1127.48l3-.52a1.19,1.19,0,0,1,.41,2.34l-3,.52a1.19,1.19,0,1,1-.42-2.34Z"/><path class="cls-5" d="M1545,1125.72l3-.54a1.18,1.18,0,1,1,.43,2.33l-3,.54a1.18,1.18,0,1,1-.43-2.33Z"/><path class="cls-5" d="M1554.86,1123.89l3-.57a1.18,1.18,0,0,1,1.38.94,1.2,1.2,0,0,1-.94,1.39l-2.94.56a1.18,1.18,0,1,1-.45-2.32Z"/><path class="cls-5" d="M1564.67,1122l2.94-.59a1.18,1.18,0,1,1,.46,2.31l-2.94.59a1.18,1.18,0,1,1-.46-2.31Z"/><path class="cls-5" d="M1574.46,1120l2.93-.62a1.18,1.18,0,0,1,.49,2.31l-2.94.61a1.17,1.17,0,1,1-.48-2.3Z"/><path class="cls-5" d="M1584.23,1117.91l2.93-.64a1.18,1.18,0,1,1,.5,2.3l-2.93.64a1.18,1.18,0,1,1-.5-2.3Z"/><path class="cls-5" d="M1594,1115.75l2.92-.67a1.17,1.17,0,1,1,.53,2.28l-2.93.67a1.17,1.17,0,1,1-.52-2.28Z"/><path class="cls-5" d="M1603.71,1113.49l2.92-.7a1.17,1.17,0,1,1,.54,2.27l-2.92.7a1.17,1.17,0,1,1-.54-2.27Z"/><path class="cls-5" d="M1613.41,1111.13l2.91-.73a1.17,1.17,0,1,1,.57,2.26l-2.91.73a1.17,1.17,0,1,1-.57-2.26Z"/><path class="cls-5" d="M1623.09,1108.67l2.9-.77a1.17,1.17,0,0,1,.6,2.26l-2.91.76a1.16,1.16,0,1,1-.59-2.25Z"/><path class="cls-5" d="M1632.74,1106.1l2.9-.8a1.16,1.16,0,0,1,.61,2.24l-2.89.8a1.17,1.17,0,0,1-1.43-.82,1.15,1.15,0,0,1,.81-1.42Z"/><path class="cls-5" d="M1642.36,1103.41l2.89-.82a1.16,1.16,0,1,1,.64,2.22l-2.89.84a1.16,1.16,0,0,1-1.43-.8,1.15,1.15,0,0,1,.79-1.43Z"/><path class="cls-5" d="M1652,1100.62l2.87-.87a1.16,1.16,0,0,1,1.44.78,1.15,1.15,0,0,1-.77,1.44l-2.87.86a1.15,1.15,0,1,1-.67-2.21Z"/><path class="cls-5" d="M1661.5,1097.7l2.86-.9a1.15,1.15,0,1,1,.69,2.2l-2.86.9a1.15,1.15,0,1,1-.69-2.2Z"/><path class="cls-5" d="M1671,1094.66l2.85-.94a1.15,1.15,0,0,1,.72,2.19l-2.85.94a1.15,1.15,0,1,1-.72-2.19Z"/><path class="cls-5" d="M1680.47,1091.49l2.84-1a1.15,1.15,0,0,1,.75,2.17l-2.84,1a1.15,1.15,0,1,1-.75-2.17Z"/><path class="cls-5" d="M1689.89,1088.18l2.82-1a1.15,1.15,0,0,1,1.47.69,1.14,1.14,0,0,1-.69,1.47l-2.82,1a1.15,1.15,0,0,1-1.47-.69,1.16,1.16,0,0,1,.69-1.47Z"/><path class="cls-5" d="M1699.26,1084.74l2.81-1.06a1.13,1.13,0,0,1,1.47.66,1.15,1.15,0,0,1-.66,1.48l-2.81,1.06a1.14,1.14,0,0,1-.81-2.14Z"/><path class="cls-5" d="M1708.57,1081.16l2.79-1.11a1.14,1.14,0,0,1,1.48.64,1.13,1.13,0,0,1-.64,1.48l-2.78,1.11a1.14,1.14,0,1,1-.85-2.12Z"/><path class="cls-5" d="M1717.83,1077.43l2.77-1.15a1.14,1.14,0,1,1,.87,2.1l-2.77,1.15a1.14,1.14,0,1,1-.87-2.1Z"/><path class="cls-5" d="M1727,1073.55l2.75-1.2a1.14,1.14,0,0,1,.91,2.09l-2.75,1.19a1.14,1.14,0,1,1-.91-2.08Z"/><path class="cls-5" d="M1736.15,1069.52l2.72-1.25a1.15,1.15,0,0,1,1.51.57,1.13,1.13,0,0,1-.57,1.5l-2.72,1.24a1.13,1.13,0,1,1-.95-2.06Z"/><path class="cls-5" d="M1745.2,1065.33l2.7-1.29a1.13,1.13,0,1,1,1,2l-2.71,1.29a1.13,1.13,0,1,1-1-2Z"/><path class="cls-5" d="M1754.18,1061l2.68-1.34a1.13,1.13,0,0,1,1,2l-2.68,1.34a1.13,1.13,0,1,1-1-2Z"/><path class="cls-5" d="M1763.07,1056.47l2.66-1.39a1.12,1.12,0,1,1,1,2l-2.65,1.39a1.13,1.13,0,0,1-1-2Z"/><path class="cls-5" d="M1771.88,1051.79l2.63-1.44a1.12,1.12,0,1,1,1.08,2l-2.63,1.44a1.12,1.12,0,0,1-1.08-2Z"/><path class="cls-5" d="M1780.6,1046.94l2.6-1.49a1.12,1.12,0,0,1,1.12,2l-2.6,1.49a1.12,1.12,0,0,1-1.12-2Z"/><path class="cls-5" d="M1789.22,1041.92l2.57-1.54a1.13,1.13,0,0,1,1.54.39,1.12,1.12,0,0,1-.39,1.53l-2.57,1.54a1.11,1.11,0,1,1-1.15-1.91Z"/><path class="cls-5" d="M1797.74,1036.74l2.54-1.6a1.12,1.12,0,0,1,1.54.36,1.11,1.11,0,0,1-.36,1.53l-2.53,1.6a1.12,1.12,0,0,1-1.19-1.89Z"/><path class="cls-5" d="M1806.15,1031.38l2.5-1.65a1.11,1.11,0,0,1,1.23,1.86l-2.51,1.65a1.11,1.11,0,0,1-1.54-.32,1.1,1.1,0,0,1,.32-1.54Z"/><path class="cls-5" d="M1814.44,1025.84l2.47-1.69a1.11,1.11,0,1,1,1.26,1.83l-2.47,1.69a1.11,1.11,0,0,1-1.26-1.83Z"/><path class="cls-5" d="M1822.62,1020.13l2.43-1.75a1.12,1.12,0,0,1,1.55.26,1.1,1.1,0,0,1-.25,1.54l-2.43,1.75a1.11,1.11,0,0,1-1.3-1.8Z"/><path class="cls-5" d="M1830.67,1014.25l2.4-1.8a1.11,1.11,0,0,1,1.33,1.77l-2.4,1.8a1.11,1.11,0,1,1-1.33-1.77Z"/><path class="cls-5" d="M1838.6,1008.2l2.35-1.85a1.1,1.1,0,1,1,1.37,1.73l-2.36,1.85a1.1,1.1,0,1,1-1.36-1.73Z"/><path class="cls-5" d="M1846.39,1002l2.31-1.9a1.1,1.1,0,0,1,1.4,1.7l-2.31,1.9a1.1,1.1,0,1,1-1.41-1.7Z"/><path class="cls-5" d="M1854,995.57l2.28-2a1.1,1.1,0,0,1,1.43,1.66l-2.27,2a1.1,1.1,0,1,1-1.44-1.66Z"/><path class="cls-5" d="M1861.54,989l2.23-2a1.09,1.09,0,1,1,1.47,1.62l-2.23,2a1.1,1.1,0,1,1-1.47-1.63Z"/><path class="cls-5" d="M1868.9,982.28l2.18-2a1.09,1.09,0,1,1,1.5,1.59l-2.18,2a1.09,1.09,0,1,1-1.5-1.59Z"/><path class="cls-5" d="M1876.11,975.39l2.13-2.1a1.09,1.09,0,1,1,1.53,1.55l-2.13,2.1a1.09,1.09,0,1,1-1.53-1.55Z"/><path class="cls-5" d="M1883.16,968.34l2.09-2.15a1.09,1.09,0,1,1,1.56,1.52l-2.09,2.15a1.09,1.09,0,0,1-1.56-1.52Z"/><path class="cls-5" d="M1890.05,961.14l2-2.2a1.09,1.09,0,1,1,1.59,1.48l-2,2.19a1.08,1.08,0,1,1-1.59-1.47Z"/><path class="cls-5" d="M1896.78,953.78l2-2.24a1.07,1.07,0,0,1,1.52-.09,1.08,1.08,0,0,1,.09,1.53l-2,2.24a1.08,1.08,0,1,1-1.62-1.44Z"/><path class="cls-5" d="M1903.35,946.28l2-2.29a1.08,1.08,0,1,1,1.64,1.4l-1.94,2.29a1.08,1.08,0,0,1-1.65-1.4Z"/><path class="cls-5" d="M1909.76,938.63l1.89-2.32a1.07,1.07,0,0,1,1.52-.16,1.09,1.09,0,0,1,.16,1.52l-1.9,2.32a1.06,1.06,0,0,1-1.51.16,1.07,1.07,0,0,1-.16-1.52Z"/><path class="cls-5" d="M1916,930.85l1.84-2.37a1.07,1.07,0,0,1,1.51-.18,1.06,1.06,0,0,1,.19,1.5l-1.84,2.37a1.08,1.08,0,0,1-1.7-1.32Z"/><path class="cls-5" d="M1922.07,922.93l1.8-2.4a1.07,1.07,0,1,1,1.72,1.28l-1.79,2.41a1.08,1.08,0,1,1-1.73-1.29Z"/><path class="cls-5" d="M1928,914.9l1.73-2.45a1.08,1.08,0,0,1,1.5-.25,1.07,1.07,0,0,1,.25,1.49l-1.74,2.45a1.07,1.07,0,1,1-1.74-1.24Z"/><path class="cls-5" d="M1933.69,906.72l1.68-2.47a1.08,1.08,0,0,1,1.49-.29,1.06,1.06,0,0,1,.28,1.48l-1.68,2.48a1.07,1.07,0,1,1-1.77-1.19Z"/><path class="cls-5" d="M1939.23,898.43l1.64-2.51a1.07,1.07,0,0,1,1.79,1.16L1941,899.6a1.07,1.07,0,0,1-1.79-1.17Z"/><path class="cls-5" d="M1944.62,890l1.59-2.55a1.07,1.07,0,0,1,1.47-.33,1.06,1.06,0,0,1,.33,1.46l-1.59,2.54a1.06,1.06,0,1,1-1.8-1.12Z"/><path class="cls-5" d="M1949.86,881.55l1.55-2.57a1.06,1.06,0,0,1,1.82,1.1l-1.55,2.56a1.06,1.06,0,0,1-1.82-1.09Z"/><path class="cls-5" d="M1955,873l1.51-2.59a1.06,1.06,0,0,1,1.83,1.07L1956.8,874A1.06,1.06,0,1,1,1955,873Z"/><path class="cls-5" d="M1960,864.33l1.47-2.62a1.07,1.07,0,0,1,1.44-.4,1.05,1.05,0,0,1,.4,1.44l-1.47,2.61a1.05,1.05,0,0,1-1.44.4,1,1,0,0,1-.4-1.43Z"/><path class="cls-5" d="M1964.81,855.61l1.44-2.64a1.05,1.05,0,1,1,1.85,1l-1.44,2.63a1.05,1.05,0,0,1-1.43.42,1,1,0,0,1-.42-1.42Z"/><path class="cls-5" d="M1969.55,846.82l1.4-2.65a1.06,1.06,0,0,1,1.42-.44,1,1,0,0,1,.44,1.42l-1.4,2.65a1.05,1.05,0,0,1-1.86-1Z"/><path class="cls-5" d="M1974.18,838l1.37-2.67a1,1,0,1,1,1.86,1l-1.36,2.67a1,1,0,1,1-1.87-.95Z"/><path class="cls-5" d="M1978.7,829.07l1.33-2.68a1,1,0,0,1,1.87.93l-1.33,2.68a1,1,0,0,1-1.87-.93Z"/><path class="cls-5" d="M1983.1,820.11l1.3-2.7a1,1,0,0,1,1.88.9L1985,821a1,1,0,0,1-1.88-.91Z"/><path class="cls-5" d="M1987.4,811.1l1.27-2.72a1,1,0,1,1,1.88.88l-1.27,2.72a1,1,0,1,1-1.88-.88Z"/><path class="cls-5" d="M1991.58,802l1.24-2.73a1,1,0,0,1,1.89.85l-1.23,2.74a1,1,0,0,1-1.9-.86Z"/><path class="cls-5" d="M1995.66,792.91l1.21-2.74a1,1,0,0,1,1.36-.54,1,1,0,0,1,.53,1.37l-1.2,2.75a1,1,0,0,1-1.9-.83Z"/><path class="cls-5" d="M1999.63,783.75l1.17-2.76a1,1,0,0,1,1.36-.55,1,1,0,0,1,.54,1.35l-1.17,2.77a1,1,0,1,1-1.9-.81Z"/><path class="cls-5" d="M2003.49,774.54l1.14-2.78a1,1,0,0,1,1.9.78l-1.13,2.78a1,1,0,0,1-1.91-.78Z"/><path class="cls-5" d="M2007.24,765.28l1.1-2.79a1,1,0,0,1,1.91.76l-1.1,2.79a1,1,0,1,1-1.91-.76Z"/><path class="cls-5" d="M2010.87,756l1.07-2.8a1,1,0,0,1,1.91.73l-1.07,2.8a1,1,0,1,1-1.91-.73Z"/><path class="cls-5" d="M2014.38,746.63l1-2.81a1,1,0,0,1,1.31-.61,1,1,0,0,1,.6,1.31l-1,2.82a1,1,0,0,1-1.31.61,1,1,0,0,1-.61-1.32Z"/><path class="cls-5" d="M2017.78,737.24l1-2.83a1,1,0,1,1,1.92.68l-1,2.83a1,1,0,1,1-1.92-.68Z"/><path class="cls-5" d="M2021.05,727.81l1-2.84a1,1,0,1,1,1.93.65l-1,2.84a1,1,0,0,1-1.93-.65Z"/><path class="cls-5" d="M2024.2,718.33l.92-2.85a1,1,0,1,1,1.93.62l-.92,2.86a1,1,0,0,1-1.93-.63Z"/><path class="cls-5" d="M2027.22,708.81l.88-2.86a1,1,0,0,1,1.94.59l-.88,2.87a1,1,0,0,1-1.94-.6Z"/><path class="cls-5" d="M2030.1,699.25l.84-2.88a1,1,0,0,1,1.26-.68,1,1,0,0,1,.68,1.25l-.84,2.88a1,1,0,0,1-1.25.69,1,1,0,0,1-.69-1.25Z"/><path class="cls-5" d="M2032.85,689.65l.8-2.89a1,1,0,0,1,1.94.54l-.8,2.89a1,1,0,1,1-1.94-.54Z"/><path class="cls-5" d="M2035.45,680l.75-2.9a1,1,0,0,1,2,.5l-.75,2.91a1,1,0,1,1-2-.51Z"/><path class="cls-5" d="M2037.9,670.33l.7-2.91a1,1,0,1,1,2,.47l-.7,2.92a1,1,0,0,1-1.95-.48Z"/><path class="cls-5" d="M2040.19,660.62l.66-2.93a1,1,0,0,1,1.19-.76,1,1,0,0,1,.76,1.2l-.66,2.92a1,1,0,0,1-2-.43Z"/><path class="cls-5" d="M2042.32,650.86l.6-2.94a1,1,0,0,1,1.18-.77,1,1,0,0,1,.77,1.17l-.6,2.94a1,1,0,1,1-2-.4Z"/><path class="cls-5" d="M2044.27,641.07l.55-3a1,1,0,1,1,2,.37l-.55,3a1,1,0,0,1-2-.37Z"/><path class="cls-5" d="M2046,631.25l.49-3a1,1,0,0,1,2,.32l-.49,3a1,1,0,0,1-1.15.82,1,1,0,0,1-.81-1.14Z"/><path class="cls-5" d="M2047.61,621.39l.44-3a1,1,0,1,1,2,.29l-.44,3a1,1,0,0,1-1.12.83,1,1,0,0,1-.84-1.12Z"/><path class="cls-5" d="M2049,611.5l.37-3a1,1,0,0,1,1.1-.86,1,1,0,0,1,.86,1.1l-.37,3a1,1,0,1,1-2-.25Z"/><path class="cls-5" d="M2050.14,601.59l.31-3a1,1,0,0,1,2,.19l-.31,3a1,1,0,0,1-1.08.88A1,1,0,0,1,2050.14,601.59Z"/><path class="cls-5" d="M2051.07,591.65l.23-3a1,1,0,0,1,1.06-.9,1,1,0,0,1,.9,1l-.23,3a1,1,0,0,1-2-.16Z"/><path class="cls-5" d="M2051.76,581.7l.15-3a1,1,0,0,1,1-.92,1,1,0,0,1,.93,1l-.16,3a1,1,0,1,1-1.95-.1Z"/><path class="cls-5" d="M2052.18,571.73l.07-3a1,1,0,0,1,2,0l-.08,3a1,1,0,1,1-2,0Z"/><path class="cls-5" d="M2052.33,561.76v-3a1,1,0,1,1,1.94,0l0,3a1,1,0,0,1-2,0Z"/><path class="cls-5" d="M2052.18,551.79l-.1-3a1,1,0,1,1,1.94-.06l.11,3a1,1,0,0,1-2,.07Z"/><path class="cls-5" d="M2051.72,541.83l-.2-3a1,1,0,1,1,1.93-.13l.21,3a1,1,0,0,1-1.94.13Z"/><path class="cls-5" d="M2050.92,531.9l-.31-3a1,1,0,0,1,1.93-.2l.31,3a1,1,0,0,1-1.93.2Z"/><path class="cls-5" d="M2049.76,522l-.42-3a1,1,0,0,1,.82-1.09,1,1,0,0,1,1.09.82l.42,3a1,1,0,0,1-.81,1.09A1,1,0,0,1,2049.76,522Z"/><path class="cls-5" d="M2048.22,512.16l-.54-2.95a1,1,0,1,1,1.89-.35l.55,2.95a1,1,0,0,1-1.9.35Z"/><path class="cls-5" d="M2046.27,502.4l-.67-2.92a1,1,0,0,1,1.87-.43l.67,2.92a1,1,0,1,1-1.87.43Z"/><path class="cls-5" d="M2043.89,492.73l-.81-2.88a1,1,0,0,1,.67-1.18.94.94,0,0,1,1.17.66l.81,2.89a1,1,0,0,1-.66,1.18,1,1,0,0,1-1.18-.66Z"/><path class="cls-5" d="M2041.05,483.2l-1-2.84a1,1,0,0,1,.6-1.21,1,1,0,0,1,1.21.61l.95,2.84a1,1,0,0,1-.6,1.21,1,1,0,0,1-1.21-.61Z"/><path class="cls-5" d="M2037.73,473.83l-1.1-2.79a1,1,0,1,1,1.77-.7l1.1,2.79a1,1,0,0,1-.54,1.23A.94.94,0,0,1,2037.73,473.83Z"/><path class="cls-5" d="M2033.9,464.65l-1.25-2.73a.95.95,0,0,1,1.72-.79l1.26,2.72a1,1,0,0,1-1.73.8Z"/><path class="cls-5" d="M2029.56,455.7l-1.41-2.64a.95.95,0,0,1,1.67-.89l1.41,2.64a.95.95,0,0,1-1.67.89Z"/><path class="cls-5" d="M2024.7,447l-1.58-2.55a1,1,0,0,1,.31-1.3.93.93,0,0,1,1.3.31l1.57,2.55a.94.94,0,1,1-1.6,1Z"/><path class="cls-5" d="M2019.3,438.7l-1.73-2.45a.94.94,0,0,1,1.53-1.09l1.74,2.45a.94.94,0,0,1-1.54,1.09Z"/><path class="cls-5" d="M2013.38,430.72l-1.89-2.33a.94.94,0,1,1,1.46-1.18l1.89,2.33a.94.94,0,0,1-1.46,1.18Z"/><path class="cls-5" d="M2007,423.15l-2-2.2a1,1,0,0,1,.06-1.33.93.93,0,0,1,1.32.06l2,2.19a.94.94,0,1,1-1.38,1.28Z"/><path class="cls-5" d="M2000,416l-2.18-2.06a.93.93,0,0,1,1.29-1.35l2.17,2.06A.93.93,0,1,1,2000,416Z"/><path class="cls-5" d="M1992.67,409.35l-2.3-1.92a.93.93,0,0,1,1.19-1.43l2.3,1.91a.93.93,0,1,1-1.19,1.44Z"/><path class="cls-5" d="M1984.89,403.16l-2.42-1.76a.94.94,0,0,1-.2-1.3.92.92,0,0,1,1.29-.2l2.43,1.76a.94.94,0,0,1,.2,1.3.92.92,0,0,1-1.3.2Z"/><path class="cls-5" d="M1976.74,397.48l-2.53-1.62a.93.93,0,1,1,1-1.56l2.53,1.62a.92.92,0,0,1,.28,1.28.93.93,0,0,1-1.28.28Z"/><path class="cls-5" d="M1968.26,392.29l-2.62-1.47a.92.92,0,0,1,.9-1.61l2.62,1.47a.92.92,0,0,1-.9,1.61Z"/><path class="cls-5" d="M1959.49,387.6l-2.7-1.32a.92.92,0,0,1,.81-1.66l2.7,1.32a.92.92,0,0,1-.81,1.66Z"/><path class="cls-5" d="M1950.48,383.38l-2.76-1.18a.91.91,0,1,1,.72-1.68l2.76,1.17a.92.92,0,0,1-.72,1.69Z"/><path class="cls-5" d="M1941.26,379.63l-2.82-1a.92.92,0,0,1,.64-1.72l2.81,1a.92.92,0,0,1-.63,1.72Z"/><path class="cls-5" d="M1931.86,376.31l-2.85-.92a.91.91,0,1,1,.56-1.74l2.86.92a.92.92,0,0,1-.57,1.74Z"/><path class="cls-5" d="M1922.34,373.39l-2.89-.81a.91.91,0,0,1,.49-1.75l2.89.8a.91.91,0,0,1-.49,1.76Z"/><path class="cls-5" d="M1912.7,370.86l-2.92-.68a.91.91,0,0,1,.42-1.77l2.92.68a.91.91,0,0,1,.68,1.09.92.92,0,0,1-1.1.68Z"/><path class="cls-5" d="M1903,368.73l-2.94-.57a.9.9,0,1,1,.34-1.77l2.94.56a.91.91,0,0,1-.34,1.78Z"/><path class="cls-5" d="M1893.16,367l-3-.45a.9.9,0,0,1,.27-1.78l3,.44a.91.91,0,1,1-.27,1.79Z"/><path class="cls-5" d="M1883.29,365.64l-3-.33a.9.9,0,1,1,.2-1.79l3,.33a.9.9,0,0,1-.2,1.79Z"/><path class="cls-5" d="M1873.37,364.66l-3-.22a.88.88,0,0,1-.83-1,.91.91,0,0,1,1-.83l3,.22a.9.9,0,0,1,.83,1,.88.88,0,0,1-1,.83Z"/><path class="cls-5" d="M1863.42,364.06l-3-.12a.89.89,0,0,1-.87-.92.91.91,0,0,1,.93-.87l3,.12a.89.89,0,0,1,.86.92.9.9,0,0,1-.93.87Z"/><path class="cls-5" d="M1853.46,363.8h-3a.89.89,0,1,1,0-1.78h3a.89.89,0,1,1,0,1.78Z"/><path class="cls-5" d="M1843.49,363.89l-3,.09a.89.89,0,0,1,0-1.78l3-.09a.88.88,0,0,1,.91.86.89.89,0,0,1-.86.92Z"/><path class="cls-5" d="M1833.53,364.3l-3,.18a.89.89,0,1,1-.1-1.77l3-.19a.89.89,0,0,1,.11,1.78Z"/><path class="cls-5" d="M1823.58,365l-3,.27a.88.88,0,0,1-1-.8.9.9,0,0,1,.8-1l3-.27a.88.88,0,1,1,.16,1.76Z"/><path class="cls-5" d="M1813.66,366l-3,.35a.88.88,0,1,1-.21-1.75l3-.36a.89.89,0,0,1,.21,1.76Z"/><path class="cls-5" d="M1803.76,367.29l-3,.44a.88.88,0,0,1-1-.75.87.87,0,0,1,.74-1l3-.44a.88.88,0,1,1,.26,1.74Z"/><path class="cls-5" d="M1793.91,368.83l-3,.5a.87.87,0,0,1-.3-1.72l3-.51a.86.86,0,0,1,1,.71.89.89,0,0,1-.71,1Z"/><path class="cls-5" d="M1784.08,370.6l-2.94.57a.87.87,0,1,1-.34-1.71l3-.58a.87.87,0,0,1,1,.69.89.89,0,0,1-.7,1Z"/><path class="cls-5" d="M1774.3,372.59l-2.92.64a.87.87,0,0,1-.37-1.71l2.92-.64a.88.88,0,0,1,.38,1.71Z"/><path class="cls-5" d="M1764.58,374.79l-2.92.7a.87.87,0,0,1-1.05-.65.88.88,0,0,1,.64-1l2.92-.7a.87.87,0,0,1,.41,1.7Z"/><path class="cls-5" d="M1754.88,377.18l-2.9.75a.87.87,0,0,1-.44-1.68l2.91-.75a.87.87,0,0,1,.43,1.68Z"/><path class="cls-5" d="M1745.23,379.74l-2.89.81a.87.87,0,0,1-1.06-.61.86.86,0,0,1,.6-1.06l2.89-.8a.86.86,0,1,1,.46,1.66Z"/><path class="cls-5" d="M1735.63,382.47l-2.88.85a.87.87,0,0,1-1.07-.58.85.85,0,0,1,.58-1.07l2.88-.86a.87.87,0,0,1,.49,1.66Z"/><path class="cls-5" d="M1726.06,385.35l-2.86.89a.86.86,0,0,1-.51-1.65l2.86-.89a.86.86,0,1,1,.51,1.65Z"/><path class="cls-5" d="M1716.54,388.36l-2.86.92a.85.85,0,0,1-1.08-.55.86.86,0,0,1,.55-1.08l2.86-.93a.86.86,0,0,1,.53,1.64Z"/><path class="cls-5" d="M1707.05,391.49l-2.84,1a.85.85,0,0,1-1.08-.54.84.84,0,0,1,.53-1.08l2.84-1a.86.86,0,1,1,.55,1.62Z"/><path class="cls-5" d="M1697.6,394.73l-2.83,1a.85.85,0,1,1-.56-1.61l2.83-1a.85.85,0,0,1,.56,1.61Z"/><path class="cls-5" d="M1688.18,398.07l-2.82,1a.85.85,0,1,1-.58-1.6l2.82-1a.85.85,0,0,1,.58,1.6Z"/><path class="cls-5" d="M1678.8,401.49l-2.82,1a.84.84,0,1,1-.59-1.58l2.82-1.05a.85.85,0,1,1,.59,1.59Z"/><path class="cls-5" d="M1669.43,405l-2.8,1.06a.85.85,0,1,1-.6-1.58l2.8-1.06a.85.85,0,0,1,.6,1.58Z"/><path class="cls-5" d="M1660.09,408.55l-2.8,1.08a.84.84,0,0,1-.61-1.57l2.81-1.08a.84.84,0,1,1,.6,1.57Z"/><path class="cls-5" d="M1650.77,412.16l-2.79,1.1a.84.84,0,1,1-.61-1.57l2.79-1.09a.84.84,0,1,1,.61,1.56Z"/><path class="cls-89" d="M272,602.25a1.54,1.54,0,0,1-.84-.26l-1.33-.9a1.5,1.5,0,0,1,1.68-2.48l1.33.89a1.51,1.51,0,0,1,.41,2.08A1.49,1.49,0,0,1,272,602.25Zm-7.1-4.87a1.44,1.44,0,0,1-.86-.27c-.83-.57-1.65-1.15-2.47-1.73a1.51,1.51,0,0,1-.36-2.09,1.5,1.5,0,0,1,2.09-.36l2.46,1.72a1.5,1.5,0,0,1-.86,2.73Zm-8.15-5.81a1.48,1.48,0,0,1-.89-.29l-2.43-1.78a1.5,1.5,0,0,1,1.78-2.41l2.42,1.77a1.5,1.5,0,0,1-.88,2.71Zm-8-6a1.57,1.57,0,0,1-.91-.3l-2.38-1.84a1.5,1.5,0,0,1,1.83-2.37l2.37,1.82a1.5,1.5,0,0,1-.91,2.69Zm-7.88-6.15a1.52,1.52,0,0,1-.94-.33l-2.34-1.88a1.5,1.5,0,0,1,1.89-2.34l2.32,1.88a1.5,1.5,0,0,1-.93,2.67Zm-7.74-6.33a1.51,1.51,0,0,1-1-.35l-2.3-1.94a1.5,1.5,0,0,1,2-2.29c.75.65,1.51,1.29,2.28,1.93a1.49,1.49,0,0,1,.18,2.11A1.47,1.47,0,0,1,233.08,573.11Zm-7.57-6.52a1.51,1.51,0,0,1-1-.37l-2.25-2a1.5,1.5,0,0,1,2-2.23l2.22,2a1.5,1.5,0,0,1-1,2.62Zm-7.39-6.71a1.51,1.51,0,0,1-1-.41l-2.18-2.06a1.5,1.5,0,1,1,2.06-2.17l2.17,2a1.49,1.49,0,0,1,.07,2.12A1.47,1.47,0,0,1,218.12,559.88Zm-7.2-6.92a1.52,1.52,0,0,1-1.06-.43l-2.12-2.13a1.5,1.5,0,0,1,2.13-2.11c.7.7,1.4,1.41,2.1,2.1a1.51,1.51,0,0,1,0,2.13A1.53,1.53,0,0,1,210.92,553Zm-7-7.13a1.5,1.5,0,0,1-1.09-.46l-2.06-2.19a1.5,1.5,0,0,1,2.2-2c.67.73,1.35,1.45,2,2.17a1.49,1.49,0,0,1-.05,2.12A1.47,1.47,0,0,1,203.94,545.83Zm-6.76-7.36a1.5,1.5,0,0,1-1.12-.5c-.67-.75-1.33-1.51-2-2.27a1.5,1.5,0,0,1,2.26-2l2,2.25a1.5,1.5,0,0,1-.13,2.12A1.49,1.49,0,0,1,197.18,538.47Zm-6.5-7.6a1.5,1.5,0,0,1-1.16-.54l-1.9-2.34a1.5,1.5,0,1,1,2.33-1.88c.63.77,1.25,1.54,1.89,2.31a1.5,1.5,0,0,1-.21,2.11A1.48,1.48,0,0,1,190.68,530.87ZM184.47,523a1.48,1.48,0,0,1-1.19-.59c-.61-.8-1.22-1.6-1.82-2.41a1.51,1.51,0,0,1,2.42-1.79c.59.8,1.18,1.6,1.78,2.39a1.49,1.49,0,0,1-.28,2.1A1.46,1.46,0,0,1,184.47,523ZM178.59,515a1.5,1.5,0,0,1-1.23-.65q-.87-1.23-1.71-2.49a1.5,1.5,0,0,1,2.49-1.68q.83,1.25,1.68,2.46a1.5,1.5,0,0,1-1.23,2.36Zm-5.52-8.34a1.52,1.52,0,0,1-1.27-.7l-1.59-2.57a1.5,1.5,0,0,1,2.57-1.56c.51.84,1,1.69,1.56,2.53a1.5,1.5,0,0,1-.47,2.07A1.54,1.54,0,0,1,173.07,506.61ZM168,498a1.52,1.52,0,0,1-1.31-.77c-.49-.88-1-1.76-1.45-2.65a1.5,1.5,0,0,1,.6-2,1.52,1.52,0,0,1,2,.6c.47.88.95,1.75,1.43,2.61a1.49,1.49,0,0,1-.57,2A1.55,1.55,0,0,1,168,498Zm-4.65-8.85a1.52,1.52,0,0,1-1.35-.84c-.44-.91-.88-1.82-1.31-2.73a1.5,1.5,0,0,1,2.72-1.28c.42.9.85,1.79,1.29,2.68a1.5,1.5,0,0,1-.69,2A1.43,1.43,0,0,1,163.31,489.17Zm-4.14-9.09a1.5,1.5,0,0,1-1.39-.91c-.39-.93-.77-1.86-1.14-2.8a1.5,1.5,0,1,1,2.78-1.11c.37.92.74,1.83,1.13,2.74a1.5,1.5,0,0,1-.8,2A1.34,1.34,0,0,1,159.17,480.08Zm-3.59-9.31a1.5,1.5,0,0,1-1.42-1c-.33-.95-.65-1.91-1-2.86a1.51,1.51,0,1,1,2.86-.94c.3.94.62,1.88.94,2.81a1.49,1.49,0,0,1-.92,1.91A1.4,1.4,0,0,1,155.58,470.77Zm-3-9.52a1.51,1.51,0,0,1-1.45-1.11c-.26-1-.52-1.95-.77-2.93a1.5,1.5,0,1,1,2.91-.73c.24,1,.49,1.92.76,2.87a1.49,1.49,0,0,1-1.05,1.84A1.44,1.44,0,0,1,152.6,461.25Zm-2.3-9.73a1.51,1.51,0,0,1-1.47-1.21c-.2-1-.39-2-.57-3a1.5,1.5,0,0,1,3-.53c.17,1,.35,1.95.55,2.92a1.52,1.52,0,0,1-1.18,1.77Zm-1.63-9.87a1.51,1.51,0,0,1-1.49-1.31c-.13-1-.25-2-.36-3a1.5,1.5,0,1,1,3-.33c.11,1,.23,2,.36,2.95a1.51,1.51,0,0,1-1.3,1.68Zm-1-9.95a1.49,1.49,0,0,1-1.49-1.39c-.08-1-.14-2-.19-3a1.5,1.5,0,0,1,3-.15q.08,1.49.18,3a1.51,1.51,0,0,1-1.39,1.6Zm-.4-10.34a1.36,1.36,0,0,1-1.5-1.31c0-.7,0-1.31,0-2v-1a1.63,1.63,0,0,1,1.5-1.62h0a1.65,1.65,0,0,1,1.49,1.68v1c0,.7,0,1.26,0,2a1.38,1.38,0,0,1-1.48,1.38Zm.16-10h-.06a1.34,1.34,0,0,1-1.44-1.39c0-1,.09-1.92.15-2.93a1.49,1.49,0,0,1,1.58-1.37,1.52,1.52,0,0,1,1.41,1.61c-.05,1-.1,1.82-.14,2.81A1.37,1.37,0,0,1,147.44,411.36Zm.66-9.63H148a1.51,1.51,0,0,1-1.36-1.63c.09-1,.19-2,.29-3a1.5,1.5,0,0,1,3,.31c-.11,1-.2,2-.29,3A1.49,1.49,0,0,1,148.1,401.73Zm1.12-9.93-.2,0a1.49,1.49,0,0,1-1.29-1.68l.42-3a1.5,1.5,0,1,1,3,.44l-.42,2.95A1.5,1.5,0,0,1,149.22,391.8Zm1.55-9.88-.27,0a1.5,1.5,0,0,1-1.21-1.74q.26-1.49.54-3a1.5,1.5,0,1,1,2.95.56c-.19,1-.37,1.95-.54,2.93A1.51,1.51,0,0,1,150.77,381.92Zm1.93-9.81a1.17,1.17,0,0,1-.32,0,1.5,1.5,0,0,1-1.15-1.78c.21-1,.43-2,.66-3a1.5,1.5,0,1,1,2.92.67c-.22,1-.44,1.94-.65,2.91A1.49,1.49,0,0,1,152.7,372.11Zm2.29-9.74a1.55,1.55,0,0,1-.37,0,1.51,1.51,0,0,1-1.09-1.83c.25-1,.5-1.94.76-2.92a1.5,1.5,0,0,1,2.9.77c-.26,1-.5,1.93-.75,2.89A1.49,1.49,0,0,1,155,362.37Zm2.61-9.65a1.51,1.51,0,0,1-1.44-1.92c.28-1,.56-1.93.85-2.89a1.5,1.5,0,1,1,2.88.86c-.29,1-.57,1.91-.84,2.87A1.52,1.52,0,0,1,157.6,352.72Zm2.92-9.57a1.51,1.51,0,0,1-.46-.07,1.49,1.49,0,0,1-1-1.89c.3-.95.61-1.91.93-2.86a1.5,1.5,0,0,1,2.85.94c-.32,1-.62,1.89-.93,2.84A1.49,1.49,0,0,1,160.52,343.15Zm3.2-9.47a1.51,1.51,0,0,1-.5-.09,1.49,1.49,0,0,1-.91-1.91c.33-.95.67-1.9,1-2.84a1.5,1.5,0,1,1,2.82,1c-.34.94-.67,1.88-1,2.81A1.51,1.51,0,0,1,163.72,333.68Zm3.46-9.39a1.47,1.47,0,0,1-.54-.1,1.5,1.5,0,0,1-.86-1.94l1.08-2.81a1.5,1.5,0,0,1,2.8,1.1q-.56,1.4-1.08,2.79A1.51,1.51,0,0,1,167.18,324.29Zm3.7-9.31a1.46,1.46,0,0,1-.57-.12,1.5,1.5,0,0,1-.82-2l1.17-2.79a1.5,1.5,0,1,1,2.76,1.17c-.39.92-.77,1.84-1.15,2.77A1.5,1.5,0,0,1,170.88,315Zm3.93-9.23a1.44,1.44,0,0,1-.6-.13,1.5,1.5,0,0,1-.77-2l1.23-2.76a1.5,1.5,0,1,1,2.74,1.22c-.41.92-.82,1.83-1.22,2.75A1.51,1.51,0,0,1,174.81,305.75Zm4.15-9.12a1.46,1.46,0,0,1-.64-.15,1.49,1.49,0,0,1-.72-2q.63-1.37,1.29-2.73a1.5,1.5,0,1,1,2.7,1.29c-.43.9-.85,1.81-1.27,2.71A1.51,1.51,0,0,1,179,296.63Zm4.33-9a1.43,1.43,0,0,1-.66-.16,1.5,1.5,0,0,1-.68-2l1.34-2.7a1.5,1.5,0,0,1,2.69,1.35c-.45.89-.9,1.78-1.34,2.68A1.5,1.5,0,0,1,183.29,287.61Zm4.53-8.93a1.41,1.41,0,0,1-.69-.17,1.5,1.5,0,0,1-.64-2l1.39-2.66a1.5,1.5,0,1,1,2.66,1.4c-.47.88-.93,1.76-1.39,2.64A1.49,1.49,0,0,1,187.82,278.68Zm4.7-8.81a1.44,1.44,0,0,1-.72-.19,1.49,1.49,0,0,1-.6-2c.48-.88,1-1.76,1.45-2.63a1.5,1.5,0,1,1,2.62,1.45l-1.44,2.61A1.49,1.49,0,0,1,192.52,269.87Zm4.86-8.72a1.42,1.42,0,0,1-.74-.2,1.49,1.49,0,0,1-.56-2c.49-.87,1-1.74,1.49-2.6a1.5,1.5,0,0,1,2.6,1.5l-1.49,2.58A1.48,1.48,0,0,1,197.38,261.15Zm5-8.63a1.51,1.51,0,0,1-1.29-2.27c.52-.86,1-1.73,1.55-2.58a1.5,1.5,0,1,1,2.57,1.55c-.51.85-1,1.7-1.54,2.56A1.51,1.51,0,0,1,202.41,252.52Zm5.2-8.55a1.45,1.45,0,0,1-.79-.23,1.49,1.49,0,0,1-.48-2.06q.79-1.29,1.59-2.55a1.5,1.5,0,1,1,2.54,1.59c-.53.85-1.06,1.69-1.58,2.54A1.51,1.51,0,0,1,207.61,244Zm5.36-8.45a1.56,1.56,0,0,1-.82-.24,1.51,1.51,0,0,1-.44-2.08l1.64-2.52a1.5,1.5,0,0,1,2.51,1.64l-1.63,2.51A1.49,1.49,0,0,1,213,235.52Zm5.5-8.35a1.51,1.51,0,0,1-1.24-2.34l1.69-2.49a1.5,1.5,0,0,1,2.08-.4,1.52,1.52,0,0,1,.4,2.09l-1.68,2.47A1.48,1.48,0,0,1,218.47,227.17Zm5.66-8.25a1.45,1.45,0,0,1-.86-.28,1.49,1.49,0,0,1-.37-2.08l1.73-2.46a1.5,1.5,0,0,1,2.45,1.73l-1.72,2.45A1.52,1.52,0,0,1,224.13,218.92Zm5.81-8.15a1.43,1.43,0,0,1-.88-.29,1.5,1.5,0,0,1-.34-2.09L230.5,206a1.5,1.5,0,0,1,2.42,1.77l-1.77,2.42A1.48,1.48,0,0,1,229.94,210.77Zm5.95-8a1.52,1.52,0,0,1-.9-.3,1.5,1.5,0,0,1-.29-2.1c.6-.81,1.21-1.61,1.82-2.4a1.5,1.5,0,0,1,2.38,1.82l-1.81,2.38A1.51,1.51,0,0,1,235.89,202.73Zm6.11-7.92a1.51,1.51,0,0,1-1.18-2.43c.62-.79,1.24-1.58,1.87-2.36a1.5,1.5,0,1,1,2.34,1.87l-1.85,2.34A1.51,1.51,0,0,1,242,194.81Zm6.26-7.81a1.48,1.48,0,0,1-.95-.34,1.49,1.49,0,0,1-.21-2.11l1.91-2.32a1.5,1.5,0,1,1,2.31,1.91l-1.9,2.31A1.51,1.51,0,0,1,248.26,187Zm6.42-7.67a1.51,1.51,0,0,1-1.14-2.48l2-2.28a1.5,1.5,0,1,1,2.26,2c-.64.75-1.3,1.5-1.95,2.27A1.52,1.52,0,0,1,254.68,179.33Zm6.59-7.53a1.49,1.49,0,0,1-1.11-2.5c.67-.75,1.35-1.5,2-2.23a1.49,1.49,0,0,1,2.12-.1,1.51,1.51,0,0,1,.1,2.12l-2,2.21A1.51,1.51,0,0,1,261.27,171.8Z"/><path class="cls-2" d="M1741.77,184.83a68.09,68.09,0,1,1,68.09-68.09A68.18,68.18,0,0,1,1741.77,184.83Zm0-134.18a66.09,66.09,0,1,0,66.09,66.09A66.16,66.16,0,0,0,1741.77,50.65Z"/><path class="cls-2" d="M1741.77,173.28a56.54,56.54,0,1,1,56.53-56.54A56.61,56.61,0,0,1,1741.77,173.28Zm0-109.6a53.06,53.06,0,1,0,53,53.06A53.12,53.12,0,0,0,1741.77,63.68Z"/><path class="cls-2" d="M1758.43,107.59H1764a1.27,1.27,0,0,0,1.27-1.27v-3.81a12.94,12.94,0,0,0-12.92-12.93h-21.21a12.94,12.94,0,0,0-12.92,12.93v7a12.94,12.94,0,0,0,12.92,12.92h21.21a4.8,4.8,0,0,1,4.79,4.79V131a4.8,4.8,0,0,1-4.79,4.79h-21.21a4.8,4.8,0,0,1-4.79-4.79v-.33a1.27,1.27,0,0,0-1.27-1.27h-5.59a1.27,1.27,0,0,0-1.27,1.27V131a12.94,12.94,0,0,0,12.92,12.93h21.21A12.94,12.94,0,0,0,1765.29,131v-3.78a12.93,12.93,0,0,0-12.92-12.92h-21.21a4.8,4.8,0,0,1-4.79-4.79v-7a4.8,4.8,0,0,1,4.79-4.8h21.21a4.8,4.8,0,0,1,4.79,4.8v3.81A1.27,1.27,0,0,0,1758.43,107.59Z"/><path class="cls-2" d="M1745,149.08c0,1.17-1.43,2.13-3.19,2.13h0c-1.77,0-3.2-1-3.2-2.13V84.4c0-1.18,1.43-2.13,3.2-2.13h0c1.76,0,3.19,1,3.19,2.13Z"/><path class="cls-2" d="M1853.87,278.8a46,46,0,1,1,46-46A46.06,46.06,0,0,1,1853.87,278.8Zm0-90a44,44,0,1,0,44,44A44.06,44.06,0,0,0,1853.87,188.77Z"/><path class="cls-2" d="M1853.87,270.72a37.94,37.94,0,1,1,37.94-37.93A38,38,0,0,1,1853.87,270.72Zm0-73.53a35.6,35.6,0,1,0,35.6,35.6A35.64,35.64,0,0,0,1853.87,197.19Z"/><path class="cls-2" d="M1865.06,226.65h3.75a.85.85,0,0,0,.85-.85v-2.56a8.68,8.68,0,0,0-8.67-8.67h-14.23a8.68,8.68,0,0,0-8.67,8.67v4.68a8.68,8.68,0,0,0,8.67,8.67H1861a3.21,3.21,0,0,1,3.21,3.21v2.54a3.21,3.21,0,0,1-3.21,3.21h-14.23a3.21,3.21,0,0,1-3.21-3.21v-.22a.86.86,0,0,0-.86-.85h-3.75a.85.85,0,0,0-.85.85v.22a8.68,8.68,0,0,0,8.67,8.67H1861a8.68,8.68,0,0,0,8.67-8.67V239.8a8.68,8.68,0,0,0-8.67-8.67h-14.23a3.21,3.21,0,0,1-3.21-3.21v-4.68a3.22,3.22,0,0,1,3.21-3.22H1861a3.22,3.22,0,0,1,3.21,3.22v2.56A.85.85,0,0,0,1865.06,226.65Z"/><path class="cls-2" d="M1856,254.48c0,.79-1,1.43-2.15,1.43h0c-1.18,0-2.14-.64-2.14-1.43V211.09c0-.79,1-1.43,2.14-1.43h0c1.19,0,2.15.64,2.15,1.43Z"/><g class="cls-90"><path class="cls-5" d="M1232.74,492.39c-2.17-2.67-5.57-3.78-9.18-3.7l-328.47,6.89-8.3-26.36a8.54,8.54,0,0,0-8.51-5.92l-45.1,1.19c-4.83.12-8.75,3.49-8.75,8.31s3.92,8,8.75,7.88l38.54-.91,69.74,222.84a9.19,9.19,0,0,0,8.69,6.38l230.55,3.1c5.41.07,9.8-3.32,9.8-8.44s-4.39-8.62-9.8-8.68l-223.83-2.41-18-57.86,246,.38a11.4,11.4,0,0,0,10.89-7.86l38.82-125.52A9.88,9.88,0,0,0,1232.74,492.39Z"/><path class="cls-5" d="M983.87,722.74c-19-.3-34.31,14.47-34.31,32.91S964.9,789.5,983.87,790s34.7-14.25,34.7-32.9S1003,723,983.87,722.74Zm0,49.32a16.34,16.34,0,0,1-16.06-16,15.53,15.53,0,0,1,16.06-15.36,16.34,16.34,0,0,1,16.15,16A15.53,15.53,0,0,1,983.87,772.06Z"/><path class="cls-5" d="M1137.56,725.13c-19.91-.31-36,14.81-36,33.7s16.1,34.68,36,35.2S1174,779.45,1174,760.34,1157.59,725.44,1137.56,725.13Zm0,50.53c-9.3-.22-16.86-7.59-16.86-16.43s7.56-15.9,16.86-15.73,17,7.55,17,16.43S1146.89,775.88,1137.56,775.66Z"/></g><path class="cls-91" d="M291.06,970.54s-4.65,7.32-5.82,27.83a3.35,3.35,0,0,0,3.32,3.54h36.35a2.14,2.14,0,0,0,2-2.82c-2.13-6.3-8.57-21.67-22.93-30.45Z"/><path class="cls-92" d="M289.48,956.64l2,17.24a3.27,3.27,0,0,0,2.83,2.85,28.87,28.87,0,0,0,7.69-.08,5.32,5.32,0,0,0,4.39-5.28V954.73Z"/><path class="cls-93" d="M381,968.64a50.82,50.82,0,0,0-6.81,25.65,6.43,6.43,0,0,0,6.46,6.28h56.45a2.7,2.7,0,0,0,1.56-4.91c-10.69-7.5-31.68-21.52-46.87-27Z"/><path class="cls-94" d="M375.17,950l4.38,21.29a4.39,4.39,0,0,0,5.2,3.45,16,16,0,0,0,5-2.07,5,5,0,0,0,2.25-5.15l-4.54-25.79Z"/><path class="cls-95" d="M297.53,654s-15.24,13.44-18.11,29.61,8.13,279,8.13,279,15.24,2.54,23.1-2.22c0,0,9.32-170.59,16.41-210,0,0,37.15,176.7,47.45,208.62,0,0,14.69,1.79,19.42-1,0,0-9.73-229.06-22-269.78Z"/><path class="cls-96" d="M326.61,744a.76.76,0,0,1-.72-.56l-6.4-24.56-13.75-8.82a.75.75,0,0,1,.81-1.26l14,9a.77.77,0,0,1,.32.45l6.48,24.84a.75.75,0,0,1-.54.91A.58.58,0,0,1,326.61,744Z"/><path class="cls-97" d="M448,502.16c-64.18-5.33-81,8-81,8l30.84,48.69s63.07-1.25,108.25-36.08a110.06,110.06,0,0,1-18.09-27A84.84,84.84,0,0,1,448,502.16Z"/><path class="cls-98" d="M548.49,408a2,2,0,0,0-3.75-.75l-8.19,17.48a18.19,18.19,0,0,0-1.45,10.83L538,445.68a17.55,17.55,0,0,1-3.58,14c-7.52,9.4-23.55,26.58-46.36,36.06a110.06,110.06,0,0,0,18.09,27c16.58-12.77,30.76-30.07,38.53-53.49a8.59,8.59,0,0,0,6.06-8.54Z"/><path class="cls-99" d="M469.11,530.39c-22.59-24.34-65.63-35.34-90.55-39.86A22.85,22.85,0,0,0,353,505c-11.21,30.14-41.71,108.56-47.62,122-4.85,11.06-9.92,21.86-13.13,28.61a8.11,8.11,0,0,0,3.78,10.8c21,10.1,58.69,21.54,74,26a5.25,5.25,0,0,0,6.71-5.05,16.41,16.41,0,0,1,2.34-8.44L437,582.47c36.1,40,67.71,43.68,92,34.92a182.72,182.72,0,0,1-8-37.93C485.08,573.32,469.11,530.39,469.11,530.39Z"/><path class="cls-100" d="M580.26,572.74l-6.48-8.63c-21,14.4-38.48,17.81-52.82,15.35a182.72,182.72,0,0,0,8,37.93C561,605.85,580.26,572.74,580.26,572.74Z"/><path class="cls-101" d="M575.69,572.9l36.48,1.42,33.58-18.76c-4.82-3-32.08,3.16-32.08,3.16s-28.5-4.31-36.21-4.32c-6.41,0-5.49,9.2-5,12.33.1.63.19,1,.19,1Z"/><path class="cls-102" d="M412.84,445.82l-19.25,47s22.11,15.31,39.9,13.85l9.61-42.23Z"/><path class="cls-103" d="M445.35,413.8c.44.62,13.92,49.33,13.92,49.33l-28,7.11L411.66,426S438,403.34,445.35,413.8Z"/><path class="cls-104" d="M422.19,432.7l8.51,24.11a3.53,3.53,0,0,0,.45.86c1.15,1.64,5.54,7,10.75,2.18,4.72-4.38,9.1-8.31,13.14-9a3.57,3.57,0,0,1,4.06,2.57,154.71,154.71,0,0,1,4.71,23.49,3.58,3.58,0,0,1-2.9,3.85c-5.47,1-17.05,2.9-26.72,2.22a3.58,3.58,0,0,1-3-2.08c-2.67-5.82-10.83-23.49-13.87-28.06-2.85-4.29-9.84-4.17-12.77-3.91a3.55,3.55,0,0,1-2.63-.86c-2.57-2.25-7.45-8-.58-14.86a3.58,3.58,0,0,0-.08-5.15c-2.95-2.77-6.1-7.69-1.19-13.78s11.58-5.21,15.62-3.74a3.56,3.56,0,0,0,4.3-1.59,2.81,2.81,0,0,1,2.91-1.36,3.52,3.52,0,0,0,3.75-3.61c-.07-4,1.35-9,8.24-11.13,12.22-3.8,19.84,8,20.6,16.81s-12.73,12.18-20.66,11.59c-6-.45-10.5,5.52-12.3,8.41A3.55,3.55,0,0,0,422.19,432.7Z"/><path class="cls-105" d="M420.5,461.56s-2-15.29-8.34-16-12.55,4.48-6.23,13.07C413.8,469.26,420.5,461.56,420.5,461.56Z"/><path class="cls-106" d="M562.69,368.68l332-2.09c7.6,0,13.77,5.76,13.72,12.9L907,551.71c-.06,7.18-6.39,12.91-14,12.69l-328.38-9.27c-7.3-.2-13.12-5.77-13.22-12.62l-2.19-160.87C549.06,374.55,555.13,368.73,562.69,368.68Z"/><path class="cls-2" d="M893.36,553.3,564.92,544a1.74,1.74,0,0,1-1.71-1.67L561,381.5a1.61,1.61,0,0,1,.51-1.21,1.82,1.82,0,0,1,1.24-.5l332-2.09a1.73,1.73,0,0,1,1.25.49,1.6,1.6,0,0,1,.53,1.21l-1.4,172.22A1.73,1.73,0,0,1,893.36,553.3Zm1.38-174.6-332,2.09a.78.78,0,0,0-.55.22.6.6,0,0,0-.2.48l2.19,160.86a.73.73,0,0,0,.74.68l328.43,9.27a.73.73,0,0,0,.74-.68l1.4-172.23a.62.62,0,0,0-.22-.48A.78.78,0,0,0,894.74,378.7Z"/><path class="cls-107" d="M581.84,403h0c0,5.55,3.44,10.06,7.69,10.06H871.88c4.25,0,7.7-4.51,7.7-10.06h0c0-5.55-3.45-10.06-7.7-10.06H589.53C585.28,393,581.84,397.48,581.84,403Z"/><path class="cls-2" d="M589.67,449.2l199.91-1.45c4.35,0,7.89,2.65,7.92,6h0c0,3.33-3.48,6-7.83,6.09l-199.91,1.44c-4.35,0-7.9-2.64-7.92-6h0C581.81,452,585.32,449.23,589.67,449.2Z"/><path class="cls-2" d="M581.84,480.6h0c0,3.32,2.33,6,5.21,6H719.77c2.88,0,5.22-2.7,5.22-6v-3.73c0-3.38-2.41-6.1-5.34-6l-132.72,3.72C584.1,474.66,581.84,477.33,581.84,480.6Z"/><polygon class="cls-11" points="283.94 125.37 292.61 152.04 306.95 134.7 283.94 125.37"/><path class="cls-2" d="M398.9,71l-51.48,86.61a7.1,7.1,0,0,1-10,2.34l-85-55a2.84,2.84,0,0,1,1-5.18Z"/><polygon class="cls-11" points="283.94 125.37 398.9 71.04 297.64 134.28 299.73 141.78 283.94 125.37"/><polygon class="cls-11" points="305.8 139.5 292.61 152.04 297.64 134.28 305.8 139.5"/></g></g></svg>