<?xml version="1.0" encoding="UTF-8"?>
<!DOCTYPE svg PUBLIC "-//W3C//DTD SVG 1.1//EN" "http://www.w3.org/Graphics/SVG/1.1/DTD/svg11.dtd">
<!-- Creator: CorelDRAW 2019 (64-Bit) -->
<svg xmlns="http://www.w3.org/2000/svg" xml:space="preserve" width="3611px" height="1000px" version="1.1" style="shape-rendering:geometricPrecision; text-rendering:geometricPrecision; image-rendering:optimizeQuality; fill-rule:evenodd; clip-rule:evenodd"
viewBox="0 0 2448.88 678.08"
 xmlns:xlink="http://www.w3.org/1999/xlink"
 xmlns:xodm="http://www.corel.com/coreldraw/odm/2003">
 <defs>
  <style type="text/css">
   <![CDATA[
    .fil0 {fill:white}
   ]]>
  </style>
 </defs>
 <g id="Layer_x0020_1">
  <metadata id="CorelCorpID_0Corel-Layer"/>
  <g>
   <path class="fil0" d="M852.52 366.64c-18.98,5.37 -10.25,25.26 -5.34,37.07 5.59,13.44 8.17,33.37 8.73,47.91 1.18,30.5 -8.07,60.89 -32.49,80.58 -10.56,8.52 -26.55,16.31 -40.27,16.54 -17.6,0.3 -22.57,-16.01 -25.62,-30.53 -7.72,-36.81 -2.14,-91.9 -7.82,-106.37 -5.84,-14.88 -26.99,-14.29 -33.17,1.08 -4.79,11.9 -0.39,38.29 0.59,51.87 2.02,28 -6.35,64.14 -27.91,83.72 -32.81,29.81 -49.79,-8.47 -55.48,-36.65 -3.18,-15.71 -8.38,-60.19 -7.26,-76.88 0.61,-9.14 2.85,-18.25 2.11,-27.46 -1.56,-19.54 -23.43,-17.16 -29.94,-0.47 -6.14,15.75 -5.82,34.53 -5.17,51.2 1.16,30.16 6.52,66.58 18.83,94.27 32.09,72.18 92.87,34.21 111.54,-5.94 2.29,-4.92 4.79,-15.03 8.95,-5.7 14.13,31.69 26.96,52.15 66.7,40.91 57.07,-16.14 91.02,-79.29 87.48,-137.49 -1.05,-17.28 -3.15,-32.88 -6.9,-49.77 -3.54,-15.89 -5.67,-34.08 -27.56,-27.89zm1182.6 134.67c-2.61,-16.46 2.44,-41.04 11.74,-55.02 9.34,-14.04 22.56,-23.12 38.76,-28.02 41.57,-12.55 76.07,14.97 79.49,48.1 1.33,12.83 1.93,51.43 -5,61.48 -21.54,31.28 -114.25,41.21 -124.99,-26.54zm-228.6 -12.45c-6.52,36.71 -32.43,56.22 -69.19,59.82 -8.01,0.78 -22.53,1.97 -30.22,1.12 -9.09,-1.01 -22.48,0.58 -22.9,-9.93 -1.27,-31.63 -2.85,-62.03 -2.23,-94.07 0.48,-25.42 44.09,-30.12 67.01,-26.15 38.08,6.59 65.05,26.87 57.53,69.21zm-484.36 -6.79c-1.22,6.71 1.19,10.03 -4.06,25.36 -16.3,47.56 -98.9,47.51 -104.91,37.22 -4.19,-7.16 -3.02,-71.66 -3.06,-87.47 -0.03,-11.19 -1.44,-14.89 8.37,-22.19 11.21,-8.33 31.56,-16.33 45.25,-14.56 36.4,4.69 66.3,18.24 58.41,61.64zm-361 -2.26c1.06,-12.7 7.49,-27.27 15.65,-37.54 19.19,-24.17 48.87,-31.07 78.48,-26.03 16.54,2.81 23.97,8.28 31.48,22.83 -8.5,4.41 -20.33,7.55 -29.86,10.88 -18.01,6.29 -79.16,25.89 -95.75,29.86zm592.99 53.19c-4.62,6.98 -20.96,12.26 -28.4,14.59 -5.2,1.62 -12.03,2.94 -17.64,3.87 -12.1,2 -27.15,2.93 -39.13,-0.05 -21.87,-5.44 -24.43,-30.03 -38.73,-13.33 -8.11,9.49 -6.45,22.2 1.88,30.92 7.66,8.03 18.82,11.45 29.5,13.53 35.69,6.95 116.85,-6.73 124.59,-43.59 11.24,-53.55 -78.11,-57.39 -107.52,-64.03 -78.39,-17.69 -6.15,-68.38 41.16,-62.6 14.67,1.79 20.92,6.01 21.99,20.99 0.43,6.14 0.1,12.52 7.36,14.47 18.66,5.04 20.4,-31.47 14.99,-43.63 -4.72,-10.64 -12.68,-15.55 -22.87,-20.14 -36.48,-16.44 -101,2.75 -121.48,39.59 -12.18,21.9 -12.56,46.15 6.67,63.9 31.81,29.38 111.83,18.51 127.63,45.51zm783.12 -10.19c-8.09,-9.99 -20.79,-41.67 -27.53,-55.07 -9.01,-17.9 -18.76,-39.09 -26.14,-57.61 -3.96,-9.93 -7.51,-22.24 -21.23,-17.71 -11.72,3.87 -17.06,14.49 -13.3,26.21 4.87,15.17 19.06,41.86 26.72,57.03 9.27,18.37 17.84,37.03 27.37,55.24 17.14,32.75 18.26,17.83 -2.31,53.95 -11.83,20.78 -19.59,33.79 -26.48,57.21 -3.88,13.23 0.13,20.41 12.26,26.43 26.57,13.16 26.38,-19.58 28.03,-26.83 1,-4.35 3.18,-11.44 4.69,-15.68 12.91,-36.09 51.21,-98.78 71.1,-137.13 9.93,-19.14 34.98,-56.14 49.12,-75.37 25.65,-34.88 -8.13,-36.49 -24.4,-22.13 -9.44,8.34 -40.5,65.11 -47.75,77.86 -6.91,12.16 -26.56,42.68 -30.15,53.6zm-410.79 -138.06c-15.2,6.64 -15.18,29.78 -16.87,44.24 -3.06,26.02 -5.99,93.31 -2.69,117.9 2.36,17.53 -1.4,37.26 25.23,36.01 27.59,-1.29 6.84,-60.56 6.77,-99.7 -0.03,-18.98 2.93,-38.96 3.44,-57.67 0.28,-10.37 6.32,-50.49 -15.88,-40.78zm-13.58 -79.22c-11.45,4.73 -17.66,17.3 -8.78,28.01 8.23,9.92 36.33,23.19 42.28,3.19 4.09,-13.74 -19.42,-37.02 -33.5,-31.2zm-1731.39 114.45c7.43,0.01 29.87,13.43 37.73,17.74 48.88,26.84 67.57,39.09 67.57,99.99 -5.86,-1.58 -4.54,-6.4 -16.13,-11.04 -12.64,-5.05 -36.03,-3.11 -58.32,-25.47 -9.6,-9.63 -16.93,-21.63 -20.39,-35.08l-10.46 -46.14zm332.54 -254.36l-5.31 -0.45 5.31 0.45zm-2.66 -0.22l-10.68 38.27c-1.35,6.72 -3.59,11.95 -5.28,18.49 -3.81,14.63 -12.47,39.39 -18.59,52.73 -20.28,44.16 -30.77,66.04 -60.47,105.95 -3.65,4.91 -7.12,8.29 -10.66,13.12 -3.77,5.12 -21.11,20.82 -22.66,24.89 13.16,6.06 60.44,-19.67 74.46,-33.1 4.41,-4.22 15.34,-15.08 19.52,-17.84 -6.48,22.1 -36.45,47.06 -56.95,56.26 -29.45,13.22 -64.07,10.25 -92.51,-4.19 -46.06,-23.38 -95.15,-59.46 -131.63,-95.94 -32.06,-32.06 -79.01,-88.55 -96.44,-129.98 -6.33,-15.04 -10.21,-25.82 -15.35,-41.26 -8.25,-24.82 -13.2,-74.6 -8.66,-101.44 2.55,-15.06 6.23,-36.45 6.38,-51.36 -10.51,1.53 -38.03,38.37 -44.61,48.23 -11.91,17.82 -24.39,45.15 -27.72,66.25 -1.56,9.95 -6.62,28.97 -6.96,39.45 -0.27,8.18 -2.25,14.25 -2.28,21.49 -0.04,14.25 -0.81,62.34 0.29,69.98 0.42,2.9 1.61,6.54 1.91,9.41 0.87,8.06 0.66,21.88 3.51,32.72l7.06 39.35c6.42,30.04 12.19,48.36 12.19,81.78 0,15.11 -1.65,31.22 1.62,45.92 6.78,30.45 9.07,38.23 27.58,66.39 6.09,9.26 38.22,45.12 47.79,46.17 1.77,-7.98 -3.24,-16.32 -4.42,-23.88 -2.14,-13.68 -12.75,-40.2 8.25,-44.81 7.25,-1.59 16.42,4.86 21.9,9.01 30.56,23.12 75.79,59.77 106.27,80.53 11.8,8.04 25.81,16.71 37.03,25.24 15.19,11.55 11.2,7.47 25.73,20.69 15.94,14.48 23.7,37.44 33.96,44.16 6.45,-4.9 24.22,-50.9 29.25,-61.32 25.38,-52.58 36.07,-65.64 72.92,-109.35 23.89,-28.32 53.66,-78.43 70.52,-111.75 6.93,-13.71 21.28,-54.14 23.07,-68.62 1.81,-14.55 4.65,-25.48 4.65,-40.64 0,-11.53 1.29,-35.58 -0.82,-45.59 -1.83,-8.64 -11.88,-72.9 -19.17,-75.41zm509.75 220.48c-20.88,2.4 -34.78,5.34 -52.53,17.64 -14.06,9.74 -25.5,23.49 -31.84,39.45 -15.58,39.21 -14.71,75.83 14.46,107.87 29.17,32.04 68.04,33.43 108.05,30.48 18.01,-1.33 41.16,-4.06 56.76,-13.39 14.35,-8.59 8.67,-38.22 -24.24,-25.34 -41.99,16.44 -112.42,18.38 -128.1,-27.45 -3.43,-10.02 10.6,-10.32 18.77,-12.87 28.76,-8.96 81.42,-26.63 108.34,-33.14 25.02,-6.04 36.76,-8.86 25.46,-39.17 -13.96,-37.42 -59.45,-48.19 -95.13,-44.08zm187.85 22.63c0,-19.55 1.14,-38.09 1.14,-57.71 0,-18.26 3.22,-38.09 -23.65,-32.75 -10.2,2.03 -10.38,10.41 -10.33,19.14 0.37,66.06 -1.92,144.87 -0.01,207.16 0.42,13.84 0.74,39.9 21.23,37.13 14.61,-1.98 5.66,-8.57 20.87,-4.58 37.52,9.83 85.28,-0.62 112.69,-28.34 26.24,-26.53 29.51,-55.09 24.85,-91.05 -7.23,-55.76 -56.74,-74.35 -105.86,-68.05 -15.7,2.01 -28.48,10.14 -40.93,19.05zm476.02 166.56c2.42,-0.85 18.82,3.39 23.52,3.86 59.48,5.96 116.61,-11.83 130.2,-78.23 11.59,-56.64 -13.13,-94.02 -67.48,-107.84 -32.13,-8.18 -72.88,-8.04 -101.05,10.61 -19.17,12.7 -19.75,18.69 -19.84,40.14 -0.11,28.3 -1.43,156.78 0.84,180.2 1.52,15.63 -5.86,42.83 17.24,43.99 27.22,1.36 21.75,-17.83 19.76,-36.85 -1.13,-10.7 -6.49,-48.12 -3.19,-55.88zm482.51 -164.29c-4.75,-2.28 -13.78,-10.98 -20.13,-14.95 -25.25,-15.8 -60.97,-14.11 -85.89,-1.67 -35.1,17.53 -54.42,43.45 -59.89,82.7 -5.44,39.08 8.81,78.6 45.55,96.15 24.09,11.51 65.06,10 91.1,2.02 11.09,-3.41 15.04,-8.44 23.85,-12.37l1.6 4.67c0.74,2.12 1,2.72 2.14,4.68 7.31,12.59 20.02,12.02 26.93,4.35 7.88,-8.76 5.33,-39.15 5.3,-51.28l2.28 -150.53c0.03,-5.53 -0.96,-9.18 -1.09,-13.64 -0.33,-11.44 7.35,-41.31 -11.39,-42.99 -24.25,-2.16 -20.36,19.77 -20.36,36.27 0,18.86 0,37.72 0,56.59z"/>
  </g>
 </g>
</svg>
